<?xml version="1.0" encoding="UTF-8" ?>
<!DOCTYPE svg PUBLIC "-//W3C//DTD SVG 1.1//EN" "http://www.w3.org/Graphics/SVG/1.1/DTD/svg11.dtd">
<svg width="68pt" height="100pt" viewBox="0 0 68 100" version="1.1" xmlns="http://www.w3.org/2000/svg">
<g id="#000000ff">
<path fill="#000000" opacity="1.00" d=" M 0.00 0.00 L 68.00 0.00 L 68.00 70.00 C 58.34 70.01 48.68 69.98 39.01 70.01 C 38.97 79.67 39.04 89.34 38.98 99.00 C 35.66 99.00 32.34 99.00 29.02 99.00 C 28.96 89.34 29.03 79.67 28.99 70.01 C 19.32 69.98 9.66 70.01 0.00 70.00 L 0.00 0.00 M 7.59 5.73 C 6.67 10.10 6.90 14.57 7.08 19.00 C 7.16 32.61 7.13 46.23 6.89 59.84 C 24.92 59.95 42.94 59.86 60.97 59.88 C 60.89 41.93 61.18 23.96 60.83 6.01 C 43.09 5.43 25.33 5.96 7.59 5.73 Z" />
</g>
<g id="#ffffffff">
</g>
</svg>
