<?xml version="1.0" encoding="UTF-8" ?>
<!DOCTYPE svg PUBLIC "-//W3C//DTD SVG 1.1//EN" "http://www.w3.org/Graphics/SVG/1.1/DTD/svg11.dtd">
<svg width="68pt" height="68pt" viewBox="0 0 68 68" version="1.1" xmlns="http://www.w3.org/2000/svg">
<g id="#000000ff">
<path fill="#000000" opacity="1.00" d=" M 0.00 0.00 L 5.64 0.00 C 9.65 2.32 12.50 6.05 16.04 8.95 C 17.96 10.58 20.62 10.30 22.96 10.39 C 37.27 10.23 51.58 10.39 65.89 10.28 C 66.12 29.17 65.97 48.08 65.98 66.98 C 47.41 66.97 28.84 67.12 10.28 66.90 C 10.29 48.30 10.45 29.69 10.22 11.09 C 6.80 8.81 3.32 6.63 0.00 4.23 L 0.00 0.00 M 17.66 17.73 C 17.64 31.93 17.63 46.13 17.66 60.33 C 31.90 60.47 46.15 60.47 60.39 60.33 C 60.43 46.13 60.44 31.93 60.39 17.73 C 46.14 17.59 31.90 17.59 17.66 17.73 Z" />
</g>
<g id="#ffffffff">
</g>
</svg>
