<?xml version="1.0" encoding="UTF-8" ?>
<!DOCTYPE svg PUBLIC "-//W3C//DTD SVG 1.1//EN" "http://www.w3.org/Graphics/SVG/1.1/DTD/svg11.dtd">
<svg width="29pt" height="87pt" viewBox="0 0 29 87" version="1.1" xmlns="http://www.w3.org/2000/svg">
<g id="#ffffffff">
</g>
<g id="#000000ff">
<path fill="#000000" opacity="1.00" d=" M 23.39 1.01 C 24.91 1.00 26.43 0.99 27.96 0.99 C 28.14 3.32 28.30 5.66 28.32 8.00 C 28.16 27.67 28.30 47.34 28.24 67.00 C 28.18 73.38 28.59 79.77 27.94 86.13 C 26.67 86.26 25.40 86.38 24.13 86.49 C 23.54 85.01 22.98 83.53 22.43 82.03 C 15.39 81.41 8.32 82.10 1.27 81.69 C 1.25 80.15 1.24 78.62 1.25 77.09 C 8.48 76.39 15.75 77.06 23.00 76.74 C 23.33 71.63 23.37 66.50 22.85 61.41 C 15.60 61.23 8.35 61.66 1.10 61.23 C 1.08 59.70 1.07 58.16 1.06 56.62 C 8.32 56.10 15.59 56.57 22.85 56.43 C 23.44 50.56 23.30 44.64 22.96 38.76 C 15.69 38.35 8.40 38.76 1.12 38.60 C 1.04 37.00 0.96 35.39 0.90 33.78 C 8.22 33.32 15.57 33.79 22.90 33.59 C 23.38 26.88 23.39 20.12 22.86 13.41 C 15.51 13.23 8.15 13.64 0.80 13.26 C 0.78 11.70 0.77 10.15 0.78 8.59 C 8.10 8.13 15.43 8.56 22.76 8.43 C 23.02 5.96 23.19 3.49 23.39 1.01 Z" />
</g>
</svg>
