<?xml version="1.0" encoding="UTF-8" ?>
<!DOCTYPE svg PUBLIC "-//W3C//DTD SVG 1.1//EN" "http://www.w3.org/Graphics/SVG/1.1/DTD/svg11.dtd">
<svg width="24pt" height="86pt" viewBox="0 0 24 86" version="1.1" xmlns="http://www.w3.org/2000/svg">
<g id="#ffffffff">
</g>
<g id="#000000ff">
<path fill="#000000" opacity="1.00" d=" M 18.57 0.00 L 23.12 0.00 C 23.18 28.42 23.32 56.84 23.06 85.25 C 21.71 85.34 20.35 85.42 19.00 85.52 C 18.49 83.78 18.00 82.02 17.51 80.27 C 11.89 80.18 6.26 80.27 0.63 80.09 C 0.67 78.47 0.73 76.85 0.81 75.23 C 6.59 75.19 12.37 75.27 18.15 75.11 C 18.18 72.10 18.18 69.08 18.15 66.07 C 12.10 65.92 6.05 66.01 0.00 65.95 L 0.00 61.02 C 6.02 61.01 12.04 61.08 18.07 60.92 C 18.32 55.70 18.32 50.47 17.99 45.25 C 12.00 45.15 6.00 45.20 0.00 45.21 L 0.00 40.18 C 6.02 40.24 12.04 40.31 18.06 40.09 C 18.33 34.56 18.37 29.00 17.86 23.47 C 12.08 23.56 6.29 23.63 0.51 23.44 C 0.51 21.86 0.52 20.28 0.53 18.70 C 6.36 18.56 12.20 18.62 18.03 18.64 C 18.16 15.55 18.16 12.45 18.03 9.35 C 12.26 9.38 6.49 9.49 0.72 9.21 C 0.81 7.59 0.91 5.97 1.02 4.36 C 6.60 4.39 12.19 4.47 17.77 4.24 C 18.01 2.82 18.28 1.41 18.57 0.00 Z" />
</g>
</svg>
