<?xml version="1.0" encoding="UTF-8" ?>
<!DOCTYPE svg PUBLIC "-//W3C//DTD SVG 1.1//EN" "http://www.w3.org/Graphics/SVG/1.1/DTD/svg11.dtd">
<svg width="50pt" height="96pt" viewBox="0 0 50 96" version="1.1" xmlns="http://www.w3.org/2000/svg">
<g id="#010101ff">
<path fill="#010101" opacity="1.00" d=" M 0.00 0.00 L 10.00 0.00 C 10.10 7.69 9.84 15.38 10.02 23.06 C 9.96 25.94 11.28 28.62 13.24 30.66 C 17.17 35.31 23.20 37.29 27.51 41.49 C 29.75 43.30 31.74 46.13 34.94 45.97 C 39.96 46.21 44.98 45.95 50.00 45.97 L 50.00 57.02 C 44.41 57.13 38.77 56.50 33.23 57.38 C 28.82 58.80 25.21 61.88 21.27 64.20 C 17.62 66.59 13.49 68.24 10.16 71.10 C 8.79 72.27 9.16 74.31 8.97 75.92 C 8.91 82.61 9.08 89.30 9.01 96.00 L 0.00 96.00 L 0.00 65.63 C 7.13 60.29 14.33 54.96 22.61 51.51 C 22.65 50.99 22.72 49.94 22.75 49.42 C 15.23 43.97 6.71 39.86 0.00 33.32 L 0.00 0.00 Z" />
</g>
<g id="#ffffffff">
</g>
</svg>
