<?xml version="1.0" encoding="UTF-8" ?>
<!DOCTYPE svg PUBLIC "-//W3C//DTD SVG 1.1//EN" "http://www.w3.org/Graphics/SVG/1.1/DTD/svg11.dtd">
<svg width="68pt" height="68pt" viewBox="0 0 68 68" version="1.1" xmlns="http://www.w3.org/2000/svg">
<g id="#ffffffff">
</g>
<g id="#000000ff">
<path fill="#000000" opacity="1.00" d=" M 11.31 0.00 L 67.00 0.00 C 67.01 15.00 66.96 30.00 67.03 45.00 C 67.01 48.84 67.25 52.71 66.70 56.53 C 53.48 56.95 40.23 56.61 27.00 56.61 C 23.49 56.75 19.38 55.95 16.51 58.53 C 12.87 61.77 9.50 65.35 5.37 68.00 L 0.00 68.00 L 0.00 63.47 C 3.57 60.82 7.76 58.90 10.82 55.62 C 11.46 53.49 11.34 51.22 11.39 49.02 C 11.23 32.68 11.35 16.34 11.31 0.00 M 18.75 6.76 C 18.56 20.89 18.55 35.05 18.75 49.17 C 32.92 49.50 47.13 49.48 61.31 49.18 C 61.56 35.05 61.53 20.88 61.32 6.75 C 54.22 6.27 47.10 6.69 40.00 6.56 C 32.92 6.69 25.82 6.26 18.75 6.76 Z" />
</g>
</svg>
