<?xml version="1.0" encoding="UTF-8" ?>
<!DOCTYPE svg PUBLIC "-//W3C//DTD SVG 1.1//EN" "http://www.w3.org/Graphics/SVG/1.1/DTD/svg11.dtd">
<svg width="33pt" height="87pt" viewBox="0 0 33 87" version="1.1" xmlns="http://www.w3.org/2000/svg">
<g id="#ffffffff">
</g>
<g id="#000000ff">
<path fill="#000000" opacity="1.00" d=" M 26.18 1.03 C 27.82 1.01 29.47 1.00 31.11 0.99 C 31.23 29.45 31.24 57.91 31.11 86.36 C 29.46 86.33 27.81 86.30 26.17 86.26 C 26.22 79.24 26.21 72.23 26.09 65.21 C 17.57 65.19 9.06 65.23 0.55 65.19 C 0.52 63.58 0.50 61.97 0.48 60.37 C 8.96 60.16 17.44 60.20 25.92 60.37 C 26.39 52.32 26.22 44.26 26.07 36.21 C 17.38 36.19 8.69 36.22 0.00 36.20 L 0.00 31.20 C 8.71 31.19 17.42 31.28 26.12 31.14 C 26.27 21.10 26.14 11.07 26.18 1.03 Z" />
</g>
</svg>
