<?xml version="1.0" encoding="UTF-8" ?>
<!DOCTYPE svg PUBLIC "-//W3C//DTD SVG 1.1//EN" "http://www.w3.org/Graphics/SVG/1.1/DTD/svg11.dtd">
<svg width="27pt" height="97pt" viewBox="0 0 27 97" version="1.1" xmlns="http://www.w3.org/2000/svg">
<g id="#ffffffff">
</g>
<g id="#000000ff">
<path fill="#000000" opacity="1.00" d=" M 20.15 3.08 C 21.65 1.19 24.12 1.37 26.28 1.29 C 26.48 32.99 26.48 64.70 26.28 96.40 C 24.62 96.31 22.96 96.23 21.31 96.16 C 21.45 88.91 21.53 81.65 21.17 74.40 C 15.24 79.34 10.24 85.25 4.47 90.37 C 3.42 89.17 2.36 87.97 1.30 86.78 C 7.91 80.38 13.79 73.11 21.33 67.77 C 21.45 63.31 21.42 58.84 21.18 54.39 C 15.31 59.30 10.24 65.06 4.71 70.34 C 3.44 69.25 2.18 68.16 0.91 67.07 C 7.70 60.42 14.00 53.24 21.39 47.23 C 21.48 42.08 21.49 36.92 21.42 31.77 C 15.42 37.04 10.17 43.09 4.20 48.39 C 3.10 47.25 2.01 46.12 0.91 44.99 C 7.67 38.28 14.11 31.20 21.35 24.99 C 21.45 19.85 21.46 14.70 21.19 9.57 C 15.05 14.93 9.51 20.94 3.73 26.68 C 2.49 25.74 1.25 24.80 0.00 23.87 L 0.00 23.24 C 6.74 16.54 13.46 9.82 20.15 3.08 Z" />
</g>
</svg>
