<?xml version="1.0" encoding="UTF-8" ?>
<!DOCTYPE svg PUBLIC "-//W3C//DTD SVG 1.1//EN" "http://www.w3.org/Graphics/SVG/1.1/DTD/svg11.dtd">
<svg width="25pt" height="96pt" viewBox="0 0 25 96" version="1.1" xmlns="http://www.w3.org/2000/svg">
<g id="#ffffffff">
</g>
<g id="#000000ff">
<path fill="#000000" opacity="1.00" d=" M 20.08 0.00 L 20.79 0.00 C 21.97 0.22 23.14 0.46 24.30 0.72 C 24.44 32.27 24.51 63.84 24.27 95.40 C 22.62 95.32 20.97 95.23 19.32 95.14 C 19.32 73.84 19.69 52.52 19.14 31.23 C 13.33 36.04 8.34 41.73 2.92 46.95 C 1.95 46.66 0.97 46.37 0.00 46.08 L 0.00 42.69 C 6.51 36.52 12.53 29.83 19.34 23.98 C 19.45 18.85 19.48 13.71 19.20 8.58 C 12.41 14.04 7.32 21.37 0.00 26.19 L 0.00 20.48 C 6.45 13.42 13.62 7.05 20.08 0.00 Z" />
</g>
</svg>
