<?xml version="1.0" encoding="UTF-8" ?>
<!DOCTYPE svg PUBLIC "-//W3C//DTD SVG 1.1//EN" "http://www.w3.org/Graphics/SVG/1.1/DTD/svg11.dtd">
<svg width="26pt" height="96pt" viewBox="0 0 26 96" version="1.1" xmlns="http://www.w3.org/2000/svg">
<g id="#ffffffff">
</g>
<g id="#000000ff">
<path fill="#000000" opacity="1.00" d=" M 21.14 0.00 L 21.90 0.00 C 22.97 0.34 24.05 0.68 25.12 1.02 C 25.76 10.33 25.21 19.67 25.39 29.00 C 25.23 51.14 25.70 73.29 25.16 95.42 C 23.57 95.29 21.97 95.18 20.37 95.04 C 20.39 72.03 20.39 49.01 20.39 26.00 C 20.36 20.23 20.57 14.45 20.17 8.68 C 13.88 13.73 8.81 20.06 2.82 25.44 C 1.90 24.96 0.96 24.51 0.00 24.10 L 0.00 21.36 C 6.94 14.14 14.23 7.26 21.14 0.00 Z" />
</g>
</svg>
