<?xml version="1.0" encoding="UTF-8" ?>
<!DOCTYPE svg PUBLIC "-//W3C//DTD SVG 1.1//EN" "http://www.w3.org/Graphics/SVG/1.1/DTD/svg11.dtd">
<svg width="100pt" height="68pt" viewBox="0 0 100 68" version="1.1" xmlns="http://www.w3.org/2000/svg">
<g id="#ffffffff">
</g>
<g id="#000000ff">
<path fill="#000000" opacity="1.00" d=" M 30.00 0.00 L 100.00 0.00 L 100.00 68.00 L 30.00 68.00 C 29.88 58.37 30.24 48.74 29.88 39.12 C 20.28 38.65 10.67 39.35 1.07 38.88 C 0.90 35.63 0.90 32.37 1.07 29.12 C 10.67 28.64 20.28 29.36 29.88 28.88 C 30.24 19.25 29.88 9.63 30.00 0.00 M 40.23 7.00 C 40.00 24.96 40.08 42.93 40.19 60.89 C 55.45 61.18 70.73 60.80 85.99 61.04 C 88.60 61.09 91.21 60.98 93.81 60.73 C 94.15 58.85 94.34 56.94 94.29 55.03 C 94.12 39.33 94.34 23.62 94.20 7.92 C 91.04 6.25 87.39 7.02 83.98 7.01 C 69.40 7.33 54.81 6.94 40.23 7.00 Z" />
</g>
</svg>
