<?xml version="1.0" encoding="UTF-8" ?>
<!DOCTYPE svg PUBLIC "-//W3C//DTD SVG 1.1//EN" "http://www.w3.org/Graphics/SVG/1.1/DTD/svg11.dtd">
<svg width="26pt" height="100pt" viewBox="0 0 26 100" version="1.1" xmlns="http://www.w3.org/2000/svg">
<g id="#000000ff">
<path fill="#000000" opacity="1.00" d=" M 0.00 0.00 L 7.26 0.00 C 13.48 6.23 19.61 12.55 26.00 18.61 L 26.00 19.82 C 24.88 20.67 23.77 21.52 22.65 22.36 C 16.64 16.65 10.92 10.64 4.93 4.91 C 4.80 10.24 4.80 15.57 4.82 20.90 C 10.16 24.94 14.55 30.02 19.39 34.60 C 21.22 36.43 23.22 38.14 24.63 40.33 C 24.46 41.94 23.02 43.10 22.23 44.45 C 16.33 38.99 10.94 33.00 4.96 27.63 C 4.79 32.72 4.80 37.81 4.83 42.90 C 12.06 48.94 18.32 56.01 25.12 62.51 C 24.04 63.83 22.84 65.03 21.52 66.11 C 15.99 60.65 10.68 54.97 4.94 49.73 C 4.77 54.45 4.79 59.18 5.00 63.90 C 12.81 68.83 18.40 76.42 25.06 82.68 C 23.94 83.82 22.81 84.96 21.67 86.09 C 15.99 80.76 10.70 75.03 4.97 69.76 C 4.96 74.69 4.16 79.77 5.35 84.61 C 8.74 89.41 13.52 93.06 17.61 97.25 C 17.03 98.17 16.45 99.08 15.86 100.00 L 13.31 100.00 C 10.79 97.81 8.72 95.13 6.01 93.16 C 4.19 92.13 2.00 92.11 0.00 91.65 L 0.00 0.00 Z" />
</g>
<g id="#ffffffff">
</g>
</svg>
