<?xml version="1.0" encoding="UTF-8" ?>
<!DOCTYPE svg PUBLIC "-//W3C//DTD SVG 1.1//EN" "http://www.w3.org/Graphics/SVG/1.1/DTD/svg11.dtd">
<svg width="68pt" height="68pt" viewBox="0 0 68 68" version="1.1" xmlns="http://www.w3.org/2000/svg">
<g id="#ffffffff">
</g>
<g id="#000000ff">
<path fill="#000000" opacity="1.00" d=" M 62.60 0.00 L 68.00 0.00 L 68.00 4.55 C 64.34 7.14 60.43 9.36 56.97 12.22 C 56.40 17.13 56.69 22.07 56.68 27.00 C 56.70 40.67 56.64 54.33 56.72 68.00 L 1.00 68.00 C 1.16 49.12 0.69 30.23 1.21 11.36 C 15.83 11.23 30.45 11.33 45.07 11.38 C 47.34 11.40 49.82 11.21 51.53 9.50 C 55.11 6.21 58.46 2.63 62.60 0.00 M 6.69 18.80 C 6.50 32.94 6.51 47.11 6.69 61.26 C 20.87 61.52 35.08 61.53 49.26 61.25 C 49.42 47.11 49.42 32.95 49.26 18.80 C 35.08 18.54 20.87 18.55 6.69 18.80 Z" />
</g>
</svg>
