<?xml version="1.0" encoding="UTF-8" ?>
<!DOCTYPE svg PUBLIC "-//W3C//DTD SVG 1.1//EN" "http://www.w3.org/Graphics/SVG/1.1/DTD/svg11.dtd">
<svg width="32pt" height="86pt" viewBox="0 0 32 86" version="1.1" xmlns="http://www.w3.org/2000/svg">
<g id="#ffffffff">
</g>
<g id="#000000ff">
<path fill="#000000" opacity="1.00" d=" M 0.91 0.63 C 2.54 0.66 4.18 0.68 5.82 0.71 C 5.80 7.73 5.79 14.75 5.92 21.77 C 14.44 21.85 22.96 21.75 31.48 21.82 C 31.51 23.44 31.54 25.06 31.57 26.67 C 23.08 26.90 14.59 26.79 6.09 26.72 C 5.62 34.73 5.76 42.75 5.95 50.76 C 14.63 50.85 23.32 50.78 32.00 50.80 L 32.00 55.80 C 23.30 55.83 14.60 55.70 5.90 55.89 C 5.71 65.92 5.86 75.96 5.82 86.00 L 0.87 86.00 C 0.82 57.54 0.74 29.09 0.91 0.63 Z" />
</g>
</svg>
