<?xml version="1.0" encoding="UTF-8" ?>
<!DOCTYPE svg PUBLIC "-//W3C//DTD SVG 1.1//EN" "http://www.w3.org/Graphics/SVG/1.1/DTD/svg11.dtd">
<svg width="27pt" height="85pt" viewBox="0 0 27 85" version="1.1" xmlns="http://www.w3.org/2000/svg">
<g id="#000000ff">
<path fill="#000000" opacity="1.00" d=" M 0.00 0.00 L 4.26 0.00 C 4.73 1.42 5.13 2.85 5.55 4.29 C 12.61 4.07 19.66 4.24 26.72 4.18 C 26.69 5.88 26.67 7.57 26.65 9.27 C 19.36 9.09 12.07 9.27 4.78 9.18 C 4.86 14.33 4.87 19.48 4.94 24.63 C 12.29 24.54 19.65 24.62 27.00 24.61 L 27.00 29.59 C 19.64 29.59 12.27 29.68 4.91 29.55 C 4.83 35.50 4.81 41.45 4.92 47.39 C 12.28 47.37 19.64 47.43 27.00 47.40 L 27.00 52.41 C 19.61 52.37 12.23 52.46 4.84 52.37 C 4.87 59.13 4.76 65.88 4.96 72.64 C 12.31 72.54 19.65 72.63 27.00 72.59 L 27.00 77.61 C 19.68 77.57 12.36 77.69 5.04 77.54 C 4.91 80.03 4.83 82.51 4.75 85.00 L 0.00 85.00 L 0.00 0.00 Z" />
</g>
<g id="#ffffffff">
</g>
</svg>
