<?xml version="1.0" encoding="UTF-8" ?>
<!DOCTYPE svg PUBLIC "-//W3C//DTD SVG 1.1//EN" "http://www.w3.org/Graphics/SVG/1.1/DTD/svg11.dtd">
<svg width="50pt" height="96pt" viewBox="0 0 50 96" version="1.1" xmlns="http://www.w3.org/2000/svg">
<g id="#ffffffff">
</g>
<g id="#010101ff">
<path fill="#010101" opacity="1.00" d=" M 40.99 0.00 L 50.00 0.00 L 50.00 30.39 C 42.69 35.47 35.82 41.41 27.26 44.33 C 27.26 44.92 27.24 46.09 27.23 46.68 C 34.91 51.84 43.14 56.30 50.00 62.58 L 50.00 96.00 L 40.00 96.00 C 39.97 88.98 40.03 81.97 40.05 74.95 C 39.98 72.40 40.08 69.60 38.53 67.41 C 35.41 62.74 30.20 60.29 25.70 57.23 C 22.56 55.14 20.25 51.89 16.80 50.30 C 11.24 49.55 5.60 50.15 0.00 50.02 L 0.00 38.98 C 5.28 38.91 10.60 39.35 15.86 38.78 C 20.25 37.82 23.77 34.76 27.55 32.52 C 31.51 29.82 36.10 28.05 39.72 24.86 C 41.24 23.75 40.86 21.70 41.03 20.07 C 41.07 13.38 40.92 6.69 40.99 0.00 Z" />
</g>
</svg>
