<?xml version="1.0" encoding="UTF-8" ?>
<!DOCTYPE svg PUBLIC "-//W3C//DTD SVG 1.1//EN" "http://www.w3.org/Graphics/SVG/1.1/DTD/svg11.dtd">
<svg width="27pt" height="97pt" viewBox="0 0 27 97" version="1.1" xmlns="http://www.w3.org/2000/svg">
<g id="#ffffffff">
</g>
<g id="#000000ff">
<path fill="#000000" opacity="1.00" d=" M 0.84 1.68 C 3.02 1.09 5.42 1.04 6.87 3.08 C 13.54 9.84 20.27 16.54 27.00 23.24 L 27.00 24.05 C 25.73 24.83 24.49 25.66 23.26 26.51 C 17.23 21.13 12.15 14.74 5.83 9.68 C 5.29 38.45 5.78 67.24 5.61 96.01 C 4.03 96.20 2.44 96.33 0.85 96.41 C 0.71 94.27 0.58 92.13 0.56 89.99 C 0.67 66.66 0.58 43.33 0.61 20.00 C 0.65 13.89 0.36 7.78 0.84 1.68 Z" />
</g>
</svg>
