<?xml version="1.0" encoding="UTF-8" ?>
<!DOCTYPE svg PUBLIC "-//W3C//DTD SVG 1.1//EN" "http://www.w3.org/Graphics/SVG/1.1/DTD/svg11.dtd">
<svg width="27pt" height="97pt" viewBox="0 0 27 97" version="1.1" xmlns="http://www.w3.org/2000/svg">
<g id="#ffffffff">
</g>
<g id="#000000ff">
<path fill="#000000" opacity="1.00" d=" M 0.84 1.70 C 2.49 1.72 4.58 0.60 5.84 2.14 C 12.95 9.11 19.87 16.26 27.00 23.20 L 27.00 23.92 C 25.75 24.81 24.51 25.71 23.26 26.60 C 17.36 21.07 12.13 14.83 5.87 9.69 C 5.48 14.77 5.47 19.86 5.75 24.94 C 12.73 31.40 19.50 38.11 26.02 45.04 C 24.99 46.13 23.95 47.20 22.89 48.26 C 16.67 43.58 12.25 36.94 5.89 32.44 C 5.28 53.63 5.76 74.85 5.67 96.05 C 4.05 96.14 2.43 96.25 0.82 96.40 C 0.37 88.60 0.73 80.80 0.62 73.00 C 0.77 49.23 0.33 25.46 0.84 1.70 Z" />
</g>
</svg>
