<?xml version="1.0" encoding="UTF-8" ?>
<!DOCTYPE svg PUBLIC "-//W3C//DTD SVG 1.1//EN" "http://www.w3.org/Graphics/SVG/1.1/DTD/svg11.dtd">
<svg width="24pt" height="86pt" viewBox="0 0 24 86" version="1.1" xmlns="http://www.w3.org/2000/svg">
<g id="#ffffffff">
</g>
<g id="#000000ff">
<path fill="#000000" opacity="1.00" d=" M 1.30 0.01 C 4.12 1.09 6.08 3.36 7.77 5.76 C 12.99 5.80 18.20 5.80 23.42 5.85 C 23.41 7.49 23.40 9.13 23.39 10.77 C 17.54 10.79 11.69 10.78 5.84 10.89 C 5.83 13.91 5.83 16.93 5.83 19.95 C 11.89 20.02 17.94 19.98 24.00 20.07 L 24.00 24.96 C 17.95 25.00 11.91 24.99 5.86 25.04 C 5.81 30.28 5.81 35.53 5.89 40.77 C 11.93 40.81 17.96 40.81 24.00 40.80 L 24.00 45.80 C 17.96 45.79 11.92 45.78 5.89 45.87 C 5.79 51.37 5.79 56.87 5.95 62.38 C 11.85 62.40 17.75 62.40 23.65 62.42 C 23.64 64.07 23.64 65.72 23.63 67.37 C 17.70 67.40 11.78 67.39 5.85 67.45 C 5.84 70.48 5.84 73.51 5.85 76.55 C 11.67 76.61 17.48 76.59 23.30 76.65 C 23.25 78.29 23.20 79.93 23.15 81.57 C 17.64 81.58 12.13 81.58 6.62 81.73 C 6.15 83.16 5.67 84.58 5.17 86.00 L 0.81 86.00 C 0.84 64.00 0.82 42.00 0.82 20.00 C 0.85 13.34 0.57 6.65 1.30 0.01 Z" />
</g>
</svg>
