<?xml version="1.0" encoding="UTF-8" ?>
<!DOCTYPE svg PUBLIC "-//W3C//DTD SVG 1.1//EN" "http://www.w3.org/Graphics/SVG/1.1/DTD/svg11.dtd">
<svg width="28pt" height="86pt" viewBox="0 0 28 86" version="1.1" xmlns="http://www.w3.org/2000/svg">
<g id="#ffffffff">
</g>
<g id="#000000ff">
<path fill="#000000" opacity="1.00" d=" M 0.00 0.79 C 1.61 0.78 3.23 0.78 4.84 0.82 C 4.69 4.49 4.73 8.16 4.99 11.82 C 12.66 11.71 20.33 11.67 28.00 11.83 L 28.00 16.83 C 20.30 16.71 12.59 16.60 4.89 16.88 C 4.78 24.50 4.47 32.15 5.09 39.75 C 12.73 39.63 20.37 39.53 28.00 39.79 L 28.00 44.22 C 20.39 44.54 12.76 44.44 5.15 44.26 C 4.39 52.47 4.81 60.75 4.89 68.98 C 12.33 69.06 19.78 68.94 27.22 69.02 C 27.23 70.67 27.23 72.32 27.22 73.98 C 19.78 74.06 12.33 73.94 4.89 74.02 C 4.70 78.01 4.71 82.01 4.87 86.00 L 0.00 86.00 L 0.00 0.79 Z" />
</g>
</svg>
