<?xml version="1.0" encoding="UTF-8" ?>
<!DOCTYPE svg PUBLIC "-//W3C//DTD SVG 1.1//EN" "http://www.w3.org/Graphics/SVG/1.1/DTD/svg11.dtd">
<svg width="68pt" height="68pt" viewBox="0 0 68 68" version="1.1" xmlns="http://www.w3.org/2000/svg">
<g id="#ffffffff">
</g>
<g id="#000000ff">
<path fill="#000000" opacity="1.00" d=" M 1.00 0.00 L 56.76 0.00 C 56.53 16.33 56.79 32.67 56.63 49.00 C 56.64 51.26 56.53 53.55 57.01 55.77 C 60.40 58.68 64.38 60.81 68.00 63.41 L 68.00 68.00 L 62.57 68.00 C 59.54 65.89 56.63 63.60 54.11 60.89 C 52.17 58.97 50.09 56.49 47.06 56.68 C 31.80 56.59 16.52 56.78 1.26 56.64 C 0.78 52.78 1.01 48.88 0.99 45.00 C 1.01 30.00 1.00 15.00 1.00 0.00 M 6.78 6.83 C 6.51 20.92 6.49 35.06 6.79 49.15 C 20.90 49.48 35.07 49.49 49.18 49.14 C 49.46 35.05 49.46 20.91 49.18 6.82 C 35.07 6.48 20.90 6.48 6.78 6.83 Z" />
</g>
</svg>
