<?xml version="1.0" encoding="UTF-8" ?>
<!DOCTYPE svg PUBLIC "-//W3C//DTD SVG 1.1//EN" "http://www.w3.org/Graphics/SVG/1.1/DTD/svg11.dtd">
<svg width="27pt" height="98pt" viewBox="0 0 27 98" version="1.1" xmlns="http://www.w3.org/2000/svg">
<g id="#ffffffff">
</g>
<g id="#000000ff">
<path fill="#000000" opacity="1.00" d=" M 4.46 1.93 C 12.14 9.22 19.51 16.82 27.00 24.30 L 27.00 24.99 C 25.74 25.85 24.48 26.72 23.23 27.59 C 17.36 21.98 11.99 15.87 5.82 10.58 C 5.69 15.61 4.98 20.75 6.02 25.72 C 12.42 32.74 19.64 39.01 26.08 46.01 C 24.99 47.13 23.91 48.24 22.82 49.35 C 16.78 44.15 11.63 38.04 5.63 32.80 C 5.59 37.44 5.22 42.10 5.69 46.72 C 5.78 48.17 7.02 49.11 7.92 50.10 C 14.12 55.95 20.16 61.96 26.07 68.10 C 24.81 69.17 23.55 70.24 22.29 71.30 C 16.72 66.07 11.70 60.27 5.82 55.38 C 5.33 69.29 5.70 83.21 5.64 97.11 C 4.01 97.23 2.38 97.33 0.74 97.43 C 0.48 65.88 0.54 34.31 0.71 2.76 C 1.96 2.49 3.21 2.21 4.46 1.93 Z" />
</g>
</svg>
