<?xml version="1.0" encoding="UTF-8" ?>
<!DOCTYPE svg PUBLIC "-//W3C//DTD SVG 1.1//EN" "http://www.w3.org/Graphics/SVG/1.1/DTD/svg11.dtd">
<svg width="26pt" height="97pt" viewBox="0 0 26 97" version="1.1" xmlns="http://www.w3.org/2000/svg">
<g id="#ffffffff">
</g>
<g id="#000000ff">
<path fill="#000000" opacity="1.00" d=" M 0.89 2.84 C 2.22 2.61 3.54 2.40 4.86 2.17 C 11.96 9.16 18.95 16.25 26.00 23.28 L 26.00 25.93 C 25.08 26.47 24.15 27.02 23.23 27.57 C 17.30 22.11 12.20 15.76 5.87 10.76 C 5.50 15.81 5.50 20.89 5.74 25.95 C 12.82 32.12 18.93 39.29 26.00 45.46 L 26.00 46.95 C 24.76 47.67 23.48 48.33 22.23 49.02 C 16.44 43.88 11.71 37.55 5.43 32.98 C 5.42 38.09 5.23 43.21 5.58 48.31 C 13.14 53.85 18.79 61.52 26.00 67.48 L 26.00 68.93 C 24.71 69.65 23.42 70.35 22.14 71.07 C 16.42 66.24 11.91 60.11 5.89 55.64 C 5.52 60.02 5.44 64.42 5.75 68.81 C 9.04 70.91 11.92 73.57 14.56 76.43 C 18.18 80.30 22.34 83.66 25.54 87.90 C 24.60 88.99 23.66 90.08 22.72 91.17 C 16.39 86.82 12.16 80.07 5.88 75.64 C 5.37 82.75 5.67 89.88 5.73 97.00 L 0.82 97.00 C 0.37 68.34 0.81 39.67 0.60 11.00 C 0.55 8.28 0.67 5.55 0.89 2.84 Z" />
</g>
</svg>
