<?xml version="1.0" encoding="UTF-8" ?>
<!DOCTYPE svg PUBLIC "-//W3C//DTD SVG 1.1//EN" "http://www.w3.org/Graphics/SVG/1.1/DTD/svg11.dtd">
<svg width="28pt" height="89pt" viewBox="0 0 28 89" version="1.1" xmlns="http://www.w3.org/2000/svg">
<g id="#ffffffff">
</g>
<g id="#000000ff">
<path fill="#000000" opacity="1.00" d=" M 23.18 1.12 C 24.79 1.05 26.39 0.98 28.00 0.91 L 28.00 86.75 C 26.42 86.44 24.82 86.20 23.23 85.95 C 23.19 82.37 23.15 78.79 23.08 75.21 C 15.39 75.20 7.69 75.20 0.00 75.20 L 0.00 70.20 C 7.71 70.21 15.42 70.24 23.12 70.15 C 23.22 62.56 23.27 54.96 23.04 47.37 C 15.36 47.40 7.68 47.41 0.00 47.36 L 0.00 42.49 C 7.66 42.38 15.32 42.38 22.98 42.48 C 23.33 34.33 23.19 26.18 23.13 18.02 C 15.67 17.98 8.20 18.01 0.74 17.98 C 0.74 16.33 0.74 14.67 0.74 13.02 C 8.20 12.99 15.67 13.01 23.13 12.98 C 23.17 9.03 23.18 5.07 23.18 1.12 Z" />
</g>
</svg>
