<?xml version="1.0" encoding="UTF-8" ?>
<!DOCTYPE svg PUBLIC "-//W3C//DTD SVG 1.1//EN" "http://www.w3.org/Graphics/SVG/1.1/DTD/svg11.dtd">
<svg width="68pt" height="100pt" viewBox="0 0 68 100" version="1.1" xmlns="http://www.w3.org/2000/svg">
<g id="#ffffffff">
</g>
<g id="#000000ff">
<path fill="#000000" opacity="1.00" d=" M 29.00 0.00 L 39.00 0.00 C 39.08 9.64 38.83 19.28 39.08 28.91 C 48.72 29.17 58.36 28.92 68.00 29.00 L 68.00 100.00 L 0.00 100.00 L 0.00 29.00 C 9.64 28.92 19.28 29.17 28.91 28.91 C 29.17 19.28 28.92 9.64 29.00 0.00 M 7.09 39.16 C 7.07 57.06 6.78 74.98 7.23 92.86 C 9.14 93.09 11.05 93.29 12.97 93.29 C 28.70 93.15 44.43 93.30 60.15 93.22 C 61.73 89.67 60.98 85.74 60.96 81.99 C 60.72 67.73 61.02 53.47 61.02 39.21 C 43.05 39.02 25.06 39.11 7.09 39.16 Z" />
</g>
</svg>
