<?xml version="1.0" encoding="UTF-8" ?>
<!DOCTYPE svg PUBLIC "-//W3C//DTD SVG 1.1//EN" "http://www.w3.org/Graphics/SVG/1.1/DTD/svg11.dtd">
<svg width="100pt" height="100pt" viewBox="0 0 100 100" version="1.1" xmlns="http://www.w3.org/2000/svg">
<g id="#ffffffff">
</g>
<g id="#000000ff">
<path fill="#000000" opacity="1.00" d=" M 22.00 0.00 L 69.00 0.00 C 69.00 33.33 69.00 66.67 69.00 100.00 L 22.00 100.00 C 22.00 66.67 22.00 33.33 22.00 0.00 M 28.08 6.05 C 27.90 35.33 27.99 64.62 28.05 93.90 C 39.33 94.24 50.63 93.96 61.92 93.95 C 62.10 64.67 62.01 35.38 61.95 6.10 C 50.67 5.76 39.37 6.04 28.08 6.05 Z" />
<path fill="#000000" opacity="1.00" d=" M 45.20 48.32 C 49.84 48.25 50.52 55.00 45.80 55.68 C 41.16 55.75 40.48 49.00 45.20 48.32 Z" />
</g>
</svg>
