<?xml version="1.0" encoding="UTF-8" ?>
<!DOCTYPE svg PUBLIC "-//W3C//DTD SVG 1.1//EN" "http://www.w3.org/Graphics/SVG/1.1/DTD/svg11.dtd">
<svg width="50pt" height="100pt" viewBox="0 0 50 100" version="1.1" xmlns="http://www.w3.org/2000/svg">
<g id="#000000ff">
<path fill="#000000" opacity="1.00" d=" M 0.00 0.00 L 50.00 0.00 L 50.00 68.00 C 42.66 67.99 35.33 68.02 27.99 67.99 C 28.01 78.66 28.00 89.33 27.99 100.00 L 0.40 100.00 C 0.30 99.89 0.10 99.68 0.00 99.57 L 0.00 0.00 M 6.99 5.99 C 7.01 35.00 7.00 64.00 6.99 93.01 C 11.66 92.99 16.34 92.99 21.01 93.01 C 20.98 82.34 21.01 71.66 20.99 60.99 C 28.33 61.02 35.67 60.98 43.01 61.01 C 43.00 42.67 42.99 24.33 43.01 5.99 C 31.00 6.01 19.00 6.00 6.99 5.99 Z" />
<path fill="#000000" opacity="1.00" d=" M 22.49 47.55 C 25.48 45.01 30.42 48.25 29.49 51.98 C 28.97 55.28 24.82 56.55 22.20 54.88 C 19.79 53.28 20.09 49.00 22.49 47.55 Z" />
</g>
<g id="#ffffffff">
</g>
</svg>
