<?xml version="1.0" encoding="UTF-8" ?>
<!DOCTYPE svg PUBLIC "-//W3C//DTD SVG 1.1//EN" "http://www.w3.org/Graphics/SVG/1.1/DTD/svg11.dtd">
<svg width="50pt" height="100pt" viewBox="0 0 50 100" version="1.1" xmlns="http://www.w3.org/2000/svg">
<g id="#ffffffff">
</g>
<g id="#000000ff">
<path fill="#000000" opacity="1.00" d=" M 44.32 0.00 L 50.00 0.00 L 50.00 100.00 L 43.73 100.00 C 29.18 82.65 14.30 65.56 0.00 48.01 L 0.00 43.15 C 14.62 28.61 29.89 14.73 44.32 0.00 M 21.80 29.95 C 15.53 34.00 12.04 40.96 6.14 45.35 C 6.34 46.72 7.40 47.67 8.23 48.69 C 12.82 53.88 17.13 59.30 21.94 64.28 C 23.75 67.02 26.62 68.88 27.98 71.93 C 32.43 77.53 37.37 82.72 41.84 88.30 C 42.32 88.41 43.28 88.62 43.77 88.73 C 43.90 61.96 43.43 35.18 43.72 8.41 C 36.44 15.62 29.33 23.02 21.80 29.95 Z" />
<path fill="#000000" opacity="1.00" d=" M 27.20 44.16 C 29.13 43.30 31.64 44.91 31.87 46.97 C 32.55 49.99 28.53 52.78 26.12 50.45 C 23.43 49.07 24.40 44.74 27.20 44.16 Z" />
</g>
</svg>
