<?xml version="1.0" encoding="UTF-8" ?>
<!DOCTYPE svg PUBLIC "-//W3C//DTD SVG 1.1//EN" "http://www.w3.org/Graphics/SVG/1.1/DTD/svg11.dtd">
<svg width="50pt" height="100pt" viewBox="0 0 50 100" version="1.1" xmlns="http://www.w3.org/2000/svg">
<g id="#ffffffff">
</g>
<g id="#000000ff">
<path fill="#000000" opacity="1.00" d=" M 22.02 0.00 L 49.69 0.00 C 49.77 0.08 49.92 0.23 50.00 0.31 L 50.00 100.00 L 0.00 100.00 L 0.00 31.99 C 7.29 31.93 14.59 32.22 21.88 31.88 C 22.25 21.26 21.85 10.63 22.02 0.00 M 29.08 7.09 C 28.77 17.70 29.23 28.31 28.92 38.92 C 21.64 39.24 14.36 38.76 7.08 39.08 C 6.94 57.36 6.94 75.64 7.08 93.92 C 19.02 94.07 30.98 94.07 42.92 93.92 C 43.06 64.98 43.06 36.03 42.92 7.09 C 38.31 6.88 33.69 6.88 29.08 7.09 Z" />
<path fill="#000000" opacity="1.00" d=" M 22.40 45.18 C 24.84 43.47 29.53 44.63 29.39 48.12 C 30.10 51.66 25.46 54.82 22.51 52.59 C 19.83 51.11 19.76 46.76 22.40 45.18 Z" />
</g>
</svg>
