<?xml version="1.0" encoding="UTF-8" ?>
<!DOCTYPE svg PUBLIC "-//W3C//DTD SVG 1.1//EN" "http://www.w3.org/Graphics/SVG/1.1/DTD/svg11.dtd">
<svg width="47pt" height="100pt" viewBox="0 0 47 100" version="1.1" xmlns="http://www.w3.org/2000/svg">
<g id="#010101ff">
<path fill="#010101" opacity="1.00" d=" M 0.00 0.00 L 47.00 0.00 L 47.00 73.89 C 34.17 82.55 21.46 91.41 8.58 100.00 L 0.00 100.00 L 0.00 0.00 M 6.12 6.14 C 5.76 13.08 6.14 20.04 6.01 26.99 C 6.16 48.71 5.71 70.45 6.23 92.15 C 10.35 90.14 14.04 87.41 17.85 84.89 C 24.59 80.23 31.57 75.94 38.38 71.39 C 40.60 70.13 39.81 67.14 40.07 65.03 C 39.81 45.41 40.25 25.77 39.85 6.15 C 28.62 5.89 17.35 5.91 6.12 6.14 Z" />
<path fill="#010101" opacity="1.00" d=" M 19.89 50.14 C 21.61 48.58 24.56 47.66 26.37 49.59 C 27.72 50.50 26.99 52.44 27.00 53.78 C 25.62 54.88 23.67 56.51 21.92 55.14 C 19.71 54.44 19.81 52.03 19.89 50.14 Z" />
</g>
<g id="#ffffffff">
</g>
</svg>
