<?xml version="1.0" encoding="UTF-8" ?>
<!DOCTYPE svg PUBLIC "-//W3C//DTD SVG 1.1//EN" "http://www.w3.org/Graphics/SVG/1.1/DTD/svg11.dtd">
<svg width="50pt" height="100pt" viewBox="0 0 50 100" version="1.1" xmlns="http://www.w3.org/2000/svg">
<g id="#ffffffff">
</g>
<g id="#000000ff">
<path fill="#000000" opacity="1.00" d=" M 44.50 0.00 L 50.00 0.00 L 50.00 100.00 L 43.46 100.00 C 29.21 82.64 14.65 65.52 0.00 48.50 L 0.00 43.23 C 7.02 35.83 14.68 29.08 21.94 21.92 C 29.72 14.88 36.80 7.12 44.50 0.00 M 41.58 10.50 C 34.05 18.00 26.85 25.88 18.61 32.61 C 14.20 36.79 10.19 41.43 6.24 45.99 C 12.26 54.08 19.45 61.26 25.97 68.96 C 30.00 74.85 34.88 80.07 39.50 85.49 C 40.69 86.84 41.82 88.42 43.64 88.95 C 43.85 62.30 43.57 35.63 43.64 8.98 C 42.90 9.42 42.22 9.93 41.58 10.50 Z" />
<path fill="#000000" opacity="1.00" d=" M 26.38 44.38 C 28.52 43.37 31.74 44.47 31.83 47.10 C 32.41 49.94 28.77 52.42 26.39 50.68 C 23.95 49.49 24.10 45.65 26.38 44.38 Z" />
</g>
</svg>
