<?xml version="1.0" encoding="UTF-8" ?>
<!DOCTYPE svg PUBLIC "-//W3C//DTD SVG 1.1//EN" "http://www.w3.org/Graphics/SVG/1.1/DTD/svg11.dtd">
<svg width="50pt" height="100pt" viewBox="0 0 50 100" version="1.1" xmlns="http://www.w3.org/2000/svg">
<g id="#ffffffff">
</g>
<g id="#000000ff">
<path fill="#000000" opacity="1.00" d=" M 1.69 0.00 L 49.03 0.00 C 48.97 24.60 48.99 49.21 49.03 73.81 C 36.35 82.64 23.45 91.21 10.72 100.00 L 3.05 100.00 C 2.74 99.92 2.13 99.77 1.82 99.70 C 2.26 68.82 1.85 37.92 2.02 7.03 C 2.05 4.68 1.99 2.33 1.69 0.00 M 8.00 6.00 C 8.00 32.65 8.00 59.29 8.00 85.94 C 7.99 88.16 8.08 90.38 8.25 92.60 C 18.91 85.42 29.69 78.41 40.41 71.31 C 42.76 70.15 41.96 67.11 42.07 64.99 C 41.85 45.33 42.15 25.67 41.92 6.01 C 30.61 5.99 19.30 6.00 8.00 6.00 Z" />
<path fill="#000000" opacity="1.00" d=" M 23.44 49.00 C 25.64 47.54 29.65 48.98 29.18 51.96 C 29.38 55.82 23.70 56.96 22.12 53.58 C 21.71 52.05 21.58 49.64 23.44 49.00 Z" />
</g>
</svg>
