<?xml version="1.0" encoding="UTF-8" ?>
<!DOCTYPE svg PUBLIC "-//W3C//DTD SVG 1.1//EN" "http://www.w3.org/Graphics/SVG/1.1/DTD/svg11.dtd">
<svg width="50pt" height="100pt" viewBox="0 0 50 100" version="1.1" xmlns="http://www.w3.org/2000/svg">
<g id="#ffffffff">
</g>
<g id="#000000ff">
<path fill="#000000" opacity="1.00" d=" M 0.43 0.00 L 27.99 0.00 C 28.00 10.67 28.01 21.34 27.99 32.01 C 35.33 31.98 42.66 32.01 50.00 32.00 L 50.00 100.00 L 0.00 100.00 L 0.00 0.40 C 0.11 0.30 0.32 0.10 0.43 0.00 M 6.99 6.99 C 7.01 36.00 7.00 65.00 6.99 94.01 C 19.00 94.00 31.00 94.00 43.01 94.01 C 43.00 75.67 42.99 57.33 43.01 38.99 C 35.67 39.02 28.33 38.98 20.99 39.01 C 21.01 28.34 20.99 17.66 21.01 6.99 C 16.34 7.00 11.66 7.00 6.99 6.99 Z" />
<path fill="#000000" opacity="1.00" d=" M 23.50 44.59 C 26.06 43.77 29.02 45.30 29.49 48.02 C 30.38 51.33 26.14 54.76 23.19 52.79 C 19.63 51.65 19.59 45.23 23.50 44.59 Z" />
</g>
</svg>
