<?xml version="1.0" encoding="UTF-8" ?>
<!DOCTYPE svg PUBLIC "-//W3C//DTD SVG 1.1//EN" "http://www.w3.org/Graphics/SVG/1.1/DTD/svg11.dtd">
<svg width="50pt" height="100pt" viewBox="0 0 50 100" version="1.1" xmlns="http://www.w3.org/2000/svg">
<g id="#000000ff">
<path fill="#000000" opacity="1.00" d=" M 0.00 0.00 L 6.38 0.00 C 20.84 17.27 35.39 34.48 50.00 51.63 L 50.00 56.71 C 38.87 68.35 26.64 78.88 15.37 90.39 C 12.10 93.63 8.93 96.99 5.43 100.00 L 0.00 100.00 L 0.00 0.00 M 6.41 10.77 C 6.01 37.58 6.50 64.42 6.38 91.24 C 14.58 83.83 21.75 75.32 30.33 68.32 C 35.43 64.10 39.21 58.58 44.01 54.05 C 36.06 44.02 26.78 35.11 19.27 24.73 C 15.03 20.04 11.42 14.71 6.41 10.77 Z" />
<path fill="#000000" opacity="1.00" d=" M 20.29 49.10 C 22.67 47.83 26.01 50.28 25.37 52.97 C 25.14 55.64 21.73 56.80 19.65 55.41 C 17.32 54.01 17.72 50.02 20.29 49.10 Z" />
</g>
<g id="#ffffffff">
</g>
</svg>
