<?xml version="1.0" encoding="UTF-8" ?>
<!DOCTYPE svg PUBLIC "-//W3C//DTD SVG 1.1//EN" "http://www.w3.org/Graphics/SVG/1.1/DTD/svg11.dtd">
<svg width="50pt" height="100pt" viewBox="0 0 50 100" version="1.1" xmlns="http://www.w3.org/2000/svg">
<g id="#ffffffff">
</g>
<g id="#000000ff">
<path fill="#000000" opacity="1.00" d=" M 22.01 0.00 L 49.59 0.00 C 49.69 0.11 49.90 0.33 50.00 0.44 L 50.00 100.00 L 0.00 100.00 L 0.00 32.00 C 7.34 32.01 14.67 31.99 22.00 32.01 C 22.00 21.34 22.00 10.67 22.01 0.00 M 29.00 6.99 C 29.01 17.66 28.99 28.33 29.00 39.00 C 21.67 38.99 14.33 39.01 6.99 39.00 C 7.00 57.33 7.00 75.67 7.00 94.00 C 19.00 94.00 31.00 94.00 43.00 94.01 C 43.00 65.00 43.00 36.00 43.00 6.99 C 38.33 7.00 33.66 7.00 29.00 6.99 Z" />
<path fill="#000000" opacity="1.00" d=" M 23.47 44.57 C 25.94 43.93 29.51 44.99 29.37 48.07 C 30.22 51.72 25.40 54.93 22.45 52.52 C 19.27 50.74 20.14 45.63 23.47 44.57 Z" />
</g>
</svg>
