<?xml version="1.0" encoding="UTF-8" ?>
<!DOCTYPE svg PUBLIC "-//W3C//DTD SVG 1.1//EN" "http://www.w3.org/Graphics/SVG/1.1/DTD/svg11.dtd">
<svg width="50pt" height="100pt" viewBox="0 0 50 100" version="1.1" xmlns="http://www.w3.org/2000/svg">
<g id="#ffffffff">
</g>
<g id="#000000ff">
<path fill="#000000" opacity="1.00" d=" M 0.25 0.00 L 27.98 0.00 C 28.18 10.61 27.69 21.23 28.17 31.83 C 35.43 32.33 42.73 31.83 50.00 32.00 L 50.00 100.00 L 0.00 100.00 L 0.00 0.24 C 0.06 0.18 0.19 0.06 0.25 0.00 M 7.12 7.12 C 6.92 36.03 6.92 64.97 7.12 93.88 C 19.03 94.09 30.97 94.09 42.88 93.88 C 43.09 75.64 43.08 57.36 42.88 39.12 C 35.64 38.67 28.36 39.33 21.12 38.89 C 20.70 28.31 21.30 17.70 20.88 7.12 C 16.30 6.86 11.70 6.86 7.12 7.12 Z" />
<path fill="#000000" opacity="1.00" d=" M 22.29 44.99 C 24.98 43.74 29.06 44.70 29.44 48.07 C 30.27 51.41 26.37 54.58 23.35 52.81 C 20.24 51.69 19.49 46.81 22.29 44.99 Z" />
</g>
</svg>
