<?xml version="1.0" encoding="UTF-8" ?>
<!DOCTYPE svg PUBLIC "-//W3C//DTD SVG 1.1//EN" "http://www.w3.org/Graphics/SVG/1.1/DTD/svg11.dtd">
<svg width="50pt" height="100pt" viewBox="0 0 50 100" version="1.1" xmlns="http://www.w3.org/2000/svg">
<g id="#000000ff">
<path fill="#000000" opacity="1.00" d=" M 0.00 0.00 L 50.00 0.00 L 50.00 99.72 C 49.93 99.79 49.78 99.93 49.71 100.00 L 22.01 100.00 C 21.87 89.38 22.23 78.74 21.87 68.13 C 14.59 67.75 7.29 68.12 0.00 68.00 L 0.00 0.00 M 7.09 6.09 C 6.94 24.36 6.94 42.65 7.09 60.92 C 14.36 61.23 21.64 60.76 28.91 61.09 C 29.22 71.69 28.78 82.31 29.09 92.91 C 33.69 93.09 38.31 93.09 42.92 92.91 C 43.06 63.98 43.06 35.02 42.91 6.09 C 30.98 5.93 19.02 5.94 7.09 6.09 Z" />
<path fill="#000000" opacity="1.00" d=" M 22.39 47.42 C 25.42 45.32 30.04 48.35 29.37 51.94 C 29.48 56.01 24.02 56.12 21.48 54.54 C 20.16 52.48 20.10 48.88 22.39 47.42 Z" />
</g>
<g id="#ffffffff">
</g>
</svg>
