<?xml version="1.0" encoding="UTF-8" ?>
<!DOCTYPE svg PUBLIC "-//W3C//DTD SVG 1.1//EN" "http://www.w3.org/Graphics/SVG/1.1/DTD/svg11.dtd">
<svg width="50pt" height="100pt" viewBox="0 0 50 100" version="1.1" xmlns="http://www.w3.org/2000/svg">
<g id="#000000ff">
<path fill="#000000" opacity="1.00" d=" M 0.00 0.00 L 50.00 0.00 L 50.00 99.72 C 49.93 99.79 49.78 99.93 49.71 100.00 L 22.02 100.00 C 21.81 89.39 22.32 78.77 21.82 68.17 C 14.56 67.67 7.27 68.16 0.00 68.00 L 0.00 0.00 M 7.12 6.12 C 6.91 24.36 6.92 42.64 7.12 60.88 C 14.36 61.35 21.64 60.66 28.88 61.12 C 29.31 71.70 28.69 82.30 29.12 92.87 C 33.70 93.15 38.30 93.15 42.88 92.87 C 43.08 63.97 43.08 35.03 42.88 6.12 C 30.97 5.91 19.03 5.91 7.12 6.12 Z" />
<path fill="#000000" opacity="1.00" d=" M 21.45 54.56 C 19.96 52.15 20.09 48.06 23.21 47.06 C 26.56 45.47 30.56 49.40 29.24 52.85 C 28.44 56.24 23.87 55.90 21.45 54.56 Z" />
</g>
<g id="#ffffffff">
</g>
</svg>
