<?xml version="1.0" encoding="UTF-8" ?>
<!DOCTYPE svg PUBLIC "-//W3C//DTD SVG 1.1//EN" "http://www.w3.org/Graphics/SVG/1.1/DTD/svg11.dtd">
<svg width="47pt" height="100pt" viewBox="0 0 47 100" version="1.1" xmlns="http://www.w3.org/2000/svg">
<g id="#ffffffff">
</g>
<g id="#010101ff">
<path fill="#010101" opacity="1.00" d=" M 38.35 0.00 L 47.00 0.00 L 47.00 100.00 L 0.00 100.00 L 0.00 26.15 C 12.74 17.38 25.54 8.68 38.35 0.00 M 36.97 9.92 C 28.21 15.90 19.25 21.59 10.42 27.45 C 8.88 28.59 6.54 29.64 6.98 31.96 C 7.09 52.61 6.87 73.27 7.10 93.92 C 18.39 94.08 29.69 93.97 40.98 93.98 C 40.92 65.27 41.22 36.55 40.82 7.85 C 39.50 8.46 38.16 9.07 36.97 9.92 Z" />
<path fill="#010101" opacity="1.00" d=" M 19.87 46.14 C 21.48 45.36 23.26 43.31 25.07 44.85 C 27.40 45.56 27.01 47.99 27.11 49.91 C 25.50 51.13 23.21 52.12 21.31 50.92 C 19.41 50.08 20.01 47.76 19.87 46.14 Z" />
</g>
</svg>
