<?xml version="1.0" encoding="UTF-8" ?>
<!DOCTYPE svg PUBLIC "-//W3C//DTD SVG 1.1//EN" "http://www.w3.org/Graphics/SVG/1.1/DTD/svg11.dtd">
<svg width="50pt" height="100pt" viewBox="0 0 50 100" version="1.1" xmlns="http://www.w3.org/2000/svg">
<g id="#000000ff">
<path fill="#000000" opacity="1.00" d=" M 0.00 0.00 L 6.28 0.00 C 20.82 17.36 35.71 34.44 50.00 51.99 L 50.00 56.86 C 35.40 71.40 20.07 85.22 5.74 100.00 L 0.00 100.00 L 0.00 0.00 M 6.21 11.30 C 6.15 38.08 6.52 64.87 6.31 91.65 C 13.28 84.47 20.40 77.44 27.61 70.52 C 32.66 66.96 36.61 62.16 40.53 57.45 C 41.39 56.07 43.63 55.56 43.80 53.88 C 41.10 50.12 37.64 46.97 34.92 43.24 C 30.24 37.85 25.00 32.90 21.14 26.91 C 16.83 21.80 12.34 16.86 8.14 11.68 C 7.66 11.58 6.70 11.39 6.21 11.30 Z" />
<path fill="#000000" opacity="1.00" d=" M 18.97 54.80 C 17.03 52.78 18.46 49.69 20.73 48.66 C 22.66 48.54 25.37 49.76 25.41 51.99 C 26.04 55.34 21.03 57.64 18.97 54.80 Z" />
</g>
<g id="#ffffffff">
</g>
</svg>
