<?xml version="1.0" encoding="UTF-8" ?>
<!DOCTYPE svg PUBLIC "-//W3C//DTD SVG 1.1//EN" "http://www.w3.org/Graphics/SVG/1.1/DTD/svg11.dtd">
<svg width="43pt" height="97pt" viewBox="0 0 43 97" version="1.1" xmlns="http://www.w3.org/2000/svg">
<g id="#000000ff">
<path fill="#000000" opacity="1.00" d=" M 0.00 0.00 L 1.68 0.00 C 13.38 7.97 24.49 16.77 36.07 24.91 C 38.64 26.68 41.01 28.75 43.00 31.17 L 43.00 93.71 C 42.73 94.35 42.20 95.64 41.93 96.29 C 38.60 95.76 36.85 92.60 34.41 90.65 C 27.76 85.26 20.94 80.06 14.08 74.94 C 9.76 71.28 4.09 69.66 0.00 65.69 L 0.00 0.00 M 7.40 13.15 C 7.26 28.11 7.45 43.08 7.32 58.04 C 7.35 59.47 7.26 60.93 7.64 62.32 C 17.07 69.10 26.27 76.27 35.82 82.89 C 36.26 67.60 36.21 52.29 36.37 36.98 C 36.33 35.39 36.46 33.76 36.01 32.21 C 30.50 28.70 25.24 24.80 19.70 21.33 C 15.54 18.69 11.85 15.29 7.40 13.15 Z" />
<path fill="#000000" opacity="1.00" d=" M 19.38 45.44 C 22.08 44.23 25.96 45.77 25.96 49.03 C 26.52 52.12 23.22 54.78 20.30 53.70 C 16.53 52.91 15.90 47.08 19.38 45.44 Z" />
</g>
<g id="#ffffffff">
</g>
</svg>
