<?xml version="1.0" encoding="UTF-8" ?>
<!DOCTYPE svg PUBLIC "-//W3C//DTD SVG 1.1//EN" "http://www.w3.org/Graphics/SVG/1.1/DTD/svg11.dtd">
<svg width="43pt" height="98pt" viewBox="0 0 43 98" version="1.1" xmlns="http://www.w3.org/2000/svg">
<g id="#ffffffff">
</g>
<g id="#000000ff">
<path fill="#000000" opacity="1.00" d=" M 11.14 24.11 C 21.89 16.72 31.80 8.22 41.95 0.07 C 42.21 0.92 42.74 2.62 43.00 3.47 L 43.00 66.03 C 40.97 68.01 38.92 69.97 36.65 71.66 C 24.54 80.33 12.65 89.31 0.56 98.00 L 0.00 98.00 L 0.00 31.19 C 3.36 28.30 7.44 26.49 11.14 24.11 M 7.47 34.60 C 7.32 51.08 7.37 67.55 7.44 84.03 C 17.11 77.75 26.40 70.87 36.23 64.83 C 36.39 47.89 36.13 30.94 35.85 14.01 C 26.26 20.68 17.17 28.07 7.47 34.60 Z" />
<path fill="#000000" opacity="1.00" d=" M 20.32 43.25 C 23.22 42.23 26.48 44.89 26.00 47.95 C 25.96 51.71 20.74 53.27 18.28 50.71 C 15.94 48.47 17.10 43.93 20.32 43.25 Z" />
</g>
</svg>
