<?xml version="1.0" encoding="UTF-8" ?>
<!DOCTYPE svg PUBLIC "-//W3C//DTD SVG 1.1//EN" "http://www.w3.org/Graphics/SVG/1.1/DTD/svg11.dtd">
<svg width="100pt" height="100pt" viewBox="0 0 100 100" version="1.1" xmlns="http://www.w3.org/2000/svg">
<g id="#ffffffff">
</g>
<g id="#000000ff">
<path fill="#000000" opacity="1.00" d=" M 44.88 2.86 C 47.17 2.51 49.53 2.39 51.80 2.94 C 51.97 14.62 51.79 26.32 51.86 38.00 C 51.95 41.87 51.49 45.80 52.24 49.63 C 60.57 51.18 68.09 56.59 71.38 64.52 C 76.20 75.65 71.20 89.90 60.43 95.50 C 52.70 99.70 42.81 99.30 35.39 94.63 C 30.55 91.43 26.83 86.55 25.09 81.01 C 22.93 73.39 24.37 64.66 29.60 58.58 C 33.26 53.78 38.82 51.04 44.54 49.56 C 44.99 34.01 44.26 18.41 44.88 2.86 Z" />
</g>
</svg>
