<?xml version="1.0" encoding="UTF-8" ?>
<!DOCTYPE svg PUBLIC "-//W3C//DTD SVG 1.1//EN" "http://www.w3.org/Graphics/SVG/1.1/DTD/svg11.dtd">
<svg width="100pt" height="100pt" viewBox="0 0 100 100" version="1.1" xmlns="http://www.w3.org/2000/svg">
<g id="#ffffffff">
</g>
<g id="#000000ff">
<path fill="#000000" opacity="1.00" d=" M 41.62 3.52 C 52.08 -1.08 65.49 2.64 71.69 12.35 C 78.47 21.93 76.76 36.20 68.01 44.00 C 64.65 47.49 59.90 48.79 55.55 50.53 C 54.90 66.07 55.80 81.67 55.15 97.21 C 52.85 97.50 50.51 97.52 48.22 97.15 C 47.95 86.44 48.22 75.71 48.12 65.00 C 48.00 60.16 48.55 55.26 47.73 50.47 C 44.76 49.36 41.59 48.73 38.83 47.13 C 31.19 42.66 26.30 33.84 26.82 24.98 C 27.12 15.78 33.10 7.03 41.62 3.52 Z" />
</g>
</svg>
