<?xml version="1.0" encoding="UTF-8" ?>
<!DOCTYPE svg PUBLIC "-//W3C//DTD SVG 1.1//EN" "http://www.w3.org/Graphics/SVG/1.1/DTD/svg11.dtd">
<svg width="100pt" height="100pt" viewBox="0 0 100 100" version="1.1" xmlns="http://www.w3.org/2000/svg">
<g id="#ffffffff">
</g>
<g id="#000000ff">
<path fill="#000000" opacity="1.00" d=" M 19.65 9.93 C 21.01 8.23 22.76 6.68 24.91 6.11 C 26.77 7.60 27.98 9.71 29.41 11.58 C 36.23 20.75 43.17 29.83 49.94 39.03 C 50.94 40.34 51.94 41.68 53.19 42.77 C 57.09 41.85 60.89 40.15 64.99 40.49 C 74.37 40.33 83.34 46.41 86.95 55.00 C 89.55 61.01 89.67 68.11 87.16 74.17 C 83.34 83.17 73.77 89.41 63.99 89.24 C 57.27 88.92 50.43 86.18 46.15 80.84 C 40.16 73.93 38.30 63.52 42.10 55.11 C 43.34 52.19 45.74 49.97 47.07 47.11 C 38.33 34.45 28.40 22.60 19.65 9.93 Z" />
</g>
</svg>
