<?xml version="1.0" encoding="UTF-8" ?>
<!DOCTYPE svg PUBLIC "-//W3C//DTD SVG 1.1//EN" "http://www.w3.org/Graphics/SVG/1.1/DTD/svg11.dtd">
<svg width="100pt" height="100pt" viewBox="0 0 100 100" version="1.1" xmlns="http://www.w3.org/2000/svg">
<g id="#ffffffff">
</g>
<g id="#000000ff">
<path fill="#000000" opacity="1.00" d=" M 72.68 8.70 C 73.41 7.79 74.08 6.76 75.11 6.16 C 77.27 6.66 79.01 8.25 80.35 9.95 C 71.59 22.59 61.68 34.46 52.93 47.11 C 53.99 49.54 55.95 51.41 57.21 53.73 C 61.69 62.12 60.29 73.00 54.31 80.29 C 49.61 86.50 41.60 89.48 33.98 89.23 C 22.48 88.45 11.83 78.75 11.13 67.03 C 10.19 57.90 14.86 48.52 22.80 43.88 C 29.97 39.24 39.11 39.96 46.81 42.79 C 48.22 41.51 49.34 39.97 50.48 38.46 C 57.80 28.48 65.38 18.70 72.68 8.70 Z" />
</g>
</svg>
