<?xml version="1.0" encoding="UTF-8" ?>
<!DOCTYPE svg PUBLIC "-//W3C//DTD SVG 1.1//EN" "http://www.w3.org/Graphics/SVG/1.1/DTD/svg11.dtd">
<svg width="100pt" height="100pt" viewBox="0 0 100 100" version="1.1" xmlns="http://www.w3.org/2000/svg">
<g id="#ffffffff">
</g>
<g id="#000000ff">
<path fill="#000000" opacity="1.00" d=" M 41.62 3.52 C 52.08 -1.08 65.50 2.64 71.68 12.35 C 78.49 21.92 76.74 36.20 68.01 44.00 C 64.64 47.49 59.91 48.82 55.53 50.52 C 54.92 66.05 55.79 81.65 55.14 97.20 C 52.84 97.51 50.50 97.53 48.21 97.13 C 47.97 86.09 48.22 75.04 48.13 64.00 C 48.03 59.49 48.53 54.91 47.73 50.44 C 44.76 49.34 41.58 48.75 38.82 47.13 C 31.82 42.98 27.03 35.21 26.81 27.02 C 26.31 17.14 32.44 7.28 41.62 3.52 Z" />
</g>
</svg>
