<?xml version="1.0" encoding="UTF-8" ?>
<!DOCTYPE svg PUBLIC "-//W3C//DTD SVG 1.1//EN" "http://www.w3.org/Graphics/SVG/1.1/DTD/svg11.dtd">
<svg width="100pt" height="100pt" viewBox="0 0 100 100" version="1.1" xmlns="http://www.w3.org/2000/svg">
<g id="#ffffffff">
</g>
<g id="#000000ff">
<path fill="#000000" opacity="1.00" d=" M 18.97 25.06 C 26.14 23.11 34.26 24.19 40.26 28.72 C 45.57 32.45 49.12 38.29 50.37 44.62 C 65.94 44.89 81.55 44.30 97.11 44.90 C 97.42 47.18 97.68 49.56 97.02 51.81 C 82.67 51.90 68.32 51.83 53.97 51.83 C 52.73 51.80 51.51 51.94 50.31 52.23 C 49.01 58.83 45.66 65.18 39.86 68.87 C 28.85 77.12 11.47 73.03 4.87 61.08 C 0.66 53.86 0.62 44.65 4.24 37.19 C 7.45 31.52 12.76 27.07 18.97 25.06 Z" />
</g>
</svg>
