<?xml version="1.0" encoding="UTF-8" ?>
<!DOCTYPE svg PUBLIC "-//W3C//DTD SVG 1.1//EN" "http://www.w3.org/Graphics/SVG/1.1/DTD/svg11.dtd">
<svg width="100pt" height="100pt" viewBox="0 0 100 100" version="1.1" xmlns="http://www.w3.org/2000/svg">
<g id="#ffffffff">
</g>
<g id="#000000ff">
<path fill="#000000" opacity="1.00" d=" M 74.48 6.45 C 76.96 5.75 78.81 8.51 80.48 9.94 C 71.71 21.98 62.60 33.78 53.73 45.75 C 51.88 47.48 54.25 49.30 55.22 50.75 C 63.85 61.52 59.74 79.17 47.93 85.86 C 41.08 89.68 32.25 90.55 25.15 86.87 C 21.45 84.72 17.73 82.27 15.35 78.62 C 9.55 70.71 9.69 59.20 15.14 51.14 C 17.90 46.92 22.13 43.84 26.72 41.88 C 33.28 39.71 40.52 40.24 46.84 42.96 C 56.32 31.00 65.16 18.54 74.48 6.45 Z" />
</g>
</svg>
