<?xml version="1.0" encoding="UTF-8" ?>
<!DOCTYPE svg PUBLIC "-//W3C//DTD SVG 1.1//EN" "http://www.w3.org/Graphics/SVG/1.1/DTD/svg11.dtd">
<svg width="100pt" height="100pt" viewBox="0 0 100 100" version="1.1" xmlns="http://www.w3.org/2000/svg">
<g id="#ffffffff">
</g>
<g id="#000000ff">
<path fill="#000000" opacity="1.00" d=" M 16.66 19.66 C 21.28 14.47 27.95 10.81 35.00 10.74 C 42.06 10.78 49.33 13.57 53.84 19.15 C 59.36 25.46 61.38 34.68 58.75 42.66 C 57.56 46.48 54.92 49.57 52.78 52.87 C 61.83 65.43 71.47 77.56 80.51 90.12 C 78.91 91.70 77.10 93.05 75.11 94.11 C 65.36 82.05 56.65 69.17 46.88 57.12 C 42.09 58.68 37.06 60.21 31.96 59.30 C 23.68 58.37 16.23 52.56 13.03 44.91 C 9.43 36.71 10.72 26.45 16.66 19.66 Z" />
</g>
</svg>
