<?xml version="1.0" encoding="UTF-8" ?>
<!DOCTYPE svg PUBLIC "-//W3C//DTD SVG 1.1//EN" "http://www.w3.org/Graphics/SVG/1.1/DTD/svg11.dtd">
<svg width="100pt" height="100pt" viewBox="0 0 100 100" version="1.1" xmlns="http://www.w3.org/2000/svg">
<g id="#ffffffff">
</g>
<g id="#000000ff">
<path fill="#000000" opacity="1.00" d=" M 53.35 13.44 C 58.90 10.79 65.48 9.83 71.41 11.79 C 78.52 14.11 84.81 19.49 87.45 26.58 C 89.77 32.91 89.46 40.23 86.36 46.25 C 82.45 54.20 73.88 59.60 65.00 59.55 C 60.90 59.81 57.11 58.09 53.18 57.28 C 51.76 58.51 50.64 60.04 49.50 61.53 C 43.15 70.16 36.67 78.69 30.25 87.27 C 28.52 89.53 26.98 91.97 24.88 93.92 C 22.76 93.26 21.03 91.76 19.62 90.09 C 28.37 77.42 38.35 65.58 47.05 52.89 C 45.09 49.21 42.01 46.09 41.03 41.92 C 37.78 31.10 43.26 18.49 53.35 13.44 Z" />
</g>
</svg>
