<?xml version="1.0" encoding="UTF-8" ?>
<!DOCTYPE svg PUBLIC "-//W3C//DTD SVG 1.1//EN" "http://www.w3.org/Graphics/SVG/1.1/DTD/svg11.dtd">
<svg width="100pt" height="100pt" viewBox="0 0 100 100" version="1.1" xmlns="http://www.w3.org/2000/svg">
<g id="#ffffffff">
</g>
<g id="#000000ff">
<path fill="#000000" opacity="1.00" d=" M 17.13 19.12 C 21.79 14.29 28.17 10.76 35.01 10.74 C 42.29 10.84 49.84 13.75 54.30 19.71 C 60.33 26.96 61.72 37.90 57.21 46.26 C 55.98 48.60 53.97 50.45 52.92 52.89 C 61.79 65.53 71.51 77.60 80.56 90.13 C 78.83 91.77 76.94 93.33 74.59 93.96 C 73.22 91.84 71.77 89.79 70.21 87.82 C 62.30 77.66 54.89 67.12 46.88 57.04 C 42.76 58.55 38.45 59.87 34.01 59.45 C 25.20 59.31 16.92 53.55 13.35 45.56 C 9.24 37.05 10.67 26.09 17.13 19.12 Z" />
</g>
</svg>
