<?xml version="1.0" encoding="UTF-8" ?>
<!DOCTYPE svg PUBLIC "-//W3C//DTD SVG 1.1//EN" "http://www.w3.org/Graphics/SVG/1.1/DTD/svg11.dtd">
<svg width="100pt" height="100pt" viewBox="0 0 100 100" version="1.1" xmlns="http://www.w3.org/2000/svg">
<g id="#ffffffff">
</g>
<g id="#000000ff">
<path fill="#000000" opacity="1.00" d=" M 19.63 9.91 C 21.02 8.21 22.83 6.80 24.90 6.04 C 26.50 7.48 27.68 9.30 28.99 11.00 C 35.63 20.01 42.46 28.87 49.07 37.91 C 50.35 39.58 51.58 41.33 53.18 42.71 C 58.04 41.55 62.95 39.66 68.04 40.69 C 77.08 41.75 85.10 48.53 87.79 57.21 C 89.53 62.69 89.37 68.83 87.17 74.16 C 83.48 82.87 74.43 88.97 65.00 89.25 C 57.68 89.28 50.21 86.17 45.70 80.29 C 40.03 73.42 38.36 63.28 42.13 55.12 C 43.41 52.24 45.65 49.93 47.04 47.11 C 38.37 34.40 28.35 22.59 19.63 9.91 Z" />
</g>
</svg>
