<?xml version="1.0" encoding="UTF-8" ?>
<!DOCTYPE svg PUBLIC "-//W3C//DTD SVG 1.1//EN" "http://www.w3.org/Graphics/SVG/1.1/DTD/svg11.dtd">
<svg width="100pt" height="100pt" viewBox="0 0 100 100" version="1.1" xmlns="http://www.w3.org/2000/svg">
<g id="#ffffffff">
</g>
<g id="#000000ff">
<path fill="#000000" opacity="1.00" d=" M 51.44 14.51 C 59.18 9.80 69.75 9.25 77.33 14.61 C 84.12 18.59 88.71 26.05 88.91 33.96 C 89.95 46.43 79.62 58.78 67.00 59.36 C 62.23 59.99 57.57 58.71 53.15 57.05 C 46.97 64.64 41.36 72.67 35.41 80.43 C 32.19 84.97 28.47 89.15 25.48 93.86 C 22.98 93.58 21.20 91.76 19.50 90.10 C 28.60 77.56 38.12 65.34 47.29 52.86 C 44.38 48.82 41.20 44.73 40.48 39.64 C 38.76 30.08 43.20 19.71 51.44 14.51 Z" />
</g>
</svg>
