<?xml version="1.0" encoding="UTF-8" ?>
<!DOCTYPE svg PUBLIC "-//W3C//DTD SVG 1.1//EN" "http://www.w3.org/Graphics/SVG/1.1/DTD/svg11.dtd">
<svg width="100pt" height="100pt" viewBox="0 0 100 100" version="1.1" xmlns="http://www.w3.org/2000/svg">
<g id="#ffffffff">
</g>
<g id="#000000ff">
<path fill="#000000" opacity="1.00" d=" M 54.46 36.47 C 59.78 29.36 69.15 25.58 77.91 27.11 C 87.66 28.54 96.07 36.50 97.91 46.20 C 99.55 53.85 97.39 62.28 92.00 68.00 C 86.79 73.68 78.79 76.64 71.13 75.70 C 62.78 74.77 54.91 69.24 51.74 61.37 C 50.99 59.42 50.19 57.49 49.42 55.54 C 33.86 54.94 18.25 55.74 2.68 55.19 C 2.53 52.87 2.53 50.54 2.69 48.22 C 18.26 47.73 33.88 48.63 49.44 47.81 C 50.80 43.92 51.86 39.78 54.46 36.47 Z" />
</g>
</svg>
