<?xml version="1.0" encoding="UTF-8" ?>
<!DOCTYPE svg PUBLIC "-//W3C//DTD SVG 1.1//EN" "http://www.w3.org/Graphics/SVG/1.1/DTD/svg11.dtd">
<svg width="100pt" height="100pt" viewBox="0 0 100 100" version="1.1" xmlns="http://www.w3.org/2000/svg">
<g id="#ffffffff">
<path fill="#ffffff" opacity="1.00" d=" M 0.00 0.00 L 100.00 0.00 L 100.00 100.00 L 0.00 100.00 L 0.00 55.00 C 9.33 54.99 18.66 54.99 27.99 55.01 C 28.00 65.00 28.00 75.00 28.01 85.00 C 51.67 85.00 75.34 85.00 99.00 85.00 C 99.00 61.67 99.00 38.33 99.00 15.00 C 75.33 15.00 51.67 15.00 28.00 15.00 C 28.01 24.66 28.00 34.33 27.99 44.00 C 18.66 44.00 9.33 44.01 0.00 44.00 L 0.00 0.00 Z" />
<path fill="#ffffff" opacity="1.00" d=" M 39.00 24.00 C 46.33 24.00 53.66 24.00 61.00 24.00 C 61.00 31.33 61.00 38.67 61.00 46.00 C 53.67 46.00 46.33 46.00 39.00 46.00 C 39.00 38.67 39.00 31.33 39.00 24.00 Z" />
<path fill="#ffffff" opacity="1.00" d=" M 69.00 24.00 C 76.33 24.00 83.67 24.00 91.00 24.00 C 91.00 41.33 91.00 58.67 91.00 76.00 C 83.66 76.00 76.33 76.00 69.00 76.00 C 69.00 58.67 69.00 41.33 69.00 24.00 Z" />
<path fill="#ffffff" opacity="1.00" d=" M 39.00 54.00 C 46.33 54.00 53.66 54.00 61.00 54.00 C 61.00 61.33 61.00 68.66 61.00 76.00 C 53.67 76.00 46.33 76.00 39.00 76.00 C 39.00 68.67 39.00 61.33 39.00 54.00 Z" />
</g>
<g id="#000000ff">
<path fill="#000000" opacity="1.00" d=" M 28.00 15.00 C 51.67 15.00 75.33 15.00 99.00 15.00 C 99.00 38.33 99.00 61.67 99.00 85.00 C 75.34 85.00 51.67 85.00 28.01 85.00 C 28.00 75.00 28.00 65.00 27.99 55.01 C 18.66 54.99 9.33 54.99 0.00 55.00 L 0.00 44.00 C 9.33 44.01 18.66 44.00 27.99 44.00 C 28.00 34.33 28.01 24.66 28.00 15.00 M 39.00 24.00 C 39.00 31.33 39.00 38.67 39.00 46.00 C 46.33 46.00 53.67 46.00 61.00 46.00 C 61.00 38.67 61.00 31.33 61.00 24.00 C 53.66 24.00 46.33 24.00 39.00 24.00 M 69.00 24.00 C 69.00 41.33 69.00 58.67 69.00 76.00 C 76.33 76.00 83.66 76.00 91.00 76.00 C 91.00 58.67 91.00 41.33 91.00 24.00 C 83.67 24.00 76.33 24.00 69.00 24.00 M 39.00 54.00 C 39.00 61.33 39.00 68.67 39.00 76.00 C 46.33 76.00 53.67 76.00 61.00 76.00 C 61.00 68.66 61.00 61.33 61.00 54.00 C 53.66 54.00 46.33 54.00 39.00 54.00 Z" />
</g>
</svg>
