<?xml version="1.0" encoding="UTF-8" ?>
<!DOCTYPE svg PUBLIC "-//W3C//DTD SVG 1.1//EN" "http://www.w3.org/Graphics/SVG/1.1/DTD/svg11.dtd">
<svg width="100pt" height="100pt" viewBox="0 0 100 100" version="1.1" xmlns="http://www.w3.org/2000/svg">
<g id="#ffffffff">
<path fill="#ffffff" opacity="1.00" d=" M 0.00 0.00 L 100.00 0.00 L 100.00 100.00 L 0.00 100.00 L 0.00 0.00 M 93.20 1.99 C 85.90 9.55 78.37 16.87 70.96 24.33 C 72.15 25.50 73.34 26.66 74.54 27.83 C 80.50 21.88 86.46 15.93 92.41 9.97 C 92.42 15.93 92.39 21.88 92.43 27.83 L 91.12 26.69 C 84.69 33.12 78.27 39.54 71.85 45.97 C 73.02 47.16 74.19 48.34 75.37 49.53 C 81.05 43.85 86.72 38.16 92.40 32.48 C 92.44 37.80 92.35 43.13 92.47 48.45 C 89.81 49.66 88.02 52.01 85.98 53.98 C 81.31 58.64 76.65 63.30 71.97 67.96 C 73.15 69.15 74.34 70.34 75.52 71.53 C 81.16 65.91 86.78 60.27 92.41 54.63 C 92.42 60.02 92.40 65.40 92.42 70.78 L 90.80 69.20 C 84.59 75.41 78.38 81.63 72.17 87.84 C 73.34 89.02 74.51 90.20 75.68 91.38 C 81.26 85.81 86.83 80.23 92.41 74.66 C 92.42 82.24 92.40 89.82 92.42 97.40 C 94.08 97.40 95.74 97.40 97.41 97.40 C 97.42 65.78 97.40 34.16 97.42 2.54 C 96.01 2.38 94.60 2.21 93.20 1.99 Z" />
</g>
<g id="#000000ff">
<path fill="#000000" opacity="1.00" d=" M 93.20 1.99 C 94.60 2.21 96.01 2.38 97.42 2.54 C 97.40 34.16 97.42 65.78 97.41 97.40 C 95.74 97.40 94.08 97.40 92.42 97.40 C 92.40 89.82 92.42 82.24 92.41 74.66 C 86.83 80.23 81.26 85.81 75.68 91.38 C 74.51 90.20 73.34 89.02 72.17 87.84 C 78.38 81.63 84.59 75.41 90.80 69.20 L 92.42 70.78 C 92.40 65.40 92.42 60.02 92.41 54.63 C 86.78 60.27 81.16 65.91 75.52 71.53 C 74.34 70.34 73.15 69.15 71.97 67.96 C 76.65 63.30 81.31 58.64 85.98 53.98 C 88.02 52.01 89.81 49.66 92.47 48.45 C 92.35 43.13 92.44 37.80 92.40 32.48 C 86.72 38.16 81.05 43.85 75.37 49.53 C 74.19 48.34 73.02 47.16 71.85 45.97 C 78.27 39.54 84.69 33.12 91.12 26.69 L 92.43 27.83 C 92.39 21.88 92.42 15.93 92.41 9.97 C 86.46 15.93 80.50 21.88 74.54 27.83 C 73.34 26.66 72.15 25.50 70.96 24.33 C 78.37 16.87 85.90 9.55 93.20 1.99 Z" />
</g>
</svg>
