<?xml version="1.0" encoding="UTF-8" ?>
<!DOCTYPE svg PUBLIC "-//W3C//DTD SVG 1.1//EN" "http://www.w3.org/Graphics/SVG/1.1/DTD/svg11.dtd">
<svg width="100pt" height="100pt" viewBox="0 0 100 100" version="1.1" xmlns="http://www.w3.org/2000/svg">
<g id="#ffffffff">
<path fill="#ffffff" opacity="1.00" d=" M 0.00 0.00 L 100.00 0.00 L 100.00 100.00 L 0.00 100.00 L 0.00 0.00 M 2.58 2.49 C 2.59 34.13 2.58 65.76 2.59 97.40 C 4.25 97.40 5.92 97.40 7.58 97.40 C 7.60 83.15 7.58 68.89 7.59 54.63 C 13.21 60.27 18.84 65.89 24.46 71.53 C 25.65 70.34 26.84 69.15 28.03 67.96 C 23.18 63.14 18.36 58.30 13.51 53.48 C 11.66 51.66 10.01 49.50 7.53 48.49 C 7.65 43.16 7.56 37.82 7.59 32.48 C 13.28 38.16 18.95 43.84 24.62 49.53 C 25.80 48.34 26.97 47.15 28.15 45.97 C 21.73 39.54 15.31 33.11 8.87 26.69 L 7.57 27.84 C 7.61 21.88 7.58 15.93 7.59 9.97 C 13.54 15.93 19.51 21.88 25.47 27.83 C 26.65 26.66 27.84 25.49 29.04 24.33 C 21.63 16.85 14.04 9.54 6.77 1.93 C 5.39 2.25 3.99 2.43 2.58 2.49 Z" />
</g>
<g id="#000000ff">
<path fill="#000000" opacity="1.00" d=" M 2.58 2.49 C 3.99 2.43 5.39 2.25 6.77 1.93 C 14.04 9.54 21.63 16.85 29.04 24.33 C 27.84 25.49 26.65 26.66 25.47 27.83 C 19.51 21.88 13.54 15.93 7.59 9.97 C 7.58 15.93 7.61 21.88 7.57 27.84 L 8.87 26.69 C 15.31 33.11 21.73 39.54 28.15 45.97 C 26.97 47.15 25.80 48.34 24.62 49.53 C 18.95 43.84 13.28 38.16 7.59 32.48 C 7.56 37.82 7.65 43.16 7.53 48.49 C 10.01 49.50 11.66 51.66 13.51 53.48 C 18.36 58.30 23.18 63.14 28.03 67.96 C 26.84 69.15 25.65 70.34 24.46 71.53 C 18.84 65.89 13.21 60.27 7.59 54.63 C 7.58 68.89 7.60 83.15 7.58 97.40 C 5.92 97.40 4.25 97.40 2.59 97.40 C 2.58 65.76 2.59 34.13 2.58 2.49 Z" />
</g>
</svg>
