<?xml version="1.0" encoding="UTF-8" ?>
<!DOCTYPE svg PUBLIC "-//W3C//DTD SVG 1.1//EN" "http://www.w3.org/Graphics/SVG/1.1/DTD/svg11.dtd">
<svg width="100pt" height="100pt" viewBox="0 0 100 100" version="1.1" xmlns="http://www.w3.org/2000/svg">
<g id="#ffffffff">
<path fill="#ffffff" opacity="1.00" d=" M 0.00 0.00 L 100.00 0.00 L 100.00 100.00 L 0.00 100.00 L 0.00 0.00 M 86.70 10.69 C 85.76 11.10 84.82 11.50 83.88 11.89 C 83.56 15.25 83.20 18.61 82.55 21.93 C 82.09 30.67 82.68 39.43 82.20 48.16 C 81.54 55.27 76.61 61.47 69.89 63.82 C 62.79 65.95 55.33 66.76 47.94 66.14 C 43.57 65.21 38.94 65.44 34.82 63.36 C 29.41 59.98 24.01 55.72 22.13 49.33 C 19.78 40.26 20.92 30.43 17.17 21.71 C 12.63 21.38 6.58 20.06 3.72 24.71 C 3.22 37.89 3.61 51.12 3.59 64.30 C 7.25 68.66 8.93 75.31 15.10 76.87 C 19.18 78.85 23.75 78.61 28.16 78.79 C 37.75 80.02 47.53 79.16 57.19 79.80 C 67.06 81.22 77.91 81.44 86.74 76.10 C 90.91 73.60 92.31 68.74 94.89 64.91 C 96.28 62.89 97.21 60.52 97.08 58.04 C 97.09 44.34 97.08 30.64 97.09 16.94 C 96.94 15.41 97.40 13.20 95.67 12.37 C 92.94 10.93 89.73 10.74 86.70 10.69 Z" />
</g>
<g id="#000000ff">
<path fill="#000000" opacity="1.00" d=" M 86.70 10.69 C 89.73 10.74 92.94 10.93 95.67 12.37 C 97.40 13.20 96.94 15.41 97.09 16.94 C 97.08 30.64 97.09 44.34 97.08 58.04 C 97.21 60.52 96.28 62.89 94.89 64.91 C 92.31 68.74 90.91 73.60 86.74 76.10 C 77.91 81.44 67.06 81.22 57.19 79.80 C 47.53 79.16 37.75 80.02 28.16 78.79 C 23.75 78.61 19.18 78.85 15.10 76.87 C 8.93 75.31 7.25 68.66 3.59 64.30 C 3.61 51.12 3.22 37.89 3.72 24.71 C 6.58 20.06 12.63 21.38 17.17 21.71 C 20.92 30.43 19.78 40.26 22.13 49.33 C 24.01 55.72 29.41 59.98 34.82 63.36 C 38.94 65.44 43.57 65.21 47.94 66.14 C 55.33 66.76 62.79 65.95 69.89 63.82 C 76.61 61.47 81.54 55.27 82.20 48.16 C 82.68 39.43 82.09 30.67 82.55 21.93 C 83.20 18.61 83.56 15.25 83.88 11.89 C 84.82 11.50 85.76 11.10 86.70 10.69 Z" />
</g>
</svg>
