<?xml version="1.0" encoding="UTF-8" ?>
<!DOCTYPE svg PUBLIC "-//W3C//DTD SVG 1.1//EN" "http://www.w3.org/Graphics/SVG/1.1/DTD/svg11.dtd">
<svg width="100pt" height="100pt" viewBox="0 0 100 100" version="1.1" xmlns="http://www.w3.org/2000/svg">
<g id="#ffffffff">
<path fill="#ffffff" opacity="1.00" d=" M 0.00 0.00 L 100.00 0.00 L 100.00 100.00 L 0.00 100.00 L 0.00 0.00 M 33.61 14.58 C 32.45 15.39 30.52 16.16 30.77 17.89 C 30.75 39.14 30.77 60.40 30.76 81.65 C 37.64 85.80 43.98 90.84 50.50 95.54 C 56.29 91.40 61.72 86.78 67.39 82.49 C 68.43 81.63 69.89 81.93 71.13 81.72 C 71.29 80.66 71.45 79.60 71.61 78.54 C 70.97 76.08 71.29 73.51 71.23 70.99 C 71.24 52.95 71.24 34.91 71.23 16.86 C 69.54 16.80 67.66 17.04 66.32 15.75 C 61.28 11.93 56.21 8.14 51.23 4.25 C 45.17 7.37 39.53 11.22 33.61 14.58 Z" />
<path fill="#ffffff" opacity="1.00" d=" M 35.82 19.13 C 40.79 16.16 45.73 13.13 50.71 10.19 C 55.86 14.11 61.02 18.04 66.19 21.94 C 66.27 40.31 66.26 58.68 66.19 77.05 C 61.00 81.14 55.79 85.20 50.62 89.30 C 45.66 85.87 40.82 82.26 35.87 78.83 C 35.67 58.94 35.76 39.03 35.82 19.13 M 48.45 47.66 C 45.71 49.18 45.22 53.45 47.50 55.56 C 49.99 58.23 55.38 56.85 55.81 53.06 C 57.03 48.92 52.02 45.53 48.45 47.66 Z" />
</g>
<g id="#000000ff">
<path fill="#000000" opacity="1.00" d=" M 33.61 14.58 C 39.53 11.22 45.17 7.37 51.23 4.25 C 56.21 8.14 61.28 11.93 66.32 15.75 C 67.66 17.04 69.54 16.80 71.23 16.86 C 71.24 34.91 71.24 52.95 71.23 70.99 C 71.29 73.51 70.97 76.08 71.61 78.54 C 71.45 79.60 71.29 80.66 71.13 81.72 C 69.89 81.93 68.43 81.63 67.39 82.49 C 61.72 86.78 56.29 91.40 50.50 95.54 C 43.98 90.84 37.64 85.80 30.76 81.65 C 30.77 60.40 30.75 39.14 30.77 17.89 C 30.52 16.16 32.45 15.39 33.61 14.58 M 35.82 19.13 C 35.76 39.03 35.67 58.94 35.87 78.83 C 40.82 82.26 45.66 85.87 50.62 89.30 C 55.79 85.20 61.00 81.14 66.19 77.05 C 66.26 58.68 66.27 40.31 66.19 21.94 C 61.02 18.04 55.86 14.11 50.71 10.19 C 45.73 13.13 40.79 16.16 35.82 19.13 Z" />
<path fill="#000000" opacity="1.00" d=" M 48.45 47.66 C 52.02 45.53 57.03 48.92 55.81 53.06 C 55.38 56.85 49.99 58.23 47.50 55.56 C 45.22 53.45 45.71 49.18 48.45 47.66 Z" />
</g>
</svg>
