<?xml version="1.0" encoding="UTF-8" ?>
<!DOCTYPE svg PUBLIC "-//W3C//DTD SVG 1.1//EN" "http://www.w3.org/Graphics/SVG/1.1/DTD/svg11.dtd">
<svg width="100pt" height="68pt" viewBox="0 0 100 68" version="1.1" xmlns="http://www.w3.org/2000/svg">
<g id="#000000ff">
<path fill="#000000" opacity="1.00" d=" M 0.00 0.00 L 70.69 0.00 C 70.61 9.81 70.86 19.63 70.55 29.45 C 80.36 29.15 90.18 29.39 100.00 29.31 L 100.00 38.69 C 90.18 38.57 80.36 38.88 70.54 38.54 C 70.87 48.36 70.60 58.18 70.69 68.00 L 0.00 68.00 L 0.00 0.00 M 6.39 8.13 C 6.29 25.07 6.38 42.02 6.35 58.97 C 6.09 60.24 7.14 61.59 8.44 61.61 C 26.13 61.22 43.84 61.45 61.54 61.53 C 61.34 59.69 61.25 57.84 61.29 56.00 C 61.48 39.49 61.02 22.97 61.53 6.47 C 44.37 6.95 27.18 6.58 10.00 6.66 C 8.82 6.80 6.17 6.09 6.39 8.13 Z" />
</g>
<g id="#ffffffff">
<path fill="#ffffff" opacity="1.00" d=" M 70.69 0.00 L 100.00 0.00 L 100.00 29.31 C 90.18 29.39 80.36 29.15 70.55 29.45 C 70.86 19.63 70.61 9.81 70.69 0.00 Z" />
<path fill="#ffffff" opacity="1.00" d=" M 6.39 8.13 C 6.17 6.09 8.82 6.80 10.00 6.66 C 27.18 6.58 44.37 6.95 61.53 6.47 C 61.02 22.97 61.48 39.49 61.29 56.00 C 61.25 57.84 61.34 59.69 61.54 61.53 C 43.84 61.45 26.13 61.22 8.44 61.61 C 7.14 61.59 6.09 60.24 6.35 58.97 C 6.38 42.02 6.29 25.07 6.39 8.13 Z" />
<path fill="#ffffff" opacity="1.00" d=" M 70.54 38.54 C 80.36 38.88 90.18 38.57 100.00 38.69 L 100.00 68.00 L 70.69 68.00 C 70.60 58.18 70.87 48.36 70.54 38.54 Z" />
</g>
</svg>
