<?xml version="1.0" encoding="UTF-8" ?>
<!DOCTYPE svg PUBLIC "-//W3C//DTD SVG 1.1//EN" "http://www.w3.org/Graphics/SVG/1.1/DTD/svg11.dtd">
<svg width="100pt" height="100pt" viewBox="0 0 100 100" version="1.1" xmlns="http://www.w3.org/2000/svg">
<g id="#ffffffff">
<path fill="#ffffff" opacity="1.00" d=" M 0.00 0.00 L 100.00 0.00 L 100.00 100.00 L 0.00 100.00 L 0.00 0.00 M 24.29 5.93 C 22.66 7.29 20.95 8.56 19.27 9.85 C 28.80 22.15 37.84 34.83 47.46 47.07 C 43.20 52.07 39.74 58.23 40.12 65.01 C 40.05 71.98 43.47 78.48 48.38 83.26 C 51.12 85.09 53.72 87.40 57.11 87.91 C 64.52 91.01 72.94 88.60 79.30 84.27 C 85.46 79.47 89.47 71.84 88.96 63.93 C 88.82 56.28 84.72 49.17 78.61 44.68 C 73.87 41.53 68.14 40.18 62.48 40.44 C 59.18 40.70 56.14 42.10 53.01 43.05 C 44.63 32.02 36.42 20.87 28.02 9.86 C 26.89 8.44 26.17 6.52 24.29 5.93 Z" />
</g>
<g id="#000000ff">
<path fill="#000000" opacity="1.00" d=" M 24.29 5.93 C 26.17 6.52 26.89 8.44 28.02 9.86 C 36.42 20.87 44.63 32.02 53.01 43.05 C 56.14 42.10 59.18 40.70 62.48 40.44 C 68.14 40.18 73.87 41.53 78.61 44.68 C 84.72 49.17 88.82 56.28 88.96 63.93 C 89.47 71.84 85.46 79.47 79.30 84.27 C 72.94 88.60 64.52 91.01 57.11 87.91 C 53.72 87.40 51.12 85.09 48.38 83.26 C 43.47 78.48 40.05 71.98 40.12 65.01 C 39.74 58.23 43.20 52.07 47.46 47.07 C 37.84 34.83 28.80 22.15 19.27 9.85 C 20.95 8.56 22.66 7.29 24.29 5.93 Z" />
</g>
</svg>
