<?xml version="1.0" encoding="UTF-8" ?>
<!DOCTYPE svg PUBLIC "-//W3C//DTD SVG 1.1//EN" "http://www.w3.org/Graphics/SVG/1.1/DTD/svg11.dtd">
<svg width="100pt" height="100pt" viewBox="0 0 100 100" version="1.1" xmlns="http://www.w3.org/2000/svg">
<g id="#ffffffff">
<path fill="#ffffff" opacity="1.00" d=" M 0.00 0.00 L 100.00 0.00 L 100.00 45.00 C 90.67 45.01 81.34 45.01 72.01 44.99 C 72.00 34.99 72.00 25.00 71.99 15.00 C 48.33 15.00 24.66 15.00 1.00 15.00 C 1.00 38.33 1.00 61.67 1.00 85.00 C 24.67 85.00 48.33 85.00 72.00 85.00 C 71.99 75.33 72.00 65.67 72.01 56.00 C 81.34 55.99 90.67 55.99 100.00 56.00 L 100.00 100.00 L 0.00 100.00 L 0.00 0.00 Z" />
<path fill="#ffffff" opacity="1.00" d=" M 9.00 24.00 C 16.33 24.00 23.67 24.00 31.00 24.00 C 31.00 41.33 31.00 58.67 31.00 76.00 C 23.67 76.00 16.33 76.00 9.00 76.00 C 9.00 58.67 9.00 41.33 9.00 24.00 Z" />
<path fill="#ffffff" opacity="1.00" d=" M 39.00 24.00 C 46.33 24.00 53.67 24.00 61.00 24.00 C 61.00 31.33 61.00 38.67 61.00 46.00 C 53.67 46.00 46.33 46.00 39.00 46.00 C 39.00 38.67 39.00 31.33 39.00 24.00 Z" />
<path fill="#ffffff" opacity="1.00" d=" M 39.00 54.00 C 46.33 54.00 53.67 54.00 61.00 54.00 C 61.00 61.33 61.00 68.67 61.00 76.00 C 53.67 76.00 46.33 76.00 39.00 76.00 C 39.00 68.67 39.00 61.33 39.00 54.00 Z" />
</g>
<g id="#000000ff">
<path fill="#000000" opacity="1.00" d=" M 1.00 15.00 C 24.66 15.00 48.33 15.00 71.99 15.00 C 72.00 25.00 72.00 34.99 72.01 44.99 C 81.34 45.01 90.67 45.01 100.00 45.00 L 100.00 56.00 C 90.67 55.99 81.34 55.99 72.01 56.00 C 72.00 65.67 71.99 75.33 72.00 85.00 C 48.33 85.00 24.67 85.00 1.00 85.00 C 1.00 61.67 1.00 38.33 1.00 15.00 M 9.00 24.00 C 9.00 41.33 9.00 58.67 9.00 76.00 C 16.33 76.00 23.67 76.00 31.00 76.00 C 31.00 58.67 31.00 41.33 31.00 24.00 C 23.67 24.00 16.33 24.00 9.00 24.00 M 39.00 24.00 C 39.00 31.33 39.00 38.67 39.00 46.00 C 46.33 46.00 53.67 46.00 61.00 46.00 C 61.00 38.67 61.00 31.33 61.00 24.00 C 53.67 24.00 46.33 24.00 39.00 24.00 M 39.00 54.00 C 39.00 61.33 39.00 68.67 39.00 76.00 C 46.33 76.00 53.67 76.00 61.00 76.00 C 61.00 68.67 61.00 61.33 61.00 54.00 C 53.67 54.00 46.33 54.00 39.00 54.00 Z" />
</g>
</svg>
