<?xml version="1.0" encoding="UTF-8" ?>
<!DOCTYPE svg PUBLIC "-//W3C//DTD SVG 1.1//EN" "http://www.w3.org/Graphics/SVG/1.1/DTD/svg11.dtd">
<svg width="100pt" height="100pt" viewBox="0 0 100 100" version="1.1" xmlns="http://www.w3.org/2000/svg">
<g id="#ffffffff">
<path fill="#ffffff" opacity="1.00" d=" M 0.00 0.00 L 100.00 0.00 L 100.00 100.00 L 0.00 100.00 L 0.00 0.00 M 8.82 6.60 C 8.82 35.07 8.82 63.53 8.82 92.00 C 10.49 92.00 12.16 92.00 13.83 92.00 C 13.83 90.53 13.82 89.07 13.82 87.61 C 19.63 87.59 25.43 87.62 31.24 87.59 C 31.24 85.92 31.23 84.26 31.23 82.60 C 25.43 82.59 19.62 82.62 13.81 82.58 C 13.83 79.52 13.83 76.47 13.82 73.41 C 19.76 73.39 25.70 73.40 31.64 73.40 C 31.64 71.73 31.64 70.07 31.65 68.40 C 25.71 68.40 19.77 68.40 13.82 68.40 C 13.82 62.87 13.82 57.33 13.83 51.80 C 19.96 51.80 26.10 51.80 32.23 51.80 C 32.23 50.13 32.23 48.47 32.24 46.80 C 26.10 46.80 19.97 46.80 13.83 46.80 C 13.82 41.53 13.82 36.27 13.82 31.00 C 19.82 31.00 25.82 31.00 31.82 31.00 C 31.82 29.33 31.82 27.67 31.83 26.00 C 25.82 26.00 19.82 26.01 13.82 26.00 C 13.82 22.93 13.82 19.87 13.83 16.80 C 19.69 16.80 25.55 16.80 31.41 16.80 C 31.41 15.14 31.41 13.47 31.41 11.80 C 25.55 11.80 19.69 11.80 13.83 11.80 C 13.83 10.07 13.82 8.33 13.82 6.60 C 12.15 6.60 10.49 6.60 8.82 6.60 Z" />
</g>
<g id="#000000ff">
<path fill="#000000" opacity="1.00" d=" M 8.82 6.60 C 10.49 6.60 12.15 6.60 13.82 6.60 C 13.82 8.33 13.83 10.07 13.83 11.80 C 19.69 11.80 25.55 11.80 31.41 11.80 C 31.41 13.47 31.41 15.14 31.41 16.80 C 25.55 16.80 19.69 16.80 13.83 16.80 C 13.82 19.87 13.82 22.93 13.82 26.00 C 19.82 26.01 25.82 26.00 31.83 26.00 C 31.82 27.67 31.82 29.33 31.82 31.00 C 25.82 31.00 19.82 31.00 13.82 31.00 C 13.82 36.27 13.82 41.53 13.83 46.80 C 19.97 46.80 26.10 46.80 32.24 46.80 C 32.23 48.47 32.23 50.13 32.23 51.80 C 26.10 51.80 19.96 51.80 13.83 51.80 C 13.82 57.33 13.82 62.87 13.82 68.40 C 19.77 68.40 25.71 68.40 31.65 68.40 C 31.64 70.07 31.64 71.73 31.64 73.40 C 25.70 73.40 19.76 73.39 13.82 73.41 C 13.83 76.47 13.83 79.52 13.81 82.58 C 19.62 82.62 25.43 82.59 31.23 82.60 C 31.23 84.26 31.24 85.92 31.24 87.59 C 25.43 87.62 19.63 87.59 13.82 87.61 C 13.82 89.07 13.83 90.53 13.83 92.00 C 12.16 92.00 10.49 92.00 8.82 92.00 C 8.82 63.53 8.82 35.07 8.82 6.60 Z" />
</g>
</svg>
