<?xml version="1.0" encoding="UTF-8" ?>
<!DOCTYPE svg PUBLIC "-//W3C//DTD SVG 1.1//EN" "http://www.w3.org/Graphics/SVG/1.1/DTD/svg11.dtd">
<svg width="100pt" height="100pt" viewBox="0 0 100 100" version="1.1" xmlns="http://www.w3.org/2000/svg">
<g id="#ffffffff">
<path fill="#ffffff" opacity="1.00" d=" M 0.00 0.00 L 100.00 0.00 L 100.00 100.00 L 0.00 100.00 L 0.00 0.00 M 93.21 1.99 C 85.90 9.54 78.37 16.88 70.96 24.33 C 72.16 25.49 73.36 26.65 74.54 27.83 C 80.49 21.88 86.46 15.93 92.41 9.97 C 92.42 39.11 92.41 68.26 92.42 97.40 C 94.08 97.40 95.74 97.40 97.41 97.40 C 97.42 65.78 97.40 34.16 97.42 2.54 C 96.02 2.35 94.61 2.17 93.21 1.99 Z" />
</g>
<g id="#000000ff">
<path fill="#000000" opacity="1.00" d=" M 93.21 1.99 C 94.61 2.17 96.02 2.35 97.42 2.54 C 97.40 34.16 97.42 65.78 97.41 97.40 C 95.74 97.40 94.08 97.40 92.42 97.40 C 92.41 68.26 92.42 39.11 92.41 9.97 C 86.46 15.93 80.49 21.88 74.54 27.83 C 73.36 26.65 72.16 25.49 70.96 24.33 C 78.37 16.88 85.90 9.54 93.21 1.99 Z" />
</g>
</svg>
