<?xml version="1.0" encoding="UTF-8" ?>
<!DOCTYPE svg PUBLIC "-//W3C//DTD SVG 1.1//EN" "http://www.w3.org/Graphics/SVG/1.1/DTD/svg11.dtd">
<svg width="100pt" height="20pt" viewBox="0 0 100 20" version="1.1" xmlns="http://www.w3.org/2000/svg">
<g id="#ffffffff">
<path fill="#ffffff" opacity="1.00" d=" M 0.00 0.00 L 100.00 0.00 L 100.00 20.00 L 76.27 20.00 C 76.73 19.83 77.66 19.49 78.13 19.32 C 80.98 16.14 85.27 14.89 88.91 12.86 C 93.12 11.27 95.98 7.66 99.61 5.18 C 100.54 2.17 98.18 -0.96 95.01 0.70 C 88.67 5.72 82.40 11.33 74.46 13.66 C 63.82 17.96 52.22 16.93 41.01 16.91 C 32.83 15.82 24.26 15.23 16.97 10.98 C 13.22 8.44 9.64 5.64 6.49 2.38 C 4.88 0.52 2.14 1.47 0.00 1.25 L 0.00 0.00 Z" />
<path fill="#ffffff" opacity="1.00" d=" M 0.00 5.12 C 2.07 5.82 3.67 7.28 5.21 8.77 C 10.46 13.04 16.55 16.31 23.11 18.05 C 23.19 18.54 23.36 19.51 23.45 20.00 L 0.00 20.00 L 0.00 5.12 Z" />
</g>
<g id="#000000ff">
<path fill="#000000" opacity="1.00" d=" M 0.00 1.25 C 2.14 1.47 4.88 0.52 6.49 2.38 C 9.64 5.64 13.22 8.44 16.97 10.98 C 24.26 15.23 32.83 15.82 41.01 16.91 C 52.22 16.93 63.82 17.96 74.46 13.66 C 82.40 11.33 88.67 5.72 95.01 0.70 C 98.18 -0.96 100.54 2.17 99.61 5.18 C 95.98 7.66 93.12 11.27 88.91 12.86 C 85.27 14.89 80.98 16.14 78.13 19.32 C 77.66 19.49 76.73 19.83 76.27 20.00 L 23.45 20.00 C 23.36 19.51 23.19 18.54 23.11 18.05 C 16.55 16.31 10.46 13.04 5.21 8.77 C 3.67 7.28 2.07 5.82 0.00 5.12 L 0.00 1.25 Z" />
</g>
</svg>
