<?xml version="1.0" encoding="UTF-8" ?>
<!DOCTYPE svg PUBLIC "-//W3C//DTD SVG 1.1//EN" "http://www.w3.org/Graphics/SVG/1.1/DTD/svg11.dtd">
<svg width="68pt" height="100pt" viewBox="0 0 68 100" version="1.1" xmlns="http://www.w3.org/2000/svg">
<g id="#000000ff">
<path fill="#000000" opacity="1.00" d=" M 0.00 0.00 L 68.00 0.00 L 68.00 70.00 C 58.38 70.11 48.74 69.78 39.12 70.12 C 38.67 79.69 39.33 89.29 38.88 98.86 C 35.64 99.18 32.36 99.19 29.12 98.87 C 28.68 89.29 29.33 79.69 28.88 70.12 C 19.26 69.79 9.62 70.11 0.00 70.00 L 0.00 0.00 M 8.11 5.94 C 7.28 6.78 6.86 7.77 6.84 8.93 C 7.33 21.94 6.93 34.97 7.11 47.99 C 7.25 51.91 6.43 55.86 7.12 59.76 C 25.02 59.96 42.94 59.86 60.85 59.81 C 61.16 42.86 60.86 25.89 60.99 8.94 C 61.37 7.09 60.04 5.31 58.06 5.76 C 41.41 5.84 24.74 5.46 8.11 5.94 Z" />
</g>
<g id="#ffffffff">
<path fill="#ffffff" opacity="1.00" d=" M 8.11 5.94 C 24.74 5.46 41.41 5.84 58.06 5.76 C 60.04 5.31 61.37 7.09 60.99 8.94 C 60.86 25.89 61.16 42.86 60.85 59.81 C 42.94 59.86 25.02 59.96 7.12 59.76 C 6.43 55.86 7.25 51.91 7.11 47.99 C 6.93 34.97 7.33 21.94 6.84 8.93 C 6.86 7.77 7.28 6.78 8.11 5.94 Z" />
<path fill="#ffffff" opacity="1.00" d=" M 0.00 70.00 C 9.62 70.11 19.26 69.79 28.88 70.12 C 29.33 79.69 28.68 89.29 29.12 98.87 C 32.36 99.19 35.64 99.18 38.88 98.86 C 39.33 89.29 38.67 79.69 39.12 70.12 C 48.74 69.78 58.38 70.11 68.00 70.00 L 68.00 100.00 L 0.00 100.00 L 0.00 70.00 Z" />
</g>
</svg>
