<?xml version="1.0" encoding="UTF-8" ?>
<!DOCTYPE svg PUBLIC "-//W3C//DTD SVG 1.1//EN" "http://www.w3.org/Graphics/SVG/1.1/DTD/svg11.dtd">
<svg width="100pt" height="100pt" viewBox="0 0 100 100" version="1.1" xmlns="http://www.w3.org/2000/svg">
<g id="#ffffffff">
<path fill="#ffffff" opacity="1.00" d=" M 0.00 0.00 L 50.28 0.00 C 33.57 16.20 17.40 32.97 0.75 49.23 C 4.72 53.61 9.11 57.58 13.17 61.87 C 25.62 74.14 37.86 86.63 50.32 98.89 C 66.72 82.07 83.68 65.77 100.00 48.88 L 100.00 100.00 L 0.00 100.00 L 0.00 0.00 Z" />
<path fill="#ffffff" opacity="1.00" d=" M 51.76 0.00 L 100.00 0.00 L 100.00 8.23 C 99.85 8.34 99.56 8.56 99.41 8.67 C 97.54 5.67 94.67 3.54 92.40 0.89 C 90.39 1.95 88.84 3.62 87.33 5.28 C 82.25 10.40 76.99 15.34 72.12 20.67 C 65.69 13.45 58.54 6.89 51.76 0.00 Z" />
<path fill="#ffffff" opacity="1.00" d=" M 97.83 9.93 C 98.37 9.84 99.46 9.65 100.00 9.55 L 100.00 48.07 C 93.19 41.49 86.53 34.73 79.88 27.99 C 86.00 22.12 92.15 16.23 97.83 9.93 Z" />
<path fill="#ffffff" opacity="1.00" d=" M 42.99 19.90 C 45.09 17.59 47.70 15.72 49.38 13.05 C 54.51 18.50 59.94 23.66 65.19 29.01 C 59.92 34.08 54.48 39.06 49.77 44.65 C 44.61 39.13 38.63 34.28 34.01 28.32 C 37.46 26.11 39.94 22.64 42.99 19.90 Z" />
<path fill="#ffffff" opacity="1.00" d=" M 70.55 34.34 C 75.77 39.55 80.91 44.83 86.23 49.94 C 85.55 50.73 84.87 51.52 84.18 52.31 C 80.76 55.52 77.46 58.86 74.22 62.25 C 72.92 63.26 71.86 64.51 70.76 65.72 C 66.43 61.25 61.99 56.89 57.58 52.50 C 56.90 51.53 54.87 50.49 55.84 49.13 C 60.98 44.47 65.98 39.57 70.55 34.34 Z" />
<path fill="#ffffff" opacity="1.00" d=" M 12.75 49.96 C 18.20 44.98 23.18 39.51 28.52 34.43 C 40.36 46.91 52.90 58.73 64.84 71.10 C 62.32 74.75 58.20 77.74 55.21 81.28 C 53.28 83.09 51.21 84.81 49.79 87.08 C 37.48 74.67 25.04 62.39 12.75 49.96 Z" />
</g>
<g id="#000000ff">
<path fill="#000000" opacity="1.00" d=" M 50.28 0.00 L 51.76 0.00 C 58.54 6.89 65.69 13.45 72.12 20.67 C 76.99 15.34 82.25 10.40 87.33 5.28 C 88.84 3.62 90.39 1.95 92.40 0.89 C 94.67 3.54 97.54 5.67 99.41 8.67 C 99.56 8.56 99.85 8.34 100.00 8.23 L 100.00 9.55 C 99.46 9.65 98.37 9.84 97.83 9.93 C 92.15 16.23 86.00 22.12 79.88 27.99 C 86.53 34.73 93.19 41.49 100.00 48.07 L 100.00 48.88 C 83.68 65.77 66.72 82.07 50.32 98.89 C 37.86 86.63 25.62 74.14 13.17 61.87 C 9.11 57.58 4.72 53.61 0.75 49.23 C 17.40 32.97 33.57 16.20 50.28 0.00 M 42.99 19.90 C 39.94 22.64 37.46 26.11 34.01 28.32 C 38.63 34.28 44.61 39.13 49.77 44.65 C 54.48 39.06 59.92 34.08 65.19 29.01 C 59.94 23.66 54.51 18.50 49.38 13.05 C 47.70 15.72 45.09 17.59 42.99 19.90 M 70.55 34.34 C 65.98 39.57 60.98 44.47 55.84 49.13 C 54.87 50.49 56.90 51.53 57.58 52.50 C 61.99 56.89 66.43 61.25 70.76 65.72 C 71.86 64.51 72.92 63.26 74.22 62.25 C 77.46 58.86 80.76 55.52 84.18 52.31 C 84.87 51.52 85.55 50.73 86.23 49.94 C 80.91 44.83 75.77 39.55 70.55 34.34 M 12.75 49.96 C 25.04 62.39 37.48 74.67 49.79 87.08 C 51.21 84.81 53.28 83.09 55.21 81.28 C 58.20 77.74 62.32 74.75 64.84 71.10 C 52.90 58.73 40.36 46.91 28.52 34.43 C 23.18 39.51 18.20 44.98 12.75 49.96 Z" />
</g>
</svg>
