<?xml version="1.0" encoding="UTF-8" ?>
<!DOCTYPE svg PUBLIC "-//W3C//DTD SVG 1.1//EN" "http://www.w3.org/Graphics/SVG/1.1/DTD/svg11.dtd">
<svg width="20pt" height="100pt" viewBox="0 0 20 100" version="1.1" xmlns="http://www.w3.org/2000/svg">
<g id="#ffffffff">
<path fill="#ffffff" opacity="1.00" d=" M 0.00 0.00 L 16.17 0.00 C 10.56 5.94 5.39 12.95 3.01 20.98 C 2.11 24.43 -3.50 24.94 0.00 30.43 L 0.00 0.00 Z" />
<path fill="#ffffff" opacity="1.00" d=" M 19.19 0.00 L 20.00 0.00 L 20.00 100.00 L 0.00 100.00 L 0.00 52.38 C 0.15 58.74 0.44 71.45 0.59 77.81 C 5.57 81.80 6.32 88.82 10.33 93.59 C 11.96 95.51 13.61 97.42 15.06 99.49 C 16.55 99.50 18.04 99.50 19.52 99.48 C 19.50 97.69 20.37 95.55 18.98 94.04 C 16.74 91.00 14.11 88.26 12.08 85.06 C 7.33 78.84 5.61 71.03 3.70 63.61 C 3.31 55.73 3.32 47.84 3.51 39.96 C 4.78 31.46 5.43 22.30 10.67 15.12 C 13.20 11.17 17.01 8.28 19.52 4.33 C 19.41 2.89 19.30 1.44 19.19 0.00 Z" />
</g>
<g id="#000000ff">
<path fill="#000000" opacity="1.00" d=" M 16.17 0.00 L 19.19 0.00 C 19.30 1.44 19.41 2.89 19.52 4.33 C 17.01 8.28 13.20 11.17 10.67 15.12 C 5.43 22.30 4.78 31.46 3.51 39.96 C 3.32 47.84 3.31 55.73 3.70 63.61 C 5.61 71.03 7.33 78.84 12.08 85.06 C 14.11 88.26 16.74 91.00 18.98 94.04 C 20.37 95.55 19.50 97.69 19.52 99.48 C 18.04 99.50 16.55 99.50 15.06 99.49 C 13.61 97.42 11.96 95.51 10.33 93.59 C 6.32 88.82 5.57 81.80 0.59 77.81 C 0.44 71.45 0.15 58.74 0.00 52.38 L 0.00 30.43 C -3.50 24.94 2.11 24.43 3.01 20.98 C 5.39 12.95 10.56 5.94 16.17 0.00 Z" />
</g>
</svg>
