<?xml version="1.0" encoding="UTF-8" ?>
<!DOCTYPE svg PUBLIC "-//W3C//DTD SVG 1.1//EN" "http://www.w3.org/Graphics/SVG/1.1/DTD/svg11.dtd">
<svg width="100pt" height="100pt" viewBox="0 0 100 100" version="1.1" xmlns="http://www.w3.org/2000/svg">
<g id="#ffffffff">
<path fill="#ffffff" opacity="1.00" d=" M 0.00 0.00 L 100.00 0.00 L 100.00 100.00 L 55.00 100.00 C 54.99 90.67 54.99 81.34 55.01 72.01 C 65.00 72.00 75.00 72.00 85.00 71.99 C 85.00 48.33 85.00 24.66 85.00 1.00 C 61.67 1.00 38.33 1.00 15.00 1.00 C 15.00 24.66 15.00 48.33 15.00 71.99 C 24.66 71.99 34.33 72.00 44.00 72.01 C 44.00 81.34 44.00 90.67 44.00 100.00 L 0.00 100.00 L 0.00 0.00 Z" />
<path fill="#ffffff" opacity="1.00" d=" M 24.00 9.00 C 41.33 9.00 58.67 9.00 76.00 9.00 C 76.00 16.33 76.00 23.67 76.00 31.00 C 58.67 31.00 41.33 31.00 24.00 31.00 C 24.00 23.67 24.00 16.33 24.00 9.00 Z" />
<path fill="#ffffff" opacity="1.00" d=" M 24.00 39.00 C 31.33 39.00 38.66 39.00 46.00 39.00 C 46.00 46.33 46.00 53.66 46.00 61.00 C 38.67 61.00 31.33 61.00 24.00 61.00 C 24.00 53.67 24.00 46.33 24.00 39.00 Z" />
<path fill="#ffffff" opacity="1.00" d=" M 54.00 39.00 C 61.33 39.00 68.66 39.00 76.00 39.00 C 76.00 46.33 76.00 53.66 76.00 61.00 C 68.67 61.00 61.33 61.00 54.00 61.00 C 54.00 53.67 54.00 46.33 54.00 39.00 Z" />
</g>
<g id="#000000ff">
<path fill="#000000" opacity="1.00" d=" M 15.00 1.00 C 38.33 1.00 61.67 1.00 85.00 1.00 C 85.00 24.66 85.00 48.33 85.00 71.99 C 75.00 72.00 65.00 72.00 55.01 72.01 C 54.99 81.34 54.99 90.67 55.00 100.00 L 44.00 100.00 C 44.00 90.67 44.00 81.34 44.00 72.01 C 34.33 72.00 24.66 71.99 15.00 71.99 C 15.00 48.33 15.00 24.66 15.00 1.00 M 24.00 9.00 C 24.00 16.33 24.00 23.67 24.00 31.00 C 41.33 31.00 58.67 31.00 76.00 31.00 C 76.00 23.67 76.00 16.33 76.00 9.00 C 58.67 9.00 41.33 9.00 24.00 9.00 M 24.00 39.00 C 24.00 46.33 24.00 53.67 24.00 61.00 C 31.33 61.00 38.67 61.00 46.00 61.00 C 46.00 53.66 46.00 46.33 46.00 39.00 C 38.66 39.00 31.33 39.00 24.00 39.00 M 54.00 39.00 C 54.00 46.33 54.00 53.67 54.00 61.00 C 61.33 61.00 68.67 61.00 76.00 61.00 C 76.00 53.66 76.00 46.33 76.00 39.00 C 68.66 39.00 61.33 39.00 54.00 39.00 Z" />
</g>
</svg>
