<?xml version="1.0" encoding="UTF-8" ?>
<!DOCTYPE svg PUBLIC "-//W3C//DTD SVG 1.1//EN" "http://www.w3.org/Graphics/SVG/1.1/DTD/svg11.dtd">
<svg width="100pt" height="100pt" viewBox="0 0 100 100" version="1.1" xmlns="http://www.w3.org/2000/svg">
<g id="#ffffffff">
<path fill="#ffffff" opacity="1.00" d=" M 0.00 0.00 L 100.00 0.00 L 100.00 50.21 C 83.93 33.87 67.61 17.78 51.44 1.54 C 50.45 0.11 49.42 2.11 48.64 2.66 C 32.84 18.58 16.95 34.40 1.09 50.25 C 17.71 66.78 34.33 83.32 50.81 100.00 L 0.00 100.00 L 0.00 0.00 Z" />
<path fill="#ffffff" opacity="1.00" d=" M 12.99 49.87 C 25.21 37.38 37.67 25.12 50.01 12.74 C 55.07 18.05 60.23 23.28 65.60 28.28 C 54.68 39.14 43.81 50.06 32.91 60.94 C 31.40 62.37 30.14 64.17 28.19 65.05 C 26.15 61.89 22.98 59.67 20.48 56.88 C 17.93 54.60 15.93 51.69 12.99 49.87 Z" />
<path fill="#ffffff" opacity="1.00" d=" M 55.39 49.47 C 61.10 44.64 65.73 38.61 71.59 33.99 C 74.06 37.53 77.58 40.20 80.48 43.39 C 82.68 45.29 84.31 47.90 86.97 49.22 C 81.63 54.52 76.36 59.91 70.97 65.16 C 65.96 59.75 60.65 54.63 55.39 49.47 Z" />
<path fill="#ffffff" opacity="1.00" d=" M 79.37 72.20 C 86.46 65.62 93.16 58.60 100.00 51.75 L 100.00 100.00 L 91.68 100.00 C 91.65 99.84 91.58 99.52 91.55 99.36 C 94.31 97.33 96.53 94.70 99.09 92.44 C 98.41 91.24 97.68 90.05 96.62 89.14 C 90.76 83.61 85.38 77.56 79.37 72.20 Z" />
<path fill="#ffffff" opacity="1.00" d=" M 49.13 56.09 L 50.09 55.46 C 54.67 59.59 58.80 64.38 63.39 68.59 C 64.09 69.29 65.46 70.40 64.66 71.49 C 59.85 76.40 54.93 81.23 50.09 86.12 C 44.51 81.42 39.72 75.80 34.39 70.79 C 39.25 65.85 44.11 60.87 49.13 56.09 Z" />
<path fill="#ffffff" opacity="1.00" d=" M 51.88 100.00 C 58.53 93.24 65.24 86.54 71.99 79.88 C 77.86 85.96 83.73 92.10 90.00 97.78 C 90.11 98.33 90.33 99.44 90.43 100.00 L 51.88 100.00 Z" />
</g>
<g id="#000000ff">
<path fill="#000000" opacity="1.00" d=" M 48.64 2.66 C 49.42 2.11 50.45 0.11 51.44 1.54 C 67.61 17.78 83.93 33.87 100.00 50.21 L 100.00 51.75 C 93.16 58.60 86.46 65.62 79.37 72.20 C 85.38 77.56 90.76 83.61 96.62 89.14 C 97.68 90.05 98.41 91.24 99.09 92.44 C 96.53 94.70 94.31 97.33 91.55 99.36 C 91.58 99.52 91.65 99.84 91.68 100.00 L 90.43 100.00 C 90.33 99.44 90.11 98.33 90.00 97.78 C 83.73 92.10 77.86 85.96 71.99 79.88 C 65.24 86.54 58.53 93.24 51.88 100.00 L 50.81 100.00 C 34.33 83.32 17.71 66.78 1.09 50.25 C 16.95 34.40 32.84 18.58 48.64 2.66 M 12.99 49.87 C 15.93 51.69 17.93 54.60 20.48 56.88 C 22.98 59.67 26.15 61.89 28.19 65.05 C 30.14 64.17 31.40 62.37 32.91 60.94 C 43.81 50.06 54.68 39.14 65.60 28.28 C 60.23 23.28 55.07 18.05 50.01 12.74 C 37.67 25.12 25.21 37.38 12.99 49.87 M 55.39 49.47 C 60.65 54.63 65.96 59.75 70.97 65.16 C 76.36 59.91 81.63 54.52 86.97 49.22 C 84.31 47.90 82.68 45.29 80.48 43.39 C 77.58 40.20 74.06 37.53 71.59 33.99 C 65.73 38.61 61.10 44.64 55.39 49.47 M 49.13 56.09 C 44.11 60.87 39.25 65.85 34.39 70.79 C 39.72 75.80 44.51 81.42 50.09 86.12 C 54.93 81.23 59.85 76.40 64.66 71.49 C 65.46 70.40 64.09 69.29 63.39 68.59 C 58.80 64.38 54.67 59.59 50.09 55.46 L 49.13 56.09 Z" />
</g>
</svg>
