<?xml version="1.0" encoding="UTF-8" ?>
<!DOCTYPE svg PUBLIC "-//W3C//DTD SVG 1.1//EN" "http://www.w3.org/Graphics/SVG/1.1/DTD/svg11.dtd">
<svg width="100pt" height="100pt" viewBox="0 0 100 100" version="1.1" xmlns="http://www.w3.org/2000/svg">
<g id="#ffffffff">
<path fill="#ffffff" opacity="1.00" d=" M 0.00 0.00 L 100.00 0.00 L 100.00 100.00 L 0.00 100.00 L 0.00 0.00 M 86.17 7.00 C 86.18 17.07 86.18 27.13 86.17 37.20 C 77.41 37.20 68.65 37.20 59.88 37.20 C 59.88 38.87 59.88 40.53 59.89 42.20 C 68.65 42.20 77.41 42.20 86.17 42.20 C 86.18 50.20 86.18 58.20 86.17 66.20 C 77.58 66.21 69.00 66.20 60.41 66.20 C 60.41 67.86 60.42 69.53 60.41 71.20 C 69.00 71.20 77.58 71.20 86.17 71.20 C 86.19 78.27 86.17 85.33 86.18 92.40 C 87.85 92.40 89.51 92.40 91.18 92.40 C 91.18 63.93 91.18 35.47 91.18 7.00 C 89.51 7.00 87.84 7.00 86.17 7.00 Z" />
</g>
<g id="#000000ff">
<path fill="#000000" opacity="1.00" d=" M 86.17 7.00 C 87.84 7.00 89.51 7.00 91.18 7.00 C 91.18 35.47 91.18 63.93 91.18 92.40 C 89.51 92.40 87.85 92.40 86.18 92.40 C 86.17 85.33 86.19 78.27 86.17 71.20 C 77.58 71.20 69.00 71.20 60.41 71.20 C 60.42 69.53 60.41 67.86 60.41 66.20 C 69.00 66.20 77.58 66.21 86.17 66.20 C 86.18 58.20 86.18 50.20 86.17 42.20 C 77.41 42.20 68.65 42.20 59.89 42.20 C 59.88 40.53 59.88 38.87 59.88 37.20 C 68.65 37.20 77.41 37.20 86.17 37.20 C 86.18 27.13 86.18 17.07 86.17 7.00 Z" />
</g>
</svg>
