<?xml version="1.0" encoding="UTF-8" ?>
<!DOCTYPE svg PUBLIC "-//W3C//DTD SVG 1.1//EN" "http://www.w3.org/Graphics/SVG/1.1/DTD/svg11.dtd">
<svg width="100pt" height="100pt" viewBox="0 0 100 100" version="1.1" xmlns="http://www.w3.org/2000/svg">
<g id="#ffffffff">
<path fill="#ffffff" opacity="1.00" d=" M 0.00 0.00 L 100.00 0.00 L 100.00 100.00 L 0.00 100.00 L 0.00 0.00 M 8.82 6.60 C 8.82 35.07 8.82 63.53 8.82 92.00 C 10.49 92.00 12.16 92.00 13.83 91.99 C 13.82 81.93 13.82 71.87 13.83 61.80 C 22.59 61.80 31.35 61.80 40.11 61.80 C 40.11 60.13 40.11 58.47 40.12 56.80 C 31.35 56.79 22.59 56.81 13.83 56.80 C 13.82 48.80 13.82 40.80 13.83 32.81 C 22.42 32.79 31.01 32.81 39.59 32.79 C 39.59 31.13 39.58 29.46 39.58 27.80 C 31.00 27.80 22.41 27.80 13.83 27.80 C 13.82 20.73 13.83 13.67 13.82 6.60 C 12.15 6.60 10.49 6.60 8.82 6.60 Z" />
</g>
<g id="#000000ff">
<path fill="#000000" opacity="1.00" d=" M 8.82 6.60 C 10.49 6.60 12.15 6.60 13.82 6.60 C 13.83 13.67 13.82 20.73 13.83 27.80 C 22.41 27.80 31.00 27.80 39.58 27.80 C 39.58 29.46 39.59 31.13 39.59 32.79 C 31.01 32.81 22.42 32.79 13.83 32.81 C 13.82 40.80 13.82 48.80 13.83 56.80 C 22.59 56.81 31.35 56.79 40.12 56.80 C 40.11 58.47 40.11 60.13 40.11 61.80 C 31.35 61.80 22.59 61.80 13.83 61.80 C 13.82 71.87 13.82 81.93 13.83 91.99 C 12.16 92.00 10.49 92.00 8.82 92.00 C 8.82 63.53 8.82 35.07 8.82 6.60 Z" />
</g>
</svg>
