<?xml version="1.0" encoding="UTF-8" ?>
<!DOCTYPE svg PUBLIC "-//W3C//DTD SVG 1.1//EN" "http://www.w3.org/Graphics/SVG/1.1/DTD/svg11.dtd">
<svg width="68pt" height="68pt" viewBox="0 0 68 68" version="1.1" xmlns="http://www.w3.org/2000/svg">
<g id="#000000ff">
<path fill="#000000" opacity="1.00" d=" M 0.00 0.00 L 5.14 0.00 C 10.37 2.06 13.32 7.13 17.63 10.45 C 33.75 10.14 49.87 10.40 65.99 10.31 C 66.01 29.21 65.99 48.10 66.00 67.00 C 47.44 67.00 28.87 67.01 10.31 66.99 C 10.38 48.27 10.20 29.54 10.40 10.82 C 8.61 10.03 6.98 8.95 5.33 7.90 C 3.61 6.59 1.88 5.28 0.00 4.20 L 0.00 0.00 M 17.46 60.51 C 31.84 60.40 46.23 60.38 60.61 60.52 C 60.32 46.21 60.34 31.88 60.61 17.57 C 46.22 17.68 31.84 17.73 17.46 17.54 C 17.76 31.86 17.76 46.19 17.46 60.51 Z" />
</g>
<g id="#ffffffff">
<path fill="#ffffff" opacity="1.00" d=" M 5.14 0.00 L 68.00 0.00 L 68.00 68.00 L 0.00 68.00 L 0.00 4.20 C 1.88 5.28 3.61 6.59 5.33 7.90 C 6.98 8.95 8.61 10.03 10.40 10.82 C 10.20 29.54 10.38 48.27 10.31 66.99 C 28.87 67.01 47.44 67.00 66.00 67.00 C 65.99 48.10 66.01 29.21 65.99 10.31 C 49.87 10.40 33.75 10.14 17.63 10.45 C 13.32 7.13 10.37 2.06 5.14 0.00 Z" />
<path fill="#ffffff" opacity="1.00" d=" M 17.46 60.51 C 17.76 46.19 17.76 31.86 17.46 17.54 C 31.84 17.73 46.22 17.68 60.61 17.57 C 60.34 31.88 60.32 46.21 60.61 60.52 C 46.23 60.38 31.84 60.40 17.46 60.51 Z" />
</g>
</svg>
