<?xml version="1.0" encoding="UTF-8" ?>
<!DOCTYPE svg PUBLIC "-//W3C//DTD SVG 1.1//EN" "http://www.w3.org/Graphics/SVG/1.1/DTD/svg11.dtd">
<svg width="100pt" height="100pt" viewBox="0 0 100 100" version="1.1" xmlns="http://www.w3.org/2000/svg">
<g id="#ffffffff">
<path fill="#ffffff" opacity="1.00" d=" M 0.00 0.00 L 100.00 0.00 L 100.00 100.00 L 0.00 100.00 L 0.00 0.00 M 93.24 4.75 C 79.63 33.46 65.84 62.08 52.33 90.83 C 38.66 62.32 24.83 33.88 11.09 5.41 C 9.60 6.12 8.11 6.84 6.62 7.55 C 21.18 37.68 35.57 67.91 50.41 97.90 L 52.23 97.00 C 52.80 97.20 53.94 97.61 54.50 97.81 C 68.88 67.49 83.34 37.21 97.75 6.90 C 96.24 6.19 94.74 5.47 93.24 4.75 Z" />
</g>
<g id="#000000ff">
<path fill="#000000" opacity="1.00" d=" M 93.24 4.75 C 94.74 5.47 96.24 6.19 97.75 6.90 C 83.34 37.21 68.88 67.49 54.50 97.81 C 53.94 97.61 52.80 97.20 52.23 97.00 L 50.41 97.90 C 35.57 67.91 21.18 37.68 6.62 7.55 C 8.11 6.84 9.60 6.12 11.09 5.41 C 24.83 33.88 38.66 62.32 52.33 90.83 C 65.84 62.08 79.63 33.46 93.24 4.75 Z" />
</g>
</svg>
