<?xml version="1.0" encoding="UTF-8" ?>
<!DOCTYPE svg PUBLIC "-//W3C//DTD SVG 1.1//EN" "http://www.w3.org/Graphics/SVG/1.1/DTD/svg11.dtd">
<svg width="68pt" height="68pt" viewBox="0 0 68 68" version="1.1" xmlns="http://www.w3.org/2000/svg">
<g id="#ffffffff">
<path fill="#ffffff" opacity="1.00" d=" M 0.00 0.00 L 62.55 0.00 C 60.83 1.93 58.18 2.61 56.48 4.55 C 54.16 6.92 51.95 9.41 49.33 11.45 C 33.22 11.14 17.11 11.40 1.01 11.31 C 0.99 30.21 1.01 49.10 1.00 68.00 L 0.00 68.00 L 0.00 0.00 Z" />
<path fill="#ffffff" opacity="1.00" d=" M 65.65 5.82 C 66.24 5.55 67.41 5.01 68.00 4.74 L 68.00 68.00 L 56.69 68.00 C 56.60 49.23 56.86 30.46 56.56 11.70 C 59.98 10.44 62.85 8.08 65.65 5.82 Z" />
<path fill="#ffffff" opacity="1.00" d=" M 6.39 18.54 C 20.77 18.69 35.16 18.75 49.54 18.51 C 49.26 32.84 49.23 47.20 49.55 61.53 C 35.16 61.39 20.77 61.37 6.38 61.54 C 6.68 47.21 6.66 32.87 6.39 18.54 Z" />
</g>
<g id="#000000ff">
<path fill="#000000" opacity="1.00" d=" M 62.55 0.00 L 68.00 0.00 L 68.00 4.74 C 67.41 5.01 66.24 5.55 65.65 5.82 C 62.85 8.08 59.98 10.44 56.56 11.70 C 56.86 30.46 56.60 49.23 56.69 68.00 L 1.00 68.00 C 1.01 49.10 0.99 30.21 1.01 11.31 C 17.11 11.40 33.22 11.14 49.33 11.45 C 51.95 9.41 54.16 6.92 56.48 4.55 C 58.18 2.61 60.83 1.93 62.55 0.00 M 6.39 18.54 C 6.66 32.87 6.68 47.21 6.38 61.54 C 20.77 61.37 35.16 61.39 49.55 61.53 C 49.23 47.20 49.26 32.84 49.54 18.51 C 35.16 18.75 20.77 18.69 6.39 18.54 Z" />
</g>
</svg>
