<?xml version="1.0" encoding="UTF-8" ?>
<!DOCTYPE svg PUBLIC "-//W3C//DTD SVG 1.1//EN" "http://www.w3.org/Graphics/SVG/1.1/DTD/svg11.dtd">
<svg width="100pt" height="100pt" viewBox="0 0 100 100" version="1.1" xmlns="http://www.w3.org/2000/svg">
<g id="#ffffffff">
<path fill="#ffffff" opacity="1.00" d=" M 0.00 0.00 L 92.83 0.00 C 86.46 6.35 80.09 12.69 73.75 19.06 C 74.89 20.26 76.08 21.42 77.27 22.58 C 83.26 16.66 89.17 10.65 95.17 4.73 C 95.19 10.63 95.16 16.53 95.19 22.44 L 93.78 21.51 C 87.41 27.94 80.97 34.29 74.61 40.72 C 75.76 41.91 76.91 43.10 78.12 44.24 C 83.85 38.62 89.45 32.87 95.17 27.24 C 95.22 32.67 95.08 38.11 95.25 43.55 C 94.78 43.68 93.85 43.94 93.39 44.08 C 87.18 50.30 80.93 56.48 74.74 62.73 C 75.90 63.91 77.07 65.09 78.27 66.24 C 83.96 60.68 89.51 54.98 95.17 49.39 C 95.19 54.75 95.17 60.10 95.18 65.45 C 94.75 65.09 93.89 64.35 93.46 63.99 C 87.34 70.25 81.07 76.36 74.93 82.60 C 76.10 83.78 77.22 85.03 78.52 86.08 C 84.04 80.49 89.61 74.96 95.18 69.42 C 95.13 74.52 95.28 79.63 95.10 84.72 C 90.81 89.01 86.49 93.27 82.23 97.59 C 82.84 98.20 84.07 99.40 84.69 100.00 L 0.00 100.00 L 0.00 0.00 Z" />
<path fill="#ffffff" opacity="1.00" d=" M 94.51 92.26 C 96.33 92.06 98.17 92.27 100.00 92.20 L 100.00 100.00 L 86.86 100.00 C 89.41 97.42 92.05 94.92 94.51 92.26 Z" />
</g>
<g id="#000000ff">
<path fill="#000000" opacity="1.00" d=" M 92.83 0.00 L 100.00 0.00 L 100.00 92.20 C 98.17 92.27 96.33 92.06 94.51 92.26 C 92.05 94.92 89.41 97.42 86.86 100.00 L 84.69 100.00 C 84.07 99.40 82.84 98.20 82.23 97.59 C 86.49 93.27 90.81 89.01 95.10 84.72 C 95.28 79.63 95.13 74.52 95.18 69.42 C 89.61 74.96 84.04 80.49 78.52 86.08 C 77.22 85.03 76.10 83.78 74.93 82.60 C 81.07 76.36 87.34 70.25 93.46 63.99 C 93.89 64.35 94.75 65.09 95.18 65.45 C 95.17 60.10 95.19 54.75 95.17 49.39 C 89.51 54.98 83.96 60.68 78.27 66.24 C 77.07 65.09 75.90 63.91 74.74 62.73 C 80.93 56.48 87.18 50.30 93.39 44.08 C 93.85 43.94 94.78 43.68 95.25 43.55 C 95.08 38.11 95.22 32.67 95.17 27.24 C 89.45 32.87 83.85 38.62 78.12 44.24 C 76.91 43.10 75.76 41.91 74.61 40.72 C 80.97 34.29 87.41 27.94 93.78 21.51 L 95.19 22.44 C 95.16 16.53 95.19 10.63 95.17 4.73 C 89.17 10.65 83.26 16.66 77.27 22.58 C 76.08 21.42 74.89 20.26 73.75 19.06 C 80.09 12.69 86.46 6.35 92.83 0.00 Z" />
</g>
</svg>
