<?xml version="1.0" encoding="UTF-8" ?>
<!DOCTYPE svg PUBLIC "-//W3C//DTD SVG 1.1//EN" "http://www.w3.org/Graphics/SVG/1.1/DTD/svg11.dtd">
<svg width="100pt" height="100pt" viewBox="0 0 100 100" version="1.1" xmlns="http://www.w3.org/2000/svg">
<g id="#ffffffff">
<path fill="#ffffff" opacity="1.00" d=" M 0.00 0.00 L 100.00 0.00 L 100.00 100.00 L 0.00 100.00 L 0.00 0.00 M 8.82 6.60 C 8.82 35.07 8.82 63.53 8.82 92.00 C 10.49 92.00 12.16 92.00 13.83 92.00 C 13.86 89.52 13.82 87.05 13.74 84.58 C 21.32 84.63 28.89 84.59 36.47 84.59 C 36.47 82.93 36.47 81.27 36.47 79.60 C 29.00 79.61 21.53 79.57 14.06 79.63 C 13.56 72.89 13.99 66.13 13.77 59.39 C 21.20 59.41 28.63 59.40 36.07 59.40 C 36.05 57.73 36.04 56.06 36.03 54.39 C 28.70 54.41 21.37 54.38 14.03 54.41 C 13.58 48.47 14.00 42.52 13.74 36.57 C 21.12 36.63 28.51 36.60 35.89 36.59 C 35.88 34.93 35.88 33.27 35.88 31.61 C 28.61 31.61 21.33 31.57 14.06 31.63 C 13.62 26.50 13.92 21.34 13.80 16.20 C 21.11 16.17 28.42 16.27 35.73 16.15 C 35.71 14.50 35.71 12.85 35.70 11.20 C 28.48 11.20 21.26 11.20 14.05 11.20 C 13.95 9.67 13.85 8.13 13.76 6.59 C 12.11 6.60 10.47 6.60 8.82 6.60 Z" />
</g>
<g id="#000000ff">
<path fill="#000000" opacity="1.00" d=" M 8.82 6.60 C 10.47 6.60 12.11 6.60 13.76 6.59 C 13.85 8.13 13.95 9.67 14.05 11.20 C 21.26 11.20 28.48 11.20 35.70 11.20 C 35.71 12.85 35.71 14.50 35.73 16.15 C 28.42 16.27 21.11 16.17 13.80 16.20 C 13.92 21.34 13.62 26.50 14.06 31.63 C 21.33 31.57 28.61 31.61 35.88 31.61 C 35.88 33.27 35.88 34.93 35.89 36.59 C 28.51 36.60 21.12 36.63 13.74 36.57 C 14.00 42.52 13.58 48.47 14.03 54.41 C 21.37 54.38 28.70 54.41 36.03 54.39 C 36.04 56.06 36.05 57.73 36.07 59.40 C 28.63 59.40 21.20 59.41 13.77 59.39 C 13.99 66.13 13.56 72.89 14.06 79.63 C 21.53 79.57 29.00 79.61 36.47 79.60 C 36.47 81.27 36.47 82.93 36.47 84.59 C 28.89 84.59 21.32 84.63 13.74 84.58 C 13.82 87.05 13.86 89.52 13.83 92.00 C 12.16 92.00 10.49 92.00 8.82 92.00 C 8.82 63.53 8.82 35.07 8.82 6.60 Z" />
</g>
</svg>
