<?xml version="1.0" encoding="UTF-8" ?>
<!DOCTYPE svg PUBLIC "-//W3C//DTD SVG 1.1//EN" "http://www.w3.org/Graphics/SVG/1.1/DTD/svg11.dtd">
<svg width="100pt" height="100pt" viewBox="0 0 100 100" version="1.1" xmlns="http://www.w3.org/2000/svg">
<g id="#ffffffff">
<path fill="#ffffff" opacity="1.00" d=" M 0.00 0.00 L 100.00 0.00 L 100.00 100.00 L 0.00 100.00 L 0.00 0.00 M 90.64 3.98 C 90.93 6.40 88.63 7.70 87.23 9.26 C 60.90 35.55 34.62 61.89 8.29 88.17 C 8.30 60.71 8.29 33.26 8.29 5.80 C 6.63 5.80 4.96 5.81 3.29 5.80 C 3.31 36.06 3.26 66.32 3.32 96.57 C 4.69 96.56 6.15 97.05 7.48 96.57 C 8.42 95.48 9.25 94.30 10.25 93.26 C 37.03 66.53 63.76 39.75 90.53 13.01 C 90.52 40.60 90.56 68.19 90.51 95.77 C 92.18 95.77 93.86 95.80 95.53 95.81 C 95.52 67.87 95.55 39.94 95.51 12.01 C 95.51 9.33 95.98 6.64 95.47 3.98 C 93.86 3.97 92.25 3.97 90.64 3.98 Z" />
</g>
<g id="#000000ff">
<path fill="#000000" opacity="1.00" d=" M 90.64 3.98 C 92.25 3.97 93.86 3.97 95.47 3.98 C 95.98 6.64 95.51 9.33 95.51 12.01 C 95.55 39.94 95.52 67.87 95.53 95.81 C 93.86 95.80 92.18 95.77 90.51 95.77 C 90.56 68.19 90.52 40.60 90.53 13.01 C 63.76 39.75 37.03 66.53 10.25 93.26 C 9.25 94.30 8.42 95.48 7.48 96.57 C 6.15 97.05 4.69 96.56 3.32 96.57 C 3.26 66.32 3.31 36.06 3.29 5.80 C 4.96 5.81 6.63 5.80 8.29 5.80 C 8.29 33.26 8.30 60.71 8.29 88.17 C 34.62 61.89 60.90 35.55 87.23 9.26 C 88.63 7.70 90.93 6.40 90.64 3.98 Z" />
</g>
</svg>
