<?xml version="1.0" encoding="UTF-8" ?>
<!DOCTYPE svg PUBLIC "-//W3C//DTD SVG 1.1//EN" "http://www.w3.org/Graphics/SVG/1.1/DTD/svg11.dtd">
<svg width="100pt" height="100pt" viewBox="0 0 100 100" version="1.1" xmlns="http://www.w3.org/2000/svg">
<g id="#ffffffff">
<path fill="#ffffff" opacity="1.00" d=" M 0.00 0.00 L 100.00 0.00 L 100.00 100.00 L 0.00 100.00 L 0.00 0.00 M 3.25 94.09 C 4.75 94.81 6.25 95.53 7.75 96.25 C 21.38 67.56 35.13 38.93 48.68 10.21 C 62.36 38.70 76.18 67.14 89.91 95.61 C 91.41 94.87 92.91 94.14 94.41 93.42 C 79.88 63.38 65.39 33.32 50.83 3.30 C 49.72 3.31 47.52 3.34 46.42 3.35 C 32.06 33.62 17.64 63.85 3.25 94.09 Z" />
</g>
<g id="#000000ff">
<path fill="#000000" opacity="1.00" d=" M 3.25 94.09 C 17.64 63.85 32.06 33.62 46.42 3.35 C 47.52 3.34 49.72 3.31 50.83 3.30 C 65.39 33.32 79.88 63.38 94.41 93.42 C 92.91 94.14 91.41 94.87 89.91 95.61 C 76.18 67.14 62.36 38.70 48.68 10.21 C 35.13 38.93 21.38 67.56 7.75 96.25 C 6.25 95.53 4.75 94.81 3.25 94.09 Z" />
</g>
</svg>
