<?xml version="1.0" encoding="UTF-8" ?>
<!DOCTYPE svg PUBLIC "-//W3C//DTD SVG 1.1//EN" "http://www.w3.org/Graphics/SVG/1.1/DTD/svg11.dtd">
<svg width="68pt" height="100pt" viewBox="0 0 68 100" version="1.1" xmlns="http://www.w3.org/2000/svg">
<g id="#ffffffff">
<path fill="#ffffff" opacity="1.00" d=" M 0.00 0.00 L 29.00 0.00 C 28.81 9.60 29.36 19.22 28.80 28.80 C 19.22 29.36 9.60 28.81 0.00 29.00 L 0.00 0.00 Z" />
<path fill="#ffffff" opacity="1.00" d=" M 39.00 0.00 L 68.00 0.00 L 68.00 29.00 C 58.40 28.81 48.78 29.36 39.20 28.80 C 38.64 19.22 39.18 9.60 39.00 0.00 Z" />
<path fill="#ffffff" opacity="1.00" d=" M 7.17 39.24 C 25.07 39.06 43.02 38.98 60.92 39.28 C 61.20 55.17 60.51 71.13 61.13 87.04 C 61.08 89.08 61.47 91.48 59.91 93.09 C 43.93 93.49 27.94 93.07 11.95 93.28 C 10.14 93.18 6.82 93.79 7.08 90.95 C 7.04 73.72 6.86 56.46 7.17 39.24 Z" />
</g>
<g id="#000000ff">
<path fill="#000000" opacity="1.00" d=" M 29.00 0.00 L 39.00 0.00 C 39.18 9.60 38.64 19.22 39.20 28.80 C 48.78 29.36 58.40 28.81 68.00 29.00 L 68.00 100.00 L 0.00 100.00 L 0.00 29.00 C 9.60 28.81 19.22 29.36 28.80 28.80 C 29.36 19.22 28.81 9.60 29.00 0.00 M 7.17 39.24 C 6.86 56.46 7.04 73.72 7.08 90.95 C 6.82 93.79 10.14 93.18 11.95 93.28 C 27.94 93.07 43.93 93.49 59.91 93.09 C 61.47 91.48 61.08 89.08 61.13 87.04 C 60.51 71.13 61.20 55.17 60.92 39.28 C 43.02 38.98 25.07 39.06 7.17 39.24 Z" />
</g>
</svg>
