<?xml version="1.0" encoding="UTF-8" ?>
<!DOCTYPE svg PUBLIC "-//W3C//DTD SVG 1.1//EN" "http://www.w3.org/Graphics/SVG/1.1/DTD/svg11.dtd">
<svg width="100pt" height="100pt" viewBox="0 0 100 100" version="1.1" xmlns="http://www.w3.org/2000/svg">
<g id="#ffffffff">
<path fill="#ffffff" opacity="1.00" d=" M 0.00 0.00 L 100.00 0.00 L 100.00 100.00 L 0.00 100.00 L 0.00 0.00 M 3.10 40.03 C -0.57 49.59 2.43 61.29 10.49 67.67 C 18.25 74.19 30.14 75.06 38.72 69.65 C 45.12 65.93 49.24 59.12 50.37 51.88 C 66.05 51.88 81.72 51.88 97.40 51.89 C 97.40 49.47 97.40 47.06 97.40 44.65 C 81.69 44.65 65.99 44.64 50.29 44.65 C 48.55 34.59 40.29 26.01 30.11 24.48 C 18.93 22.37 6.82 29.25 3.10 40.03 Z" />
</g>
<g id="#000000ff">
<path fill="#000000" opacity="1.00" d=" M 3.10 40.03 C 6.82 29.25 18.93 22.37 30.11 24.48 C 40.29 26.01 48.55 34.59 50.29 44.65 C 65.99 44.64 81.69 44.65 97.40 44.65 C 97.40 47.06 97.40 49.47 97.40 51.89 C 81.72 51.88 66.05 51.88 50.37 51.88 C 49.24 59.12 45.12 65.93 38.72 69.65 C 30.14 75.06 18.25 74.19 10.49 67.67 C 2.43 61.29 -0.57 49.59 3.10 40.03 Z" />
</g>
</svg>
