<?xml version="1.0" encoding="UTF-8" ?>
<!DOCTYPE svg PUBLIC "-//W3C//DTD SVG 1.1//EN" "http://www.w3.org/Graphics/SVG/1.1/DTD/svg11.dtd">
<svg width="100pt" height="100pt" viewBox="0 0 100 100" version="1.1" xmlns="http://www.w3.org/2000/svg">
<g id="#ffffffff">
<path fill="#ffffff" opacity="1.00" d=" M 0.00 0.00 L 100.00 0.00 L 100.00 100.00 L 0.00 100.00 L 0.00 0.00 M 47.23 4.00 C 47.24 12.77 47.23 21.55 47.24 30.32 C 43.18 30.94 39.46 32.86 36.02 35.03 C 32.59 38.51 30.05 42.82 28.87 47.57 C 21.44 47.63 14.02 47.58 6.59 47.60 C 6.59 49.26 6.59 50.93 6.58 52.59 C 13.98 52.61 21.38 52.60 28.77 52.60 C 28.99 56.67 30.51 60.61 33.08 63.78 C 35.91 68.67 41.68 70.83 46.88 72.18 C 46.88 79.58 46.88 86.99 46.88 94.40 C 48.55 94.40 50.21 94.40 51.88 94.40 C 51.88 87.01 51.88 79.62 51.88 72.23 C 56.14 71.75 59.88 69.56 63.48 67.41 C 67.04 63.42 70.36 58.73 70.70 53.19 C 78.84 53.21 86.98 53.20 95.12 53.20 C 95.11 51.53 95.11 49.87 95.12 48.20 C 87.01 48.20 78.90 48.20 70.80 48.20 C 69.62 43.12 66.96 38.52 63.24 34.88 C 59.84 32.81 56.20 30.93 52.22 30.32 C 52.25 21.54 52.23 12.77 52.24 4.00 C 50.57 4.00 48.90 4.00 47.23 4.00 Z" />
<path fill="#ffffff" opacity="1.00" d=" M 47.71 35.04 C 53.20 33.98 58.37 36.99 62.27 40.56 C 66.18 45.04 66.50 51.63 65.01 57.14 C 64.19 60.80 61.05 63.14 58.18 65.20 C 54.04 68.30 48.18 68.39 43.52 66.50 C 39.75 64.19 35.73 61.34 34.40 56.89 C 32.92 51.36 33.37 44.74 37.54 40.44 C 40.44 37.90 43.75 35.46 47.71 35.04 Z" />
</g>
<g id="#000000ff">
<path fill="#000000" opacity="1.00" d=" M 47.23 4.00 C 48.90 4.00 50.57 4.00 52.24 4.00 C 52.23 12.77 52.25 21.54 52.22 30.32 C 56.20 30.93 59.84 32.81 63.24 34.88 C 66.96 38.52 69.62 43.12 70.80 48.20 C 78.90 48.20 87.01 48.20 95.12 48.20 C 95.11 49.87 95.11 51.53 95.12 53.20 C 86.98 53.20 78.84 53.21 70.70 53.19 C 70.36 58.73 67.04 63.42 63.48 67.41 C 59.88 69.56 56.14 71.75 51.88 72.23 C 51.88 79.62 51.88 87.01 51.88 94.40 C 50.21 94.40 48.55 94.40 46.88 94.40 C 46.88 86.99 46.88 79.58 46.88 72.18 C 41.68 70.83 35.91 68.67 33.08 63.78 C 30.51 60.61 28.99 56.67 28.77 52.60 C 21.38 52.60 13.98 52.61 6.58 52.59 C 6.59 50.93 6.59 49.26 6.59 47.60 C 14.02 47.58 21.44 47.63 28.87 47.57 C 30.05 42.82 32.59 38.51 36.02 35.03 C 39.46 32.86 43.18 30.94 47.24 30.32 C 47.23 21.55 47.24 12.77 47.23 4.00 M 47.71 35.04 C 43.75 35.46 40.44 37.90 37.54 40.44 C 33.37 44.74 32.92 51.36 34.40 56.89 C 35.73 61.34 39.75 64.19 43.52 66.50 C 48.18 68.39 54.04 68.30 58.18 65.20 C 61.05 63.14 64.19 60.80 65.01 57.14 C 66.50 51.63 66.18 45.04 62.27 40.56 C 58.37 36.99 53.20 33.98 47.71 35.04 Z" />
</g>
</svg>
