<?xml version="1.0" encoding="UTF-8" ?>
<!DOCTYPE svg PUBLIC "-//W3C//DTD SVG 1.1//EN" "http://www.w3.org/Graphics/SVG/1.1/DTD/svg11.dtd">
<svg width="20pt" height="100pt" viewBox="0 0 20 100" version="1.1" xmlns="http://www.w3.org/2000/svg">
<g id="#ffffffff">
<path fill="#ffffff" opacity="1.00" d=" M 0.00 0.00 L 20.00 0.00 L 20.00 22.14 C 16.26 18.17 14.72 12.80 11.97 8.20 C 10.12 5.49 7.75 3.17 5.89 0.46 C 3.56 0.03 1.34 0.72 0.31 3.00 C 3.73 9.21 9.32 13.98 12.28 20.49 C 14.73 26.07 16.51 31.97 17.39 38.00 C 17.78 51.66 18.39 65.79 13.60 78.83 C 11.25 85.56 5.46 90.06 1.45 95.71 C 1.58 97.14 1.70 98.57 1.82 100.00 L 0.00 100.00 L 0.00 0.00 Z" />
<path fill="#ffffff" opacity="1.00" d=" M 16.02 84.22 C 17.45 81.58 17.57 78.20 20.00 76.17 L 20.00 100.00 L 5.16 100.00 C 9.08 94.95 13.47 90.16 16.02 84.22 Z" />
</g>
<g id="#000000ff">
<path fill="#000000" opacity="1.00" d=" M 0.31 3.00 C 1.34 0.72 3.56 0.03 5.89 0.46 C 7.75 3.17 10.12 5.49 11.97 8.20 C 14.72 12.80 16.26 18.17 20.00 22.14 L 20.00 76.17 C 17.57 78.20 17.45 81.58 16.02 84.22 C 13.47 90.16 9.08 94.95 5.16 100.00 L 1.82 100.00 C 1.70 98.57 1.58 97.14 1.45 95.71 C 5.46 90.06 11.25 85.56 13.60 78.83 C 18.39 65.79 17.78 51.66 17.39 38.00 C 16.51 31.97 14.73 26.07 12.28 20.49 C 9.32 13.98 3.73 9.21 0.31 3.00 Z" />
</g>
</svg>
