<?xml version="1.0" encoding="UTF-8" ?>
<!DOCTYPE svg PUBLIC "-//W3C//DTD SVG 1.1//EN" "http://www.w3.org/Graphics/SVG/1.1/DTD/svg11.dtd">
<svg width="100pt" height="100pt" viewBox="0 0 100 100" version="1.1" xmlns="http://www.w3.org/2000/svg">
<g id="#ffffffff">
<path fill="#ffffff" opacity="1.00" d=" M 0.00 0.00 L 100.00 0.00 L 100.00 100.00 L 0.00 100.00 L 0.00 0.00 M 49.25 4.76 C 40.23 16.24 31.26 27.75 22.26 39.24 C 20.29 41.88 18.20 44.45 15.78 46.70 C 26.34 61.40 37.26 75.86 47.60 90.72 C 48.80 91.44 49.99 92.16 51.18 92.91 C 60.87 79.40 70.63 65.93 80.32 52.41 C 81.57 50.68 83.07 49.15 84.60 47.68 C 73.73 33.32 63.00 18.85 52.09 4.51 C 51.38 4.57 49.96 4.70 49.25 4.76 Z" />
<path fill="#ffffff" opacity="1.00" d=" M 22.37 47.22 C 31.80 35.11 41.29 23.05 50.72 10.93 C 59.79 23.01 68.86 35.09 77.94 47.15 C 68.72 59.97 59.46 72.77 50.27 85.62 C 40.96 72.82 31.62 60.05 22.37 47.22 Z" />
</g>
<g id="#000000ff">
<path fill="#000000" opacity="1.00" d=" M 49.25 4.76 C 49.96 4.70 51.38 4.57 52.09 4.51 C 63.00 18.85 73.73 33.32 84.60 47.68 C 83.07 49.15 81.57 50.68 80.32 52.41 C 70.63 65.93 60.87 79.40 51.18 92.91 C 49.99 92.16 48.80 91.44 47.60 90.72 C 37.26 75.86 26.34 61.40 15.78 46.70 C 18.20 44.45 20.29 41.88 22.26 39.24 C 31.26 27.75 40.23 16.24 49.25 4.76 M 22.37 47.22 C 31.62 60.05 40.96 72.82 50.27 85.62 C 59.46 72.77 68.72 59.97 77.94 47.15 C 68.86 35.09 59.79 23.01 50.72 10.93 C 41.29 23.05 31.80 35.11 22.37 47.22 Z" />
</g>
</svg>
