<?xml version="1.0" encoding="UTF-8" ?>
<!DOCTYPE svg PUBLIC "-//W3C//DTD SVG 1.1//EN" "http://www.w3.org/Graphics/SVG/1.1/DTD/svg11.dtd">
<svg width="100pt" height="100pt" viewBox="0 0 100 100" version="1.1" xmlns="http://www.w3.org/2000/svg">
<g id="#ffffffff">
<path fill="#ffffff" opacity="1.00" d=" M 0.00 0.00 L 100.00 0.00 L 100.00 100.00 L 0.00 100.00 L 0.00 0.00 M 93.22 1.98 C 85.91 9.54 78.37 16.87 70.96 24.33 C 72.16 25.49 73.34 26.66 74.52 27.83 C 80.49 21.89 86.45 15.93 92.41 9.97 C 92.42 15.93 92.39 21.88 92.43 27.83 L 91.12 26.69 C 84.69 33.12 78.27 39.55 71.84 45.97 C 73.03 47.15 74.20 48.33 75.36 49.53 C 81.05 43.85 86.72 38.16 92.41 32.48 C 92.42 54.12 92.40 75.76 92.41 97.40 C 94.08 97.39 95.75 97.39 97.41 97.40 C 97.41 65.78 97.41 34.16 97.42 2.54 C 96.02 2.35 94.61 2.19 93.22 1.98 Z" />
</g>
<g id="#000000ff">
<path fill="#000000" opacity="1.00" d=" M 93.22 1.98 C 94.61 2.19 96.02 2.35 97.42 2.54 C 97.41 34.16 97.41 65.78 97.41 97.40 C 95.75 97.39 94.08 97.39 92.41 97.40 C 92.40 75.76 92.42 54.12 92.41 32.48 C 86.72 38.16 81.05 43.85 75.36 49.53 C 74.20 48.33 73.03 47.15 71.84 45.97 C 78.27 39.55 84.69 33.12 91.12 26.69 L 92.43 27.83 C 92.39 21.88 92.42 15.93 92.41 9.97 C 86.45 15.93 80.49 21.89 74.52 27.83 C 73.34 26.66 72.16 25.49 70.96 24.33 C 78.37 16.87 85.91 9.54 93.22 1.98 Z" />
</g>
</svg>
