<?xml version="1.0" encoding="UTF-8" ?>
<!DOCTYPE svg PUBLIC "-//W3C//DTD SVG 1.1//EN" "http://www.w3.org/Graphics/SVG/1.1/DTD/svg11.dtd">
<svg width="100pt" height="100pt" viewBox="0 0 100 100" version="1.1" xmlns="http://www.w3.org/2000/svg">
<g id="#ffffffff">
<path fill="#ffffff" opacity="1.00" d=" M 0.00 0.00 L 100.00 0.00 L 100.00 100.00 L 0.00 100.00 L 0.00 0.00 M 2.58 2.53 C 2.60 34.16 2.58 65.78 2.59 97.40 C 4.25 97.39 5.92 97.39 7.59 97.40 C 7.59 68.26 7.58 39.12 7.59 9.98 C 13.54 15.94 19.51 21.88 25.46 27.84 C 26.64 26.66 27.83 25.49 29.04 24.33 C 21.63 16.88 14.10 9.54 6.79 1.99 C 5.39 2.20 3.99 2.37 2.58 2.53 Z" />
</g>
<g id="#000000ff">
<path fill="#000000" opacity="1.00" d=" M 2.58 2.53 C 3.99 2.37 5.39 2.20 6.79 1.99 C 14.10 9.54 21.63 16.88 29.04 24.33 C 27.83 25.49 26.64 26.66 25.46 27.84 C 19.51 21.88 13.54 15.94 7.59 9.98 C 7.58 39.12 7.59 68.26 7.59 97.40 C 5.92 97.39 4.25 97.39 2.59 97.40 C 2.58 65.78 2.60 34.16 2.58 2.53 Z" />
</g>
</svg>
