<?xml version="1.0" encoding="UTF-8" ?>
<!DOCTYPE svg PUBLIC "-//W3C//DTD SVG 1.1//EN" "http://www.w3.org/Graphics/SVG/1.1/DTD/svg11.dtd">
<svg width="100pt" height="100pt" viewBox="0 0 100 100" version="1.1" xmlns="http://www.w3.org/2000/svg">
<g id="#ffffffff">
<path fill="#ffffff" opacity="1.00" d=" M 0.00 0.00 L 100.00 0.00 L 100.00 100.00 L 12.03 100.00 C 12.18 92.02 11.74 84.01 12.22 76.06 C 14.29 73.72 17.17 72.32 19.84 70.81 C 25.30 67.85 30.19 63.90 35.83 61.29 C 43.52 60.61 51.30 61.19 59.02 61.00 C 59.09 57.33 59.07 53.66 58.99 50.00 C 51.00 49.91 43.01 50.19 35.03 49.84 C 32.82 47.35 30.14 45.34 27.93 42.85 C 22.51 40.29 17.29 36.85 13.92 31.78 C 12.93 30.03 13.00 27.96 12.97 26.01 C 13.02 18.68 12.99 11.34 13.00 4.00 C 9.67 3.95 6.34 3.93 3.00 3.96 C 2.99 15.00 3.02 26.05 2.99 37.09 C 7.50 42.09 13.57 45.07 18.90 49.04 C 21.23 50.75 24.61 51.35 26.00 54.11 C 26.10 56.57 23.14 56.75 21.45 57.52 C 17.82 58.31 15.19 61.08 12.20 63.08 C 9.05 65.20 6.00 67.46 2.99 69.77 C 3.01 79.85 3.00 89.92 3.00 100.00 L 0.00 100.00 L 0.00 0.00 Z" />
</g>
<g id="#000000ff">
<path fill="#000000" opacity="1.00" d=" M 3.00 3.96 C 6.34 3.93 9.67 3.95 13.00 4.00 C 12.99 11.34 13.02 18.68 12.97 26.01 C 13.00 27.96 12.93 30.03 13.92 31.78 C 17.29 36.85 22.51 40.29 27.93 42.85 C 30.14 45.34 32.82 47.35 35.03 49.84 C 43.01 50.19 51.00 49.91 58.99 50.00 C 59.07 53.66 59.09 57.33 59.02 61.00 C 51.30 61.19 43.52 60.61 35.83 61.29 C 30.19 63.90 25.30 67.85 19.84 70.81 C 17.17 72.32 14.29 73.72 12.22 76.06 C 11.74 84.01 12.18 92.02 12.03 100.00 L 3.00 100.00 C 3.00 89.92 3.01 79.85 2.99 69.77 C 6.00 67.46 9.05 65.20 12.20 63.08 C 15.19 61.08 17.82 58.31 21.45 57.52 C 23.14 56.75 26.10 56.57 26.00 54.11 C 24.61 51.35 21.23 50.75 18.90 49.04 C 13.57 45.07 7.50 42.09 2.99 37.09 C 3.02 26.05 2.99 15.00 3.00 3.96 Z" />
</g>
</svg>
