<?xml version="1.0" encoding="UTF-8" ?>
<!DOCTYPE svg PUBLIC "-//W3C//DTD SVG 1.1//EN" "http://www.w3.org/Graphics/SVG/1.1/DTD/svg11.dtd">
<svg width="100pt" height="100pt" viewBox="0 0 100 100" version="1.1" xmlns="http://www.w3.org/2000/svg">
<g id="#ffffffff">
<path fill="#ffffff" opacity="1.00" d=" M 0.00 0.00 L 100.00 0.00 L 100.00 100.00 L 0.00 100.00 L 0.00 0.00 M 44.65 2.60 C 44.65 18.30 44.64 34.01 44.65 49.71 C 34.57 51.45 25.99 59.74 24.47 69.94 C 22.39 81.08 29.23 93.14 39.97 96.88 C 49.50 100.57 61.21 97.61 67.61 89.58 C 74.35 81.65 75.09 69.33 69.27 60.68 C 65.50 54.59 58.88 50.74 51.88 49.63 C 51.88 33.95 51.88 18.27 51.88 2.60 C 49.47 2.60 47.06 2.60 44.65 2.60 Z" />
</g>
<g id="#000000ff">
<path fill="#000000" opacity="1.00" d=" M 44.65 2.60 C 47.06 2.60 49.47 2.60 51.88 2.60 C 51.88 18.27 51.88 33.95 51.88 49.63 C 58.88 50.74 65.50 54.59 69.27 60.68 C 75.09 69.33 74.35 81.65 67.61 89.58 C 61.21 97.61 49.50 100.57 39.97 96.88 C 29.23 93.14 22.39 81.08 24.47 69.94 C 25.99 59.74 34.57 51.45 44.65 49.71 C 44.64 34.01 44.65 18.30 44.65 2.60 Z" />
</g>
</svg>
