<?xml version="1.0" encoding="UTF-8" ?>
<!DOCTYPE svg PUBLIC "-//W3C//DTD SVG 1.1//EN" "http://www.w3.org/Graphics/SVG/1.1/DTD/svg11.dtd">
<svg width="100pt" height="100pt" viewBox="0 0 100 100" version="1.1" xmlns="http://www.w3.org/2000/svg">
<g id="#ffffffff">
<path fill="#ffffff" opacity="1.00" d=" M 0.00 0.00 L 100.00 0.00 L 100.00 100.00 L 0.00 100.00 L 0.00 0.00 M 86.17 8.01 C 86.17 9.47 86.18 10.93 86.18 12.40 C 80.37 12.41 74.57 12.39 68.76 12.41 C 68.76 14.07 68.77 15.74 68.77 17.40 C 74.57 17.41 80.38 17.38 86.18 17.41 C 86.17 20.47 86.17 23.53 86.18 26.59 C 80.24 26.60 74.30 26.60 68.36 26.59 C 68.36 28.26 68.36 29.93 68.35 31.60 C 74.29 31.60 80.23 31.59 86.18 31.61 C 86.18 37.14 86.18 42.67 86.17 48.20 C 80.04 48.20 73.90 48.20 67.77 48.20 C 67.77 49.86 67.77 51.53 67.76 53.20 C 73.90 53.20 80.03 53.20 86.17 53.20 C 86.18 58.46 86.18 63.73 86.17 69.00 C 80.17 69.00 74.17 69.00 68.18 69.00 C 68.18 70.67 68.18 72.33 68.18 74.00 C 74.18 74.00 80.17 74.00 86.17 74.00 C 86.18 77.07 86.18 80.13 86.17 83.19 C 80.31 83.21 74.45 83.20 68.59 83.20 C 68.59 84.86 68.59 86.53 68.59 88.19 C 74.45 88.21 80.31 88.19 86.17 88.21 C 86.17 89.94 86.18 91.67 86.18 93.40 C 87.85 93.40 89.51 93.40 91.18 93.40 C 91.17 64.93 91.18 36.47 91.18 8.00 C 89.51 8.00 87.84 8.01 86.17 8.01 Z" />
</g>
<g id="#000000ff">
<path fill="#000000" opacity="1.00" d=" M 86.17 8.01 C 87.84 8.01 89.51 8.00 91.18 8.00 C 91.18 36.47 91.17 64.93 91.18 93.40 C 89.51 93.40 87.85 93.40 86.18 93.40 C 86.18 91.67 86.17 89.94 86.17 88.21 C 80.31 88.19 74.45 88.21 68.59 88.19 C 68.59 86.53 68.59 84.86 68.59 83.20 C 74.45 83.20 80.31 83.21 86.17 83.19 C 86.18 80.13 86.18 77.07 86.17 74.00 C 80.17 74.00 74.18 74.00 68.18 74.00 C 68.18 72.33 68.18 70.67 68.18 69.00 C 74.17 69.00 80.17 69.00 86.17 69.00 C 86.18 63.73 86.18 58.46 86.17 53.20 C 80.03 53.20 73.90 53.20 67.76 53.20 C 67.77 51.53 67.77 49.86 67.77 48.20 C 73.90 48.20 80.04 48.20 86.17 48.20 C 86.18 42.67 86.18 37.14 86.18 31.61 C 80.23 31.59 74.29 31.60 68.35 31.60 C 68.36 29.93 68.36 28.26 68.36 26.59 C 74.30 26.60 80.24 26.60 86.18 26.59 C 86.17 23.53 86.17 20.47 86.18 17.41 C 80.38 17.38 74.57 17.41 68.77 17.40 C 68.77 15.74 68.76 14.07 68.76 12.41 C 74.57 12.39 80.37 12.41 86.18 12.40 C 86.18 10.93 86.17 9.47 86.17 8.01 Z" />
</g>
</svg>
