<?xml version="1.0" encoding="UTF-8" ?>
<!DOCTYPE svg PUBLIC "-//W3C//DTD SVG 1.1//EN" "http://www.w3.org/Graphics/SVG/1.1/DTD/svg11.dtd">
<svg width="100pt" height="100pt" viewBox="0 0 100 100" version="1.1" xmlns="http://www.w3.org/2000/svg">
<g id="#ffffffff">
<path fill="#ffffff" opacity="1.00" d=" M 0.00 0.00 L 100.00 0.00 L 100.00 100.00 L 0.00 100.00 L 0.00 0.00 M 86.18 8.00 C 86.10 10.47 86.22 12.95 86.26 15.43 C 78.68 15.37 71.11 15.41 63.53 15.41 C 63.53 17.07 63.53 18.73 63.52 20.40 C 71.00 20.39 78.47 20.43 85.95 20.37 C 86.43 27.11 86.02 33.86 86.23 40.61 C 78.80 40.59 71.37 40.60 63.94 40.60 C 63.95 42.27 63.95 43.93 63.94 45.60 C 71.29 45.59 78.63 45.62 85.98 45.59 C 86.40 51.53 86.01 57.48 86.26 63.43 C 78.88 63.37 71.49 63.41 64.11 63.41 C 64.12 65.07 64.12 66.73 64.12 68.39 C 71.40 68.40 78.67 68.42 85.95 68.37 C 86.35 73.51 86.10 78.66 86.20 83.80 C 78.90 83.80 71.59 83.79 64.29 83.81 C 64.29 85.47 64.29 87.13 64.29 88.80 C 71.51 88.80 78.74 88.80 85.96 88.80 C 86.04 90.33 86.13 91.87 86.25 93.41 C 87.89 93.40 89.53 93.40 91.18 93.40 C 91.18 64.93 91.17 36.47 91.18 8.00 C 89.51 8.01 87.85 8.01 86.18 8.00 Z" />
</g>
<g id="#000000ff">
<path fill="#000000" opacity="1.00" d=" M 86.18 8.00 C 87.85 8.01 89.51 8.01 91.18 8.00 C 91.17 36.47 91.18 64.93 91.18 93.40 C 89.53 93.40 87.89 93.40 86.25 93.41 C 86.13 91.87 86.04 90.33 85.96 88.80 C 78.74 88.80 71.51 88.80 64.29 88.80 C 64.29 87.13 64.29 85.47 64.29 83.81 C 71.59 83.79 78.90 83.80 86.20 83.80 C 86.10 78.66 86.35 73.51 85.95 68.37 C 78.67 68.42 71.40 68.40 64.12 68.39 C 64.12 66.73 64.12 65.07 64.11 63.41 C 71.49 63.41 78.88 63.37 86.26 63.43 C 86.01 57.48 86.40 51.53 85.98 45.59 C 78.63 45.62 71.29 45.59 63.94 45.60 C 63.95 43.93 63.95 42.27 63.94 40.60 C 71.37 40.60 78.80 40.59 86.23 40.61 C 86.02 33.86 86.43 27.11 85.95 20.37 C 78.47 20.43 71.00 20.39 63.52 20.40 C 63.53 18.73 63.53 17.07 63.53 15.41 C 71.11 15.41 78.68 15.37 86.26 15.43 C 86.22 12.95 86.10 10.47 86.18 8.00 Z" />
</g>
</svg>
