<?xml version="1.0" encoding="UTF-8" ?>
<!DOCTYPE svg PUBLIC "-//W3C//DTD SVG 1.1//EN" "http://www.w3.org/Graphics/SVG/1.1/DTD/svg11.dtd">
<svg width="100pt" height="100pt" viewBox="0 0 100 100" version="1.1" xmlns="http://www.w3.org/2000/svg">
<g id="#ffffffff">
<path fill="#ffffff" opacity="1.00" d=" M 0.00 0.00 L 100.00 0.00 L 100.00 100.00 L 0.00 100.00 L 0.00 0.00 M 17.38 8.29 C 17.38 36.26 17.30 64.24 17.42 92.21 C 39.77 92.18 62.11 92.22 84.46 92.19 C 84.60 64.29 84.48 36.38 84.52 8.47 C 80.45 8.50 76.38 8.50 72.31 8.49 C 72.22 32.21 72.47 55.94 72.15 79.66 C 57.94 79.58 43.72 79.69 29.51 79.61 C 29.57 55.83 29.54 32.06 29.53 8.28 C 25.48 8.37 21.43 8.37 17.38 8.29 Z" />
</g>
<g id="#000000ff">
<path fill="#000000" opacity="1.00" d=" M 17.38 8.29 C 21.43 8.37 25.48 8.37 29.53 8.28 C 29.54 32.06 29.57 55.83 29.51 79.61 C 43.72 79.69 57.94 79.58 72.15 79.66 C 72.47 55.94 72.22 32.21 72.31 8.49 C 76.38 8.50 80.45 8.50 84.52 8.47 C 84.48 36.38 84.60 64.29 84.46 92.19 C 62.11 92.22 39.77 92.18 17.42 92.21 C 17.30 64.24 17.38 36.26 17.38 8.29 Z" />
</g>
</svg>
