<?xml version="1.0" encoding="UTF-8" ?>
<!DOCTYPE svg PUBLIC "-//W3C//DTD SVG 1.1//EN" "http://www.w3.org/Graphics/SVG/1.1/DTD/svg11.dtd">
<svg width="100pt" height="100pt" viewBox="0 0 100 100" version="1.1" xmlns="http://www.w3.org/2000/svg">
<g id="#ffffffff">
<path fill="#ffffff" opacity="1.00" d=" M 0.00 0.00 L 48.25 0.00 C 41.43 6.93 34.18 13.52 27.76 20.82 C 26.96 19.62 26.04 18.50 25.10 17.40 L 24.68 17.47 C 21.06 13.26 16.77 9.68 13.08 5.52 L 12.22 5.48 L 12.57 4.76 C 10.93 3.55 9.43 2.17 7.99 0.73 C 5.31 3.22 2.89 6.00 0.00 8.26 L 0.00 0.00 Z" />
<path fill="#ffffff" opacity="1.00" d=" M 49.83 0.00 L 100.00 0.00 L 100.00 100.00 L 0.00 100.00 L 0.00 48.85 C 15.71 65.16 32.04 80.90 47.92 97.06 C 48.28 97.52 48.99 98.45 49.34 98.92 C 52.25 96.69 54.69 93.92 57.27 91.34 C 71.33 77.49 85.06 63.30 99.25 49.59 C 83.02 32.84 66.34 16.49 49.83 0.00 Z" />
<path fill="#ffffff" opacity="1.00" d=" M 0.00 9.46 C 1.46 9.42 2.52 10.64 3.52 11.55 C 9.05 17.04 14.37 22.75 20.16 27.96 C 19.73 28.38 18.86 29.21 18.43 29.63 L 18.48 30.15 C 17.55 30.88 16.56 31.49 15.48 31.98 L 16.32 33.36 L 14.45 32.40 L 15.29 34.28 L 14.04 33.65 C 13.47 34.52 12.87 35.37 12.24 36.20 C 11.47 36.80 10.73 37.42 10.01 38.07 C 6.79 41.53 3.38 44.80 0.00 48.10 L 0.00 9.46 Z" />
<path fill="#ffffff" opacity="1.00" d=" M 34.81 29.01 C 40.15 23.65 45.52 18.30 50.87 12.94 C 51.12 13.46 51.61 14.49 51.86 15.00 C 56.90 19.05 60.73 24.60 66.01 28.28 C 61.47 34.21 55.49 38.95 50.46 44.49 C 45.25 39.33 40.23 33.95 34.81 29.01 Z" />
<path fill="#ffffff" opacity="1.00" d=" M 29.43 34.28 C 29.65 34.60 30.11 35.24 30.34 35.56 C 32.70 38.24 35.48 40.50 37.82 43.20 C 40.02 45.45 42.55 47.45 44.53 49.86 C 40.00 55.60 34.19 60.26 29.28 65.70 C 24.76 61.27 20.50 56.54 15.73 52.39 C 15.13 51.52 14.48 50.71 13.77 49.94 C 19.07 44.80 24.30 39.59 29.43 34.28 Z" />
<path fill="#ffffff" opacity="1.00" d=" M 71.51 34.43 C 76.83 39.54 81.82 44.99 87.27 49.96 C 74.90 62.38 62.51 74.78 50.08 87.14 C 49.81 86.62 49.26 85.59 48.98 85.07 C 45.40 82.00 41.98 78.65 38.94 75.05 C 37.56 73.95 35.67 72.80 35.19 71.10 C 47.11 58.71 59.64 46.88 71.51 34.43 Z" />
</g>
<g id="#000000ff">
<path fill="#000000" opacity="1.00" d=" M 48.25 0.00 L 49.83 0.00 C 66.34 16.49 83.02 32.84 99.25 49.59 C 85.06 63.30 71.33 77.49 57.27 91.34 C 54.69 93.92 52.25 96.69 49.34 98.92 C 48.99 98.45 48.28 97.52 47.92 97.06 C 32.04 80.90 15.71 65.16 0.00 48.85 L 0.00 48.10 C 3.38 44.80 6.79 41.53 10.01 38.07 C 10.73 37.42 11.47 36.80 12.24 36.20 C 12.87 35.37 13.47 34.52 14.04 33.65 L 15.29 34.28 L 14.45 32.40 L 16.32 33.36 L 15.48 31.98 C 16.56 31.49 17.55 30.88 18.48 30.15 L 18.43 29.63 C 18.86 29.21 19.73 28.38 20.16 27.96 C 14.37 22.75 9.05 17.04 3.52 11.55 C 2.52 10.64 1.46 9.42 0.00 9.46 L 0.00 8.26 C 2.89 6.00 5.31 3.22 7.99 0.73 C 9.43 2.17 10.93 3.55 12.57 4.76 L 12.22 5.48 L 13.08 5.52 C 16.77 9.68 21.06 13.26 24.68 17.47 L 25.10 17.40 C 26.04 18.50 26.96 19.62 27.76 20.82 C 34.18 13.52 41.43 6.93 48.25 0.00 M 34.81 29.01 C 40.23 33.95 45.25 39.33 50.46 44.49 C 55.49 38.95 61.47 34.21 66.01 28.28 C 60.73 24.60 56.90 19.05 51.86 15.00 C 51.61 14.49 51.12 13.46 50.87 12.94 C 45.52 18.30 40.15 23.65 34.81 29.01 M 29.43 34.28 C 24.30 39.59 19.07 44.80 13.77 49.94 C 14.48 50.71 15.13 51.52 15.73 52.39 C 20.50 56.54 24.76 61.27 29.28 65.70 C 34.19 60.26 40.00 55.60 44.53 49.86 C 42.55 47.45 40.02 45.45 37.82 43.20 C 35.48 40.50 32.70 38.24 30.34 35.56 C 30.11 35.24 29.65 34.60 29.43 34.28 M 71.51 34.43 C 59.64 46.88 47.11 58.71 35.19 71.10 C 35.67 72.80 37.56 73.95 38.94 75.05 C 41.98 78.65 45.40 82.00 48.98 85.07 C 49.26 85.59 49.81 86.62 50.08 87.14 C 62.51 74.78 74.90 62.38 87.27 49.96 C 81.82 44.99 76.83 39.54 71.51 34.43 Z" />
</g>
</svg>
