<?xml version="1.0" encoding="UTF-8" ?>
<!DOCTYPE svg PUBLIC "-//W3C//DTD SVG 1.1//EN" "http://www.w3.org/Graphics/SVG/1.1/DTD/svg11.dtd">
<svg width="68pt" height="68pt" viewBox="0 0 68 68" version="1.1" xmlns="http://www.w3.org/2000/svg">
<g id="#000000ff">
<path fill="#000000" opacity="1.00" d=" M 0.00 0.00 L 68.00 0.00 L 68.00 68.00 L 0.00 68.00 L 0.00 0.00 M 8.32 8.32 C 8.57 25.43 8.58 42.57 8.31 59.68 C 25.53 59.33 42.76 59.62 59.99 59.54 C 60.01 42.51 60.00 25.49 59.99 8.46 C 42.77 8.38 25.53 8.67 8.32 8.32 Z" />
</g>
<g id="#ffffffff">
<path fill="#ffffff" opacity="1.00" d=" M 8.32 8.32 C 25.53 8.67 42.77 8.38 59.99 8.46 C 60.00 25.49 60.01 42.51 59.99 59.54 C 42.76 59.62 25.53 59.33 8.31 59.68 C 8.58 42.57 8.57 25.43 8.32 8.32 Z" />
</g>
</svg>
