<?xml version="1.0" encoding="UTF-8" ?>
<!DOCTYPE svg PUBLIC "-//W3C//DTD SVG 1.1//EN" "http://www.w3.org/Graphics/SVG/1.1/DTD/svg11.dtd">
<svg width="100pt" height="100pt" viewBox="0 0 100 100" version="1.1" xmlns="http://www.w3.org/2000/svg">
<g id="#ffffffff">
<path fill="#ffffff" opacity="1.00" d=" M 0.00 0.00 L 100.00 0.00 L 100.00 100.00 L 0.00 100.00 L 0.00 0.00 M 83.55 11.44 C 71.44 23.57 59.34 35.69 47.21 47.80 C 35.39 35.99 23.58 24.16 11.75 12.35 C 10.58 13.53 9.40 14.71 8.22 15.88 C 20.04 27.70 31.85 39.52 43.67 51.33 C 31.21 63.83 18.72 76.30 6.25 88.79 C 7.43 89.96 8.61 91.14 9.79 92.32 C 22.26 79.84 34.75 67.38 47.22 54.90 C 59.06 66.68 70.85 78.52 82.67 90.33 C 83.86 89.17 85.03 88.00 86.22 86.84 C 74.43 74.98 62.57 63.19 50.76 51.35 C 62.90 39.25 75.01 27.12 87.13 15.00 C 85.94 13.81 84.74 12.62 83.55 11.44 Z" />
</g>
<g id="#000000ff">
<path fill="#000000" opacity="1.00" d=" M 83.55 11.44 C 84.74 12.62 85.94 13.81 87.13 15.00 C 75.01 27.12 62.90 39.25 50.76 51.35 C 62.57 63.19 74.43 74.98 86.22 86.84 C 85.03 88.00 83.86 89.17 82.67 90.33 C 70.85 78.52 59.06 66.68 47.22 54.90 C 34.75 67.38 22.26 79.84 9.79 92.32 C 8.61 91.14 7.43 89.96 6.25 88.79 C 18.72 76.30 31.21 63.83 43.67 51.33 C 31.85 39.52 20.04 27.70 8.22 15.88 C 9.40 14.71 10.58 13.53 11.75 12.35 C 23.58 24.16 35.39 35.99 47.21 47.80 C 59.34 35.69 71.44 23.57 83.55 11.44 Z" />
</g>
</svg>
