<?xml version="1.0" encoding="UTF-8" ?>
<!DOCTYPE svg PUBLIC "-//W3C//DTD SVG 1.1//EN" "http://www.w3.org/Graphics/SVG/1.1/DTD/svg11.dtd">
<svg width="100pt" height="100pt" viewBox="0 0 100 100" version="1.1" xmlns="http://www.w3.org/2000/svg">
<g id="#ffffffff">
<path fill="#ffffff" opacity="1.00" d=" M 0.00 0.00 L 100.00 0.00 L 100.00 100.00 L 0.00 100.00 L 0.00 0.00 M 30.38 0.83 C 29.97 2.17 29.55 3.51 29.13 4.85 C 33.44 7.28 38.51 7.73 42.95 9.90 C 49.13 11.79 55.17 14.08 61.30 16.14 C 55.92 20.14 49.06 21.31 43.09 24.12 C 39.33 26.74 34.83 27.73 30.38 28.45 C 29.24 32.21 30.47 36.10 30.16 39.95 C 29.95 46.95 30.75 54.06 29.76 61.00 C 30.83 68.45 29.77 76.09 30.40 83.61 C 33.08 83.97 36.03 82.77 38.42 84.45 C 43.32 87.25 48.72 88.92 53.86 91.17 C 56.24 92.01 58.51 93.13 60.60 94.53 C 63.15 96.34 66.56 96.35 68.91 98.50 C 70.21 98.41 71.51 98.34 72.81 98.26 C 73.45 96.84 74.10 95.42 74.75 94.00 C 71.42 91.79 67.62 90.51 63.98 88.97 C 56.92 85.38 49.59 82.39 42.33 79.28 C 46.53 76.79 51.15 75.13 55.42 72.78 C 59.89 71.00 63.86 68.15 68.65 67.22 C 69.49 69.38 72.25 68.04 73.98 68.42 C 74.18 49.98 74.08 31.54 74.03 13.09 C 67.24 11.84 60.83 9.02 54.25 6.98 C 50.43 5.68 46.48 4.76 42.72 3.30 C 38.77 1.81 34.66 0.37 30.38 0.83 Z" />
<path fill="#ffffff" opacity="1.00" d=" M 35.54 33.95 C 46.52 29.50 57.64 25.40 68.57 20.81 C 68.94 34.03 68.40 47.28 68.65 60.51 C 57.67 65.81 46.86 71.49 35.79 76.62 C 35.15 62.42 35.64 48.17 35.54 33.95 M 46.57 47.78 C 45.70 50.13 46.18 52.55 47.79 54.44 C 49.38 54.69 51.07 55.29 52.60 54.45 C 56.00 52.99 55.66 47.07 51.92 46.31 C 49.97 45.42 48.15 46.81 46.57 47.78 Z" />
</g>
<g id="#000000ff">
<path fill="#000000" opacity="1.00" d=" M 30.38 0.83 C 34.66 0.37 38.77 1.81 42.72 3.30 C 46.48 4.76 50.43 5.68 54.25 6.98 C 60.83 9.02 67.24 11.84 74.03 13.09 C 74.08 31.54 74.18 49.98 73.98 68.42 C 72.25 68.04 69.49 69.38 68.65 67.22 C 63.86 68.15 59.89 71.00 55.42 72.78 C 51.15 75.13 46.53 76.79 42.33 79.28 C 49.59 82.39 56.92 85.38 63.98 88.97 C 67.62 90.51 71.42 91.79 74.75 94.00 C 74.10 95.42 73.45 96.84 72.81 98.26 C 71.51 98.34 70.21 98.41 68.91 98.50 C 66.56 96.35 63.15 96.34 60.60 94.53 C 58.51 93.13 56.24 92.01 53.86 91.17 C 48.72 88.92 43.32 87.25 38.42 84.45 C 36.03 82.77 33.08 83.97 30.40 83.61 C 29.77 76.09 30.83 68.45 29.76 61.00 C 30.75 54.06 29.95 46.95 30.16 39.95 C 30.47 36.10 29.24 32.21 30.38 28.45 C 34.83 27.73 39.33 26.74 43.09 24.12 C 49.06 21.31 55.92 20.14 61.30 16.14 C 55.17 14.08 49.13 11.79 42.95 9.90 C 38.51 7.73 33.44 7.28 29.13 4.85 C 29.55 3.51 29.97 2.17 30.38 0.83 M 35.54 33.95 C 35.64 48.17 35.15 62.42 35.79 76.62 C 46.86 71.49 57.67 65.81 68.65 60.51 C 68.40 47.28 68.94 34.03 68.57 20.81 C 57.64 25.40 46.52 29.50 35.54 33.95 Z" />
<path fill="#000000" opacity="1.00" d=" M 46.57 47.78 C 48.15 46.81 49.97 45.42 51.92 46.31 C 55.66 47.07 56.00 52.99 52.60 54.45 C 51.07 55.29 49.38 54.69 47.79 54.44 C 46.18 52.55 45.70 50.13 46.57 47.78 Z" />
</g>
</svg>
