<?xml version="1.0" encoding="UTF-8" ?>
<!DOCTYPE svg PUBLIC "-//W3C//DTD SVG 1.1//EN" "http://www.w3.org/Graphics/SVG/1.1/DTD/svg11.dtd">
<svg width="100pt" height="100pt" viewBox="0 0 100 100" version="1.1" xmlns="http://www.w3.org/2000/svg">
<g id="#ffffffff">
<path fill="#ffffff" opacity="1.00" d=" M 0.00 0.00 L 100.00 0.00 L 100.00 100.00 L 0.00 100.00 L 0.00 0.00 M 15.48 91.54 C 19.55 91.49 23.62 91.51 27.69 91.51 C 27.78 67.78 27.53 44.05 27.85 20.33 C 42.06 20.44 56.28 20.30 70.49 20.40 C 70.44 44.18 70.46 67.95 70.47 91.73 C 74.52 91.62 78.57 91.63 82.62 91.72 C 82.61 63.74 82.72 35.76 82.56 7.78 C 60.23 7.82 37.89 7.77 15.55 7.81 C 15.39 35.72 15.53 63.63 15.48 91.54 Z" />
</g>
<g id="#000000ff">
<path fill="#000000" opacity="1.00" d=" M 15.48 91.54 C 15.53 63.63 15.39 35.72 15.55 7.81 C 37.89 7.77 60.23 7.82 82.56 7.78 C 82.72 35.76 82.61 63.74 82.62 91.72 C 78.57 91.63 74.52 91.62 70.47 91.73 C 70.46 67.95 70.44 44.18 70.49 20.40 C 56.28 20.30 42.06 20.44 27.85 20.33 C 27.53 44.05 27.78 67.78 27.69 91.51 C 23.62 91.51 19.55 91.49 15.48 91.54 Z" />
</g>
</svg>
