<?xml version="1.0" encoding="UTF-8" ?>
<!DOCTYPE svg PUBLIC "-//W3C//DTD SVG 1.1//EN" "http://www.w3.org/Graphics/SVG/1.1/DTD/svg11.dtd">
<svg width="68pt" height="68pt" viewBox="0 0 68 68" version="1.1" xmlns="http://www.w3.org/2000/svg">
<g id="#ffffffff">
<path fill="#ffffff" opacity="1.00" d=" M 0.00 0.00 L 1.00 0.00 C 1.01 18.90 0.98 37.79 1.01 56.69 C 17.12 56.60 33.23 56.86 49.34 56.55 C 51.93 58.61 54.16 61.07 56.47 63.43 C 58.19 65.40 60.84 66.11 62.63 68.00 L 0.00 68.00 L 0.00 0.00 Z" />
<path fill="#ffffff" opacity="1.00" d=" M 56.69 0.00 L 68.00 0.00 L 68.00 63.23 C 67.41 62.97 66.22 62.45 65.63 62.19 C 64.37 61.09 63.09 60.00 61.64 59.16 C 59.99 58.12 58.54 56.66 56.54 56.37 C 56.88 37.58 56.59 18.79 56.69 0.00 Z" />
<path fill="#ffffff" opacity="1.00" d=" M 6.38 6.46 C 20.76 6.64 35.16 6.61 49.55 6.47 C 49.23 20.80 49.24 35.16 49.54 49.50 C 35.17 49.24 20.77 49.31 6.39 49.46 C 6.66 35.13 6.68 20.79 6.38 6.46 Z" />
</g>
<g id="#000000ff">
<path fill="#000000" opacity="1.00" d=" M 1.00 0.00 L 56.69 0.00 C 56.59 18.79 56.88 37.58 56.54 56.37 C 58.54 56.66 59.99 58.12 61.64 59.16 C 63.09 60.00 64.37 61.09 65.63 62.19 C 66.22 62.45 67.41 62.97 68.00 63.23 L 68.00 68.00 L 62.63 68.00 C 60.84 66.11 58.19 65.40 56.47 63.43 C 54.16 61.07 51.93 58.61 49.34 56.55 C 33.23 56.86 17.12 56.60 1.01 56.69 C 0.98 37.79 1.01 18.90 1.00 0.00 M 6.38 6.46 C 6.68 20.79 6.66 35.13 6.39 49.46 C 20.77 49.31 35.17 49.24 49.54 49.50 C 49.24 35.16 49.23 20.80 49.55 6.47 C 35.16 6.61 20.76 6.64 6.38 6.46 Z" />
</g>
</svg>
