<?xml version="1.0" encoding="UTF-8" ?>
<!DOCTYPE svg PUBLIC "-//W3C//DTD SVG 1.1//EN" "http://www.w3.org/Graphics/SVG/1.1/DTD/svg11.dtd">
<svg width="100pt" height="100pt" viewBox="0 0 100 100" version="1.1" xmlns="http://www.w3.org/2000/svg">
<g id="#ffffffff">
<path fill="#ffffff" opacity="1.00" d=" M 0.00 0.00 L 87.97 0.00 C 87.97 7.35 87.95 14.70 87.99 22.04 C 88.40 25.16 84.77 26.06 82.88 27.73 C 76.26 30.93 70.54 35.78 63.86 38.84 C 56.25 39.23 48.61 38.88 40.99 39.01 C 40.89 42.67 40.93 46.33 41.02 50.00 C 49.03 50.11 57.05 49.78 65.05 50.17 C 67.00 52.90 70.15 54.45 72.01 57.25 C 76.17 59.08 80.30 61.39 83.26 64.93 C 85.47 66.57 87.04 69.15 87.00 71.95 C 87.01 79.97 86.99 87.98 87.00 95.99 C 90.33 96.05 93.66 96.08 96.99 96.03 C 97.00 85.00 97.01 73.98 96.99 62.96 C 92.24 57.49 85.60 54.60 80.02 50.16 C 77.61 49.32 75.45 47.96 73.78 46.00 C 74.13 43.46 76.94 43.02 78.94 42.34 C 81.95 41.80 84.14 39.52 86.50 37.77 C 90.14 35.45 93.60 32.86 96.99 30.21 C 97.01 20.14 96.99 10.07 97.00 0.00 L 100.00 0.00 L 100.00 100.00 L 0.00 100.00 L 0.00 0.00 Z" />
</g>
<g id="#000000ff">
<path fill="#000000" opacity="1.00" d=" M 87.97 0.00 L 97.00 0.00 C 96.99 10.07 97.01 20.14 96.99 30.21 C 93.60 32.86 90.14 35.45 86.50 37.77 C 84.14 39.52 81.95 41.80 78.94 42.34 C 76.94 43.02 74.13 43.46 73.78 46.00 C 75.45 47.96 77.61 49.32 80.02 50.16 C 85.60 54.60 92.24 57.49 96.99 62.96 C 97.01 73.98 97.00 85.00 96.99 96.03 C 93.66 96.08 90.33 96.05 87.00 95.99 C 86.99 87.98 87.01 79.97 87.00 71.95 C 87.04 69.15 85.47 66.57 83.26 64.93 C 80.30 61.39 76.17 59.08 72.01 57.25 C 70.15 54.45 67.00 52.90 65.05 50.17 C 57.05 49.78 49.03 50.11 41.02 50.00 C 40.93 46.33 40.89 42.67 40.99 39.01 C 48.61 38.88 56.25 39.23 63.86 38.84 C 70.54 35.78 76.26 30.93 82.88 27.73 C 84.77 26.06 88.40 25.16 87.99 22.04 C 87.95 14.70 87.97 7.35 87.97 0.00 Z" />
</g>
</svg>
