<?xml version="1.0" encoding="UTF-8" ?>
<!DOCTYPE svg PUBLIC "-//W3C//DTD SVG 1.1//EN" "http://www.w3.org/Graphics/SVG/1.1/DTD/svg11.dtd">
<svg width="96pt" height="100pt" viewBox="0 0 96 100" version="1.1" xmlns="http://www.w3.org/2000/svg">
<g id="#000000ff">
<path fill="#000000" opacity="1.00" d=" M 0.00 0.00 L 4.77 0.00 C 4.83 31.44 4.54 62.89 4.92 94.33 C 10.12 89.73 14.85 84.66 19.78 79.78 C 41.16 58.55 62.29 37.08 83.78 15.97 C 84.91 17.07 86.04 18.17 87.17 19.26 C 85.41 21.14 83.66 23.02 81.87 24.86 C 56.71 49.86 31.74 75.05 6.54 100.00 L 0.00 100.00 L 0.00 0.00 Z" />
<path fill="#000000" opacity="1.00" d=" M 86.81 0.00 L 96.00 0.00 L 96.00 100.00 L 90.83 100.00 C 90.73 67.90 90.94 35.79 90.72 3.69 C 85.61 8.25 80.91 13.23 76.05 18.05 C 53.68 40.35 31.41 62.76 8.99 85.01 C 7.86 83.91 6.73 82.80 5.60 81.70 C 9.06 77.80 12.70 74.07 16.48 70.47 C 39.89 46.95 63.49 23.62 86.81 0.00 Z" />
</g>
<g id="#ffffffff">
<path fill="#ffffff" opacity="1.00" d=" M 4.77 0.00 L 86.81 0.00 C 63.49 23.62 39.89 46.95 16.48 70.47 C 12.70 74.07 9.06 77.80 5.60 81.70 C 6.73 82.80 7.86 83.91 8.99 85.01 C 31.41 62.76 53.68 40.35 76.05 18.05 C 80.91 13.23 85.61 8.25 90.72 3.69 C 90.94 35.79 90.73 67.90 90.83 100.00 L 6.54 100.00 C 31.74 75.05 56.71 49.86 81.87 24.86 C 83.66 23.02 85.41 21.14 87.17 19.26 C 86.04 18.17 84.91 17.07 83.78 15.97 C 62.29 37.08 41.16 58.55 19.78 79.78 C 14.85 84.66 10.12 89.73 4.92 94.33 C 4.54 62.89 4.83 31.44 4.77 0.00 Z" />
</g>
</svg>
