<?xml version="1.0" encoding="UTF-8" ?>
<!DOCTYPE svg PUBLIC "-//W3C//DTD SVG 1.1//EN" "http://www.w3.org/Graphics/SVG/1.1/DTD/svg11.dtd">
<svg width="93pt" height="91pt" viewBox="0 0 93 91" version="1.1" xmlns="http://www.w3.org/2000/svg">
<g id="#ffffffff">
<path fill="#ffffff" opacity="1.00" d=" M 0.00 0.00 L 88.39 0.00 C 65.76 22.83 42.94 45.48 20.24 68.24 C 15.23 73.09 10.55 78.30 5.30 82.90 C 5.27 60.94 5.32 38.97 5.30 17.00 C 5.24 11.70 5.63 6.38 5.02 1.10 C 3.35 0.89 1.67 0.83 0.00 0.77 L 0.00 0.00 Z" />
<path fill="#ffffff" opacity="1.00" d=" M 73.27 22.26 C 78.07 17.59 82.59 12.62 87.62 8.17 C 87.51 35.78 87.48 63.39 87.62 91.00 L 4.58 91.00 C 27.44 68.05 50.38 45.18 73.27 22.26 Z" />
</g>
<g id="#000000ff">
<path fill="#000000" opacity="1.00" d=" M 88.39 0.00 L 93.00 0.00 L 93.00 91.00 L 87.62 91.00 C 87.48 63.39 87.51 35.78 87.62 8.17 C 82.59 12.62 78.07 17.59 73.27 22.26 C 50.38 45.18 27.44 68.05 4.58 91.00 L 0.00 91.00 L 0.00 0.77 C 1.67 0.83 3.35 0.89 5.02 1.10 C 5.63 6.38 5.24 11.70 5.30 17.00 C 5.32 38.97 5.27 60.94 5.30 82.90 C 10.55 78.30 15.23 73.09 20.24 68.24 C 42.94 45.48 65.76 22.83 88.39 0.00 Z" />
</g>
</svg>
