<?xml version="1.0" encoding="UTF-8" ?>
<!DOCTYPE svg PUBLIC "-//W3C//DTD SVG 1.1//EN" "http://www.w3.org/Graphics/SVG/1.1/DTD/svg11.dtd">
<svg width="100pt" height="80pt" viewBox="0 0 100 80" version="1.1" xmlns="http://www.w3.org/2000/svg">
<g id="#ffffffff">
<path fill="#ffffff" opacity="1.00" d=" M 0.00 0.00 L 71.73 0.00 C 65.94 6.23 59.72 12.04 53.86 18.19 C 54.83 19.52 55.84 20.82 56.88 22.09 C 63.33 15.94 69.65 9.65 75.79 3.20 C 75.18 2.13 74.58 1.07 73.98 0.00 L 100.00 0.00 L 100.00 2.76 C 89.22 13.84 78.35 24.87 67.15 35.53 C 55.02 24.23 43.83 11.96 31.81 0.54 C 30.66 1.64 29.52 2.75 28.39 3.86 C 39.78 15.91 51.94 27.22 63.39 39.22 C 58.52 45.04 52.63 49.88 47.51 55.47 C 40.70 62.70 33.27 69.33 26.64 76.73 C 27.42 77.82 28.20 78.91 28.97 80.00 L 0.00 80.00 L 0.00 79.20 C 11.99 67.09 24.02 55.01 36.18 43.07 C 39.64 46.26 42.95 49.61 46.31 52.91 C 47.46 51.73 48.59 50.53 49.72 49.33 C 46.40 46.03 43.05 42.75 39.94 39.24 C 43.32 35.83 46.74 32.46 50.02 28.95 C 48.74 27.92 47.44 26.91 46.14 25.91 C 42.84 29.15 39.57 32.43 36.16 35.55 C 29.12 29.02 22.56 22.01 15.70 15.30 C 10.51 10.32 5.87 4.72 0.00 0.50 L 0.00 0.00 Z" />
<path fill="#ffffff" opacity="1.00" d=" M 0.00 6.57 C 10.62 17.62 21.77 28.16 32.40 39.22 C 21.99 50.62 10.56 61.04 0.00 72.29 L 0.00 6.57 Z" />
<path fill="#ffffff" opacity="1.00" d=" M 70.97 39.24 C 80.56 29.50 90.23 19.84 100.00 10.29 L 100.00 68.59 C 90.41 58.72 80.27 49.38 70.97 39.24 Z" />
<path fill="#ffffff" opacity="1.00" d=" M 67.17 43.09 C 78.36 53.66 88.92 64.89 100.00 75.57 L 100.00 80.00 L 30.37 80.00 C 38.26 71.70 46.38 63.61 54.71 55.75 C 58.78 51.45 62.79 47.08 67.17 43.09 M 53.85 60.51 C 59.29 65.97 64.70 71.47 70.20 76.87 C 71.91 79.23 73.78 76.12 75.15 75.03 C 69.31 68.73 63.26 62.58 56.88 56.83 C 55.82 58.02 54.80 59.24 53.85 60.51 Z" />
</g>
<g id="#000000ff">
<path fill="#000000" opacity="1.00" d=" M 71.73 0.00 L 73.98 0.00 C 74.58 1.07 75.18 2.13 75.79 3.20 C 69.65 9.65 63.33 15.94 56.88 22.09 C 55.84 20.82 54.83 19.52 53.86 18.19 C 59.72 12.04 65.94 6.23 71.73 0.00 Z" />
<path fill="#000000" opacity="1.00" d=" M 0.00 0.50 C 5.87 4.72 10.51 10.32 15.70 15.30 C 22.56 22.01 29.12 29.02 36.16 35.55 C 39.57 32.43 42.84 29.15 46.14 25.91 C 47.44 26.91 48.74 27.92 50.02 28.95 C 46.74 32.46 43.32 35.83 39.94 39.24 C 43.05 42.75 46.40 46.03 49.72 49.33 C 48.59 50.53 47.46 51.73 46.31 52.91 C 42.95 49.61 39.64 46.26 36.18 43.07 C 24.02 55.01 11.99 67.09 0.00 79.20 L 0.00 72.29 C 10.56 61.04 21.99 50.62 32.40 39.22 C 21.77 28.16 10.62 17.62 0.00 6.57 L 0.00 0.50 Z" />
<path fill="#000000" opacity="1.00" d=" M 28.39 3.86 C 29.52 2.75 30.66 1.64 31.81 0.54 C 43.83 11.96 55.02 24.23 67.15 35.53 C 78.35 24.87 89.22 13.84 100.00 2.76 L 100.00 10.29 C 90.23 19.84 80.56 29.50 70.97 39.24 C 80.27 49.38 90.41 58.72 100.00 68.59 L 100.00 75.57 C 88.92 64.89 78.36 53.66 67.17 43.09 C 62.79 47.08 58.78 51.45 54.71 55.75 C 46.38 63.61 38.26 71.70 30.37 80.00 L 28.97 80.00 C 28.20 78.91 27.42 77.82 26.64 76.73 C 33.27 69.33 40.70 62.70 47.51 55.47 C 52.63 49.88 58.52 45.04 63.39 39.22 C 51.94 27.22 39.78 15.91 28.39 3.86 Z" />
<path fill="#000000" opacity="1.00" d=" M 53.85 60.51 C 54.80 59.24 55.82 58.02 56.88 56.83 C 63.26 62.58 69.31 68.73 75.15 75.03 C 73.78 76.12 71.91 79.23 70.20 76.87 C 64.70 71.47 59.29 65.97 53.85 60.51 Z" />
</g>
</svg>
