<?xml version="1.0" encoding="UTF-8" ?>
<!DOCTYPE svg PUBLIC "-//W3C//DTD SVG 1.1//EN" "http://www.w3.org/Graphics/SVG/1.1/DTD/svg11.dtd">
<svg width="81pt" height="82pt" viewBox="0 0 81 82" version="1.1" xmlns="http://www.w3.org/2000/svg">
<g id="#ffffffff">
<path fill="#ffffff" opacity="1.00" d=" M 0.00 0.00 L 81.00 0.00 L 81.00 3.12 C 79.72 2.35 78.45 1.55 77.17 0.77 C 65.24 12.82 53.27 24.83 41.20 36.74 C 29.36 25.01 17.61 13.19 5.83 1.41 C 4.63 2.56 3.44 3.73 2.27 4.91 C 14.00 16.75 25.83 28.49 37.60 40.29 C 25.29 52.93 12.65 65.24 0.29 77.82 C 1.48 78.97 2.68 80.12 3.89 81.26 C 16.27 68.76 28.78 56.39 41.19 43.92 C 53.01 55.65 64.78 67.43 76.51 79.24 C 77.74 78.12 79.02 77.07 80.24 75.95 C 68.56 63.94 56.49 52.31 44.82 40.29 C 56.90 28.32 68.79 16.16 81.00 4.31 L 81.00 82.00 L 0.00 82.00 L 0.00 0.00 Z" />
</g>
<g id="#000000ff">
<path fill="#000000" opacity="1.00" d=" M 41.20 36.74 C 53.27 24.83 65.24 12.82 77.17 0.77 C 78.45 1.55 79.72 2.35 81.00 3.12 L 81.00 4.31 C 68.79 16.16 56.90 28.32 44.82 40.29 C 56.49 52.31 68.56 63.94 80.24 75.95 C 79.02 77.07 77.74 78.12 76.51 79.24 C 64.78 67.43 53.01 55.65 41.19 43.92 C 28.78 56.39 16.27 68.76 3.89 81.26 C 2.68 80.12 1.48 78.97 0.29 77.82 C 12.65 65.24 25.29 52.93 37.60 40.29 C 25.83 28.49 14.00 16.75 2.27 4.91 C 3.44 3.73 4.63 2.56 5.83 1.41 C 17.61 13.19 29.36 25.01 41.20 36.74 Z" />
</g>
</svg>
