<?xml version="1.0" encoding="UTF-8" ?>
<!DOCTYPE svg PUBLIC "-//W3C//DTD SVG 1.1//EN" "http://www.w3.org/Graphics/SVG/1.1/DTD/svg11.dtd">
<svg width="90pt" height="90pt" viewBox="0 0 90 90" version="1.1" xmlns="http://www.w3.org/2000/svg">
<g id="#000000ff">
<path fill="#000000" opacity="1.00" d=" M 0.00 0.00 L 5.55 0.00 C 16.83 24.37 28.91 48.36 40.42 72.61 C 41.97 75.81 43.41 79.06 45.20 82.13 C 46.29 80.51 47.28 78.82 48.07 77.03 C 60.05 51.28 72.69 25.83 84.50 0.00 L 90.00 0.00 L 90.00 1.51 C 87.33 5.55 85.49 10.04 83.38 14.37 C 72.86 36.50 62.34 58.63 51.79 80.75 C 50.47 83.45 49.54 86.39 47.66 88.77 C 46.41 89.30 45.10 89.65 43.80 90.00 L 43.11 90.00 C 32.35 66.88 20.94 44.05 9.96 21.03 C 6.61 14.53 3.95 7.66 0.00 1.49 L 0.00 0.00 Z" />
</g>
<g id="#ffffffff">
</g>
</svg>
