<?xml version="1.0" encoding="UTF-8" ?>
<!DOCTYPE svg PUBLIC "-//W3C//DTD SVG 1.1//EN" "http://www.w3.org/Graphics/SVG/1.1/DTD/svg11.dtd">
<svg width="90pt" height="89pt" viewBox="0 0 90 89" version="1.1" xmlns="http://www.w3.org/2000/svg">
<g id="#ffffffff">
</g>
<g id="#000000ff">
<path fill="#000000" opacity="1.00" d=" M 42.17 0.00 L 46.96 0.00 C 59.14 24.03 70.45 48.49 82.33 72.67 C 84.77 77.69 87.01 82.82 90.00 87.55 L 90.00 89.00 L 84.50 89.00 C 72.81 64.00 60.46 39.31 48.63 14.37 C 47.42 11.83 46.21 9.28 44.77 6.86 C 43.07 9.56 41.63 12.43 40.35 15.35 C 28.81 39.95 16.84 64.34 5.44 89.00 L 0.00 89.00 L 0.00 87.52 C 2.82 82.99 4.98 78.10 7.26 73.28 C 18.91 48.86 30.45 24.39 42.17 0.00 Z" />
</g>
</svg>
