<?xml version="1.0" encoding="UTF-8" ?>
<!DOCTYPE svg PUBLIC "-//W3C//DTD SVG 1.1//EN" "http://www.w3.org/Graphics/SVG/1.1/DTD/svg11.dtd">
<svg width="90pt" height="90pt" viewBox="0 0 90 90" version="1.1" xmlns="http://www.w3.org/2000/svg">
<g id="#ffffffff">
</g>
<g id="#000000ff">
<path fill="#000000" opacity="1.00" d=" M 35.78 0.00 L 54.25 0.00 C 62.75 2.43 71.07 6.28 77.28 12.72 C 83.72 18.94 87.58 27.26 90.00 35.77 L 90.00 54.24 C 87.57 62.74 83.72 71.06 77.28 77.28 C 71.06 83.72 62.74 87.58 54.23 90.00 L 35.76 90.00 C 27.26 87.57 18.94 83.72 12.72 77.29 C 6.28 71.06 2.42 62.74 0.00 54.23 L 0.00 35.76 C 2.43 27.25 6.28 18.94 12.71 12.72 C 18.93 6.27 27.27 2.43 35.78 0.00 M 37.38 10.60 C 23.71 13.49 12.46 25.15 10.29 38.99 C 6.88 55.74 17.79 73.89 34.12 78.83 C 48.84 83.88 66.30 77.84 74.71 64.74 C 82.19 53.85 82.55 38.59 75.69 27.33 C 68.32 14.22 51.96 7.24 37.38 10.60 Z" />
</g>
</svg>
