<?xml version="1.0" encoding="UTF-8" ?>
<!DOCTYPE svg PUBLIC "-//W3C//DTD SVG 1.1//EN" "http://www.w3.org/Graphics/SVG/1.1/DTD/svg11.dtd">
<svg width="100pt" height="100pt" viewBox="0 0 100 100" version="1.1" xmlns="http://www.w3.org/2000/svg">
<g id="#ffffffff">
</g>
<g id="#000000ff">
<path fill="#000000" opacity="1.00" d=" M 86.17 8.00 C 87.84 8.00 89.51 8.00 91.18 8.00 C 91.18 36.47 91.18 64.93 91.17 93.40 C 89.51 93.40 87.84 93.40 86.18 93.40 C 86.17 89.66 86.18 85.93 86.18 82.20 C 78.31 82.19 70.45 82.21 62.59 82.19 C 62.59 80.53 62.59 78.86 62.59 77.20 C 70.45 77.20 78.31 77.20 86.18 77.20 C 86.18 69.60 86.18 62.01 86.17 54.41 C 78.51 54.38 70.84 54.41 63.18 54.40 C 63.18 52.73 63.18 51.06 63.18 49.40 C 70.84 49.40 78.51 49.41 86.18 49.40 C 86.18 41.26 86.18 33.13 86.18 25.00 C 78.68 24.99 71.19 25.01 63.70 25.00 C 63.71 23.33 63.71 21.67 63.71 20.00 C 71.20 19.99 78.69 20.01 86.17 20.00 C 86.18 16.00 86.18 12.00 86.17 8.00 Z" />
</g>
</svg>
