<?xml version="1.0" encoding="UTF-8" ?>
<!DOCTYPE svg PUBLIC "-//W3C//DTD SVG 1.1//EN" "http://www.w3.org/Graphics/SVG/1.1/DTD/svg11.dtd">
<svg width="89pt" height="89pt" viewBox="0 0 89 89" version="1.1" xmlns="http://www.w3.org/2000/svg">
<g id="#ffffffff">
</g>
<g id="#000000ff">
<path fill="#000000" opacity="1.00" d=" M 0.80 0.00 L 55.41 0.00 C 64.37 1.05 73.57 4.48 79.33 11.73 C 82.95 15.84 83.88 21.38 85.69 26.37 C 87.22 30.65 88.37 35.07 89.00 39.57 L 89.00 88.17 C 84.08 88.48 79.09 88.88 74.20 88.10 C 73.69 77.41 74.16 66.69 73.99 56.00 C 73.82 50.08 74.76 44.07 73.42 38.25 C 70.96 30.49 67.03 22.34 59.21 18.79 C 47.41 13.74 34.40 16.48 22.00 16.00 C 15.42 15.75 8.65 16.74 2.21 15.07 C 1.85 14.80 1.13 14.28 0.77 14.01 C 0.20 9.36 0.53 4.66 0.80 0.00 Z" />
</g>
</svg>
