<?xml version="1.0" encoding="UTF-8" ?>
<!DOCTYPE svg PUBLIC "-//W3C//DTD SVG 1.1//EN" "http://www.w3.org/Graphics/SVG/1.1/DTD/svg11.dtd">
<svg width="100pt" height="100pt" viewBox="0 0 100 100" version="1.1" xmlns="http://www.w3.org/2000/svg">
<g id="#ffffffff">
</g>
<g id="#000000ff">
<path fill="#000000" opacity="1.00" d=" M 71.98 9.86 C 73.04 8.38 73.92 6.63 75.68 5.87 C 77.31 7.27 79.03 8.55 80.74 9.84 C 71.20 22.15 62.15 34.84 52.53 47.08 C 57.08 52.28 60.51 58.90 59.85 66.00 C 59.46 78.06 49.11 88.51 37.11 89.25 C 31.22 89.72 25.53 87.47 20.71 84.26 C 15.13 79.88 11.20 73.23 11.05 66.04 C 10.52 57.70 14.66 49.56 21.37 44.69 C 26.11 41.54 31.85 40.17 37.51 40.45 C 40.83 40.66 43.84 42.15 47.00 43.04 C 55.37 32.02 63.58 20.86 71.98 9.86 Z" />
</g>
</svg>
