<?xml version="1.0" encoding="UTF-8" ?>
<!DOCTYPE svg PUBLIC "-//W3C//DTD SVG 1.1//EN" "http://www.w3.org/Graphics/SVG/1.1/DTD/svg11.dtd">
<svg width="68pt" height="68pt" viewBox="0 0 68 68" version="1.1" xmlns="http://www.w3.org/2000/svg">
<g id="#ffffffff">
</g>
<g id="#000000ff">
<path fill="#000000" opacity="1.00" d=" M 11.31 0.00 L 67.00 0.00 C 66.99 18.90 67.01 37.79 66.99 56.69 C 50.88 56.59 34.75 56.87 18.64 56.54 C 14.22 60.40 10.48 65.01 5.34 68.00 L 0.00 68.00 L 0.00 63.28 C 0.58 62.99 1.75 62.41 2.33 62.12 C 3.65 61.11 4.99 60.12 6.32 59.11 C 7.85 57.89 9.66 57.12 11.39 56.21 C 11.22 37.48 11.36 18.74 11.31 0.00 M 18.46 6.49 C 18.76 20.80 18.76 35.14 18.46 49.46 C 32.84 49.28 47.23 49.32 61.61 49.44 C 61.33 35.12 61.33 20.79 61.61 6.48 C 47.23 6.62 32.84 6.60 18.46 6.49 Z" />
</g>
</svg>
