<?xml version="1.0" encoding="UTF-8" ?>
<!DOCTYPE svg PUBLIC "-//W3C//DTD SVG 1.1//EN" "http://www.w3.org/Graphics/SVG/1.1/DTD/svg11.dtd">
<svg width="100pt" height="100pt" viewBox="0 0 100 100" version="1.1" xmlns="http://www.w3.org/2000/svg">
<g id="#ffffffff">
</g>
<g id="#000000ff">
<path fill="#000000" opacity="1.00" d=" M 7.01 4.39 C 11.94 4.36 16.87 4.51 21.79 4.28 C 22.25 15.20 21.88 26.13 22.00 37.05 C 22.22 44.82 20.56 53.22 24.81 60.26 C 26.95 66.20 31.01 71.57 36.87 74.23 C 44.50 77.26 52.84 78.03 60.97 77.10 C 72.21 77.12 83.51 76.51 94.72 77.51 C 94.93 77.71 95.35 78.13 95.56 78.34 C 95.72 83.22 95.53 88.11 95.61 92.99 C 81.73 93.01 67.86 92.99 53.99 93.00 C 47.95 92.95 41.85 93.31 35.88 92.18 C 26.18 89.99 16.02 84.42 12.71 74.44 C 10.99 67.96 8.19 61.76 7.26 55.08 C 6.55 47.10 7.33 39.09 7.28 31.09 C 6.80 22.20 7.06 13.29 7.01 4.39 Z" />
</g>
</svg>
