<?xml version="1.0" encoding="UTF-8" ?>
<!DOCTYPE svg PUBLIC "-//W3C//DTD SVG 1.1//EN" "http://www.w3.org/Graphics/SVG/1.1/DTD/svg11.dtd">
<svg width="100pt" height="100pt" viewBox="0 0 100 100" version="1.1" xmlns="http://www.w3.org/2000/svg">
<g id="#000000ff">
<path fill="#000000" opacity="1.00" d=" M 0.00 0.00 L 7.18 0.00 C 13.54 6.35 19.91 12.69 26.25 19.06 C 25.10 20.27 23.92 21.43 22.71 22.58 C 16.75 16.64 10.82 10.65 4.83 4.73 C 4.80 10.66 4.84 16.58 4.81 22.50 L 6.19 21.49 C 12.57 27.91 19.00 34.29 25.39 40.71 C 24.24 41.91 23.09 43.11 21.87 44.24 C 16.14 38.61 10.53 32.87 4.82 27.23 C 4.80 32.71 4.88 38.19 4.77 43.67 C 5.19 43.72 6.01 43.82 6.43 43.87 C 12.68 50.18 19.01 56.41 25.26 62.72 C 24.10 63.91 22.93 65.09 21.73 66.24 C 16.04 60.68 10.49 54.98 4.83 49.39 C 4.81 54.75 4.83 60.12 4.82 65.48 C 5.24 65.11 6.08 64.35 6.49 63.98 C 12.67 70.19 18.87 76.37 25.07 82.56 C 23.92 83.78 22.78 85.03 21.47 86.08 C 15.95 80.49 10.38 74.96 4.83 69.41 C 4.83 74.48 4.79 79.56 4.85 84.63 C 9.11 88.99 13.48 93.23 17.77 97.57 C 17.16 98.18 15.93 99.39 15.32 100.00 L 13.14 100.00 C 10.56 97.41 7.93 94.87 5.42 92.21 C 3.61 92.13 1.81 92.24 0.00 92.20 L 0.00 0.00 Z" />
</g>
<g id="#ffffffff">
</g>
</svg>
