<?xml version="1.0" encoding="UTF-8" ?>
<!DOCTYPE svg PUBLIC "-//W3C//DTD SVG 1.1//EN" "http://www.w3.org/Graphics/SVG/1.1/DTD/svg11.dtd">
<svg width="100pt" height="100pt" viewBox="0 0 100 100" version="1.1" xmlns="http://www.w3.org/2000/svg">
<g id="#ffffffff">
</g>
<g id="#000000ff">
<path fill="#000000" opacity="1.00" d=" M 2.58 2.50 C 3.99 2.46 5.37 2.16 6.76 1.96 C 14.08 9.52 21.62 16.86 29.04 24.33 C 27.84 25.49 26.66 26.66 25.47 27.84 C 19.51 21.89 13.55 15.93 7.59 9.97 C 7.58 15.93 7.60 21.88 7.57 27.83 L 8.88 26.69 C 15.30 33.12 21.73 39.54 28.16 45.97 C 26.97 47.15 25.79 48.33 24.63 49.54 C 18.96 43.85 13.29 38.16 7.60 32.49 C 7.58 54.13 7.59 75.77 7.59 97.41 C 5.92 97.39 4.25 97.39 2.59 97.41 C 2.59 65.77 2.59 34.14 2.58 2.50 Z" />
</g>
</svg>
