<?xml version="1.0" encoding="UTF-8" ?>
<!DOCTYPE svg PUBLIC "-//W3C//DTD SVG 1.1//EN" "http://www.w3.org/Graphics/SVG/1.1/DTD/svg11.dtd">
<svg width="100pt" height="20pt" viewBox="0 0 100 20" version="1.1" xmlns="http://www.w3.org/2000/svg">
<g id="#ffffffff">
</g>
<g id="#000000ff">
<path fill="#000000" opacity="1.00" d=" M 23.72 0.00 L 76.56 0.00 C 76.64 0.49 76.81 1.47 76.90 1.96 C 82.78 3.43 88.16 6.32 93.05 9.85 C 95.58 11.22 96.92 14.36 100.00 14.72 L 100.00 18.70 C 97.59 18.69 94.53 19.46 92.93 17.10 C 90.25 14.01 86.73 11.87 83.63 9.33 C 78.22 6.29 72.15 4.53 65.98 4.08 C 56.43 2.20 46.54 3.20 36.83 3.28 C 32.85 4.42 28.71 4.95 24.85 6.61 C 17.24 9.02 11.03 14.32 5.07 19.42 C 3.63 19.77 2.21 19.67 0.82 19.12 C 0.35 17.69 0.24 16.23 0.47 14.75 C 3.79 12.71 6.13 9.34 9.75 7.76 C 13.56 6.03 17.27 4.07 20.88 1.97 C 21.08 1.63 21.48 0.95 21.69 0.61 C 22.20 0.46 23.21 0.15 23.72 0.00 Z" />
</g>
</svg>
