<?xml version="1.0" encoding="UTF-8" ?>
<!DOCTYPE svg PUBLIC "-//W3C//DTD SVG 1.1//EN" "http://www.w3.org/Graphics/SVG/1.1/DTD/svg11.dtd">
<svg width="100pt" height="100pt" viewBox="0 0 100 100" version="1.1" xmlns="http://www.w3.org/2000/svg">
<g id="#ffffffff">
</g>
<g id="#000000ff">
<path fill="#000000" opacity="1.00" d=" M 8.82 6.60 C 10.49 6.60 12.15 6.60 13.82 6.60 C 13.83 10.33 13.82 14.06 13.83 17.80 C 21.69 17.81 29.55 17.79 37.41 17.80 C 37.41 19.47 37.41 21.14 37.41 22.80 C 29.55 22.80 21.69 22.79 13.83 22.81 C 13.82 30.40 13.83 37.99 13.82 45.58 C 21.49 45.62 29.15 45.60 36.81 45.59 C 36.82 47.26 36.82 48.93 36.83 50.60 C 29.16 50.60 21.49 50.60 13.82 50.60 C 13.82 58.73 13.82 66.87 13.83 75.00 C 21.31 75.01 28.80 74.99 36.29 75.00 C 36.29 76.67 36.29 78.33 36.30 79.99 C 28.81 80.01 21.32 79.99 13.83 80.00 C 13.82 84.00 13.82 88.00 13.83 92.00 C 12.16 92.00 10.49 92.00 8.83 92.00 C 8.82 63.53 8.82 35.07 8.82 6.60 Z" />
</g>
</svg>
