<?xml version="1.0" encoding="UTF-8" ?>
<!DOCTYPE svg PUBLIC "-//W3C//DTD SVG 1.1//EN" "http://www.w3.org/Graphics/SVG/1.1/DTD/svg11.dtd">
<svg width="100pt" height="100pt" viewBox="0 0 100 100" version="1.1" xmlns="http://www.w3.org/2000/svg">
<g id="#ffffffff">
</g>
<g id="#000000ff">
<path fill="#000000" opacity="1.00" d=" M 4.44 21.67 C 4.30 16.78 4.45 11.89 4.41 7.00 C 21.59 7.02 38.77 6.97 55.95 7.02 C 60.10 6.96 64.15 7.89 68.18 8.72 C 71.87 10.30 75.46 12.14 78.94 14.14 C 82.69 17.45 86.23 21.35 87.53 26.33 C 88.47 30.28 90.11 34.00 91.15 37.91 C 94.43 47.95 92.47 58.63 92.72 68.96 C 93.19 77.84 92.96 86.73 92.98 95.61 C 88.06 95.63 83.13 95.49 78.21 95.71 C 77.74 83.18 78.14 70.63 77.99 58.08 C 78.19 52.91 78.53 47.53 76.54 42.63 C 75.44 40.29 74.36 37.94 73.28 35.59 C 71.21 31.25 67.41 27.96 63.20 25.75 C 58.66 23.92 53.77 23.26 48.96 22.52 C 34.42 22.93 19.79 23.56 5.27 22.50 C 5.06 22.29 4.65 21.87 4.44 21.67 Z" />
</g>
</svg>
