<?xml version="1.0" encoding="UTF-8" ?>
<!DOCTYPE svg PUBLIC "-//W3C//DTD SVG 1.1//EN" "http://www.w3.org/Graphics/SVG/1.1/DTD/svg11.dtd">
<svg width="20pt" height="100pt" viewBox="0 0 20 100" version="1.1" xmlns="http://www.w3.org/2000/svg">
<g id="#ffffffff">
</g>
<g id="#030303ff">
<path fill="#030303" opacity="1.00" d=" M 0.00 0.25 C 5.61 2.49 7.82 8.37 11.10 12.93 C 14.79 18.33 18.61 24.17 18.78 30.94 C 19.02 42.30 18.68 53.67 18.79 65.03 C 18.98 73.13 16.33 81.22 11.92 87.95 C 8.31 92.13 4.57 96.24 0.51 99.99 C -1.08 93.54 5.34 90.07 8.34 85.36 C 15.72 74.86 16.30 61.39 15.99 49.00 C 15.61 41.55 16.84 33.59 13.43 26.65 C 10.48 18.68 5.40 11.87 0.00 5.42 L 0.00 0.25 Z" />
</g>
</svg>
