<?xml version="1.0" encoding="UTF-8" ?>
<!DOCTYPE svg PUBLIC "-//W3C//DTD SVG 1.1//EN" "http://www.w3.org/Graphics/SVG/1.1/DTD/svg11.dtd">
<svg width="100pt" height="100pt" viewBox="0 0 100 100" version="1.1" xmlns="http://www.w3.org/2000/svg">
<g id="#ffffffff">
</g>
<g id="#000000ff">
<path fill="#000000" opacity="1.00" d=" M 40.39 5.41 C 45.86 4.51 51.48 5.18 57.01 5.01 C 76.18 7.49 92.51 23.81 94.99 42.99 C 95.00 47.97 95.10 52.95 94.93 57.93 C 93.02 68.71 87.18 78.77 78.60 85.60 C 71.07 91.42 61.67 95.61 52.00 95.01 C 48.69 94.95 45.38 95.13 42.08 94.93 C 31.29 93.02 21.23 87.18 14.40 78.59 C 8.57 71.07 4.39 61.67 4.99 52.00 C 5.02 49.00 4.93 45.99 5.01 42.99 C 7.40 24.67 22.32 9.02 40.39 5.41 M 45.07 14.97 C 39.53 16.19 34.02 18.03 29.44 21.49 C 20.22 27.82 15.04 38.98 14.65 50.00 C 14.95 59.42 18.51 68.97 25.47 75.51 C 34.50 84.58 48.74 87.99 60.88 83.91 C 68.16 81.79 74.35 76.90 78.88 70.92 C 85.83 61.46 87.56 48.46 83.27 37.53 C 77.79 22.34 60.94 12.67 45.07 14.97 Z" />
</g>
</svg>
