<?xml version="1.0" encoding="UTF-8" ?>
<!DOCTYPE svg PUBLIC "-//W3C//DTD SVG 1.1//EN" "http://www.w3.org/Graphics/SVG/1.1/DTD/svg11.dtd">
<svg width="100pt" height="100pt" viewBox="0 0 100 100" version="1.1" xmlns="http://www.w3.org/2000/svg">
<g id="#ffffffff">
</g>
<g id="#000000ff">
<path fill="#000000" opacity="1.00" d=" M 0.00 50.16 C 16.46 33.65 32.87 17.07 49.51 0.74 C 65.83 17.41 82.53 33.70 98.89 50.33 C 82.11 66.74 65.74 83.56 49.00 100.00 L 48.07 100.00 C 41.50 93.18 34.73 86.56 28.02 79.88 C 22.12 85.99 16.22 92.13 9.94 97.86 C 9.85 98.39 9.67 99.46 9.58 100.00 L 8.25 100.00 C 6.01 97.22 3.45 94.73 0.82 92.33 C 4.47 87.49 9.21 83.63 13.35 79.23 C 15.88 77.01 17.79 74.02 20.77 72.37 C 13.66 65.69 6.88 58.66 0.00 51.74 L 0.00 50.16 M 34.41 28.25 C 46.85 40.50 58.89 53.19 71.61 65.13 C 74.52 61.51 78.01 58.42 81.28 55.15 C 83.06 53.18 84.99 51.35 87.02 49.64 C 74.57 37.45 62.35 25.03 50.02 12.73 C 44.93 18.01 39.80 23.28 34.41 28.25 M 28.48 33.99 C 25.20 38.19 21.05 41.60 17.43 45.49 C 16.12 46.90 14.72 48.25 13.07 49.27 C 18.39 54.57 23.69 59.88 29.00 65.19 C 34.02 59.79 39.31 54.64 44.60 49.50 C 38.98 44.59 34.25 38.73 28.48 33.99 M 34.38 70.63 C 39.65 75.80 44.87 81.01 50.02 86.29 C 55.33 81.19 60.41 75.85 65.69 70.73 C 60.28 65.75 55.53 60.05 49.85 55.38 C 44.65 60.42 39.78 65.80 34.38 70.63 Z" />
</g>
</svg>
