<?xml version="1.0" encoding="UTF-8" ?>
<!DOCTYPE svg PUBLIC "-//W3C//DTD SVG 1.1//EN" "http://www.w3.org/Graphics/SVG/1.1/DTD/svg11.dtd">
<svg width="100pt" height="100pt" viewBox="0 0 100 100" version="1.1" xmlns="http://www.w3.org/2000/svg">
<g id="#ffffffff">
</g>
<g id="#000000ff">
<path fill="#000000" opacity="1.00" d=" M 13.25 23.90 C 21.79 18.73 32.32 18.71 41.90 20.15 C 51.87 20.86 61.94 19.96 71.85 21.20 C 77.96 21.08 84.42 21.82 89.45 25.60 C 92.25 28.38 93.38 32.39 96.24 35.12 C 96.70 47.75 96.46 60.39 96.46 73.03 C 97.07 76.27 93.70 78.07 91.06 78.67 C 88.31 78.86 85.57 78.43 82.83 78.29 C 77.75 67.38 81.91 53.71 74.18 43.83 C 71.03 40.55 67.34 37.68 63.19 35.78 C 55.92 33.90 48.34 33.52 40.86 33.79 C 35.71 35.19 29.91 35.13 25.54 38.63 C 20.01 42.02 17.60 48.77 17.61 55.00 C 17.54 65.37 18.16 75.81 16.36 86.07 C 16.60 88.04 14.64 88.77 13.21 89.39 C 10.23 89.11 7.03 89.13 4.35 87.64 C 2.59 86.81 3.07 84.58 2.91 83.02 C 2.92 69.34 2.91 55.65 2.92 41.97 C 2.79 39.49 3.70 37.13 5.09 35.11 C 7.68 31.29 9.08 26.42 13.25 23.90 Z" />
</g>
</svg>
