<?xml version="1.0" encoding="UTF-8" ?>
<!DOCTYPE svg PUBLIC "-//W3C//DTD SVG 1.1//EN" "http://www.w3.org/Graphics/SVG/1.1/DTD/svg11.dtd">
<svg width="100pt" height="100pt" viewBox="0 0 100 100" version="1.1" xmlns="http://www.w3.org/2000/svg">
<g id="#ffffffff">
</g>
<g id="#000000ff">
<path fill="#000000" opacity="1.00" d=" M 28.14 14.62 C 35.09 10.80 41.31 5.65 47.89 1.18 C 55.01 5.93 61.93 10.98 68.96 15.86 C 69.88 16.65 71.42 17.39 71.14 18.87 C 71.17 41.91 71.13 64.96 71.16 88.00 C 71.20 90.69 70.94 93.36 70.72 96.04 C 68.55 95.86 66.01 96.54 64.23 94.94 C 59.32 90.91 54.06 87.33 48.94 83.57 L 48.16 83.70 C 43.17 87.61 38.50 91.94 33.64 96.02 C 31.65 95.99 29.67 95.96 27.68 95.87 C 27.80 95.16 28.04 93.75 28.16 93.04 C 28.26 90.36 28.25 87.67 27.98 85.00 C 28.17 80.01 28.34 74.98 27.91 70.00 C 28.25 68.01 28.28 65.99 27.92 64.01 C 28.36 55.36 28.30 46.65 27.95 38.00 C 28.68 30.22 27.63 22.39 28.14 14.62 M 36.38 15.33 C 35.16 16.26 33.29 17.16 33.52 19.00 C 33.57 41.57 33.42 64.14 33.59 86.70 C 36.64 86.96 38.95 85.02 40.78 82.83 C 43.37 80.85 45.62 78.45 48.51 76.87 C 54.17 81.20 60.06 85.20 65.70 89.55 C 65.38 66.26 65.67 42.96 65.55 19.67 C 60.06 15.04 53.84 11.41 48.06 7.18 C 44.13 9.85 40.33 12.70 36.38 15.33 Z" />
<path fill="#000000" opacity="1.00" d=" M 47.32 45.42 C 50.42 43.92 54.36 46.56 54.24 49.97 C 54.23 53.75 49.23 56.36 46.32 53.71 C 43.31 51.67 44.02 46.74 47.32 45.42 Z" />
</g>
</svg>
