<?xml version="1.0" encoding="UTF-8" ?>
<!DOCTYPE svg PUBLIC "-//W3C//DTD SVG 1.1//EN" "http://www.w3.org/Graphics/SVG/1.1/DTD/svg11.dtd">
<svg width="100pt" height="100pt" viewBox="0 0 100 100" version="1.1" xmlns="http://www.w3.org/2000/svg">
<g id="#ffffffff">
</g>
<g id="#000000ff">
<path fill="#000000" opacity="1.00" d=" M 2.58 2.51 C 3.99 2.38 5.40 2.24 6.79 1.97 C 14.08 9.54 21.63 16.86 29.04 24.33 C 27.84 25.49 26.64 26.66 25.46 27.84 C 19.51 21.88 13.54 15.93 7.59 9.98 C 7.58 15.93 7.61 21.88 7.57 27.83 L 8.88 26.69 C 15.30 33.12 21.73 39.54 28.15 45.97 C 26.97 47.15 25.81 48.34 24.64 49.53 C 18.95 43.85 13.28 38.16 7.59 32.48 C 7.57 37.82 7.64 43.15 7.54 48.48 C 8.79 49.18 10.10 49.86 11.06 50.96 C 16.65 56.69 22.38 62.30 28.04 67.97 C 26.83 69.15 25.64 70.33 24.45 71.53 C 18.85 65.88 13.21 60.27 7.59 54.64 C 7.58 60.02 7.59 65.40 7.59 70.78 L 9.19 69.20 C 15.41 75.41 21.62 81.63 27.84 87.85 C 26.66 89.02 25.48 90.19 24.31 91.38 C 18.74 85.81 13.17 80.23 7.59 74.67 C 7.58 82.25 7.60 89.83 7.58 97.40 C 5.92 97.40 4.25 97.39 2.59 97.40 C 2.58 65.77 2.60 34.14 2.58 2.51 Z" />
</g>
</svg>
