<?xml version="1.0" encoding="UTF-8" ?>
<!DOCTYPE svg PUBLIC "-//W3C//DTD SVG 1.1//EN" "http://www.w3.org/Graphics/SVG/1.1/DTD/svg11.dtd">
<svg width="89pt" height="90pt" viewBox="0 0 89 90" version="1.1" xmlns="http://www.w3.org/2000/svg">
<g id="#ffffffff">
</g>
<g id="#000000ff">
<path fill="#000000" opacity="1.00" d=" M 6.03 19.08 C 10.81 6.46 25.29 0.82 37.94 1.02 C 54.68 1.08 71.43 0.79 88.16 1.15 C 88.53 5.94 89.37 11.22 87.66 15.75 C 84.35 17.25 80.58 16.90 77.03 17.03 C 67.01 17.01 56.98 17.10 46.97 16.60 C 39.34 16.90 31.01 17.82 24.97 22.96 C 20.87 26.21 18.79 31.15 16.76 35.81 C 13.72 42.83 15.27 50.61 15.01 58.00 C 14.83 68.37 15.34 78.76 14.78 89.12 C 9.90 89.92 4.91 89.53 0.00 89.22 L 0.00 40.61 C 0.99 33.19 3.66 26.14 6.03 19.08 Z" />
</g>
</svg>
