<?xml version="1.0" encoding="UTF-8" ?>
<!DOCTYPE svg PUBLIC "-//W3C//DTD SVG 1.1//EN" "http://www.w3.org/Graphics/SVG/1.1/DTD/svg11.dtd">
<svg width="89pt" height="89pt" viewBox="0 0 89 89" version="1.1" xmlns="http://www.w3.org/2000/svg">
<g id="#ffffffff">
</g>
<g id="#000000ff">
<path fill="#000000" opacity="1.00" d=" M 74.18 0.98 C 79.07 0.03 84.06 0.50 89.00 0.71 L 89.00 49.39 C 88.30 55.22 86.34 60.77 84.55 66.33 C 83.26 70.42 81.83 74.62 78.89 77.85 C 73.01 84.62 64.08 87.93 55.37 89.00 L 0.75 89.00 C 0.36 84.24 0.41 79.47 0.54 74.70 C 4.06 72.82 8.11 72.99 11.97 72.97 C 21.66 73.02 31.35 72.85 41.03 73.39 C 50.49 73.32 61.52 71.73 67.40 63.42 C 70.84 57.88 74.01 51.74 74.11 45.07 C 74.07 30.38 73.75 15.67 74.18 0.98 Z" />
</g>
</svg>
