<?xml version="1.0" encoding="UTF-8" ?>
<!DOCTYPE svg PUBLIC "-//W3C//DTD SVG 1.1//EN" "http://www.w3.org/Graphics/SVG/1.1/DTD/svg11.dtd">
<svg width="100pt" height="68pt" viewBox="0 0 100 68" version="1.1" xmlns="http://www.w3.org/2000/svg">
<g id="#ffffffff">
</g>
<g id="#000000ff">
<path fill="#000000" opacity="1.00" d=" M 84.79 0.00 L 91.60 0.00 C 93.64 0.74 97.20 1.11 96.93 4.02 C 97.30 16.34 96.88 28.67 97.11 40.99 C 97.07 44.84 97.47 48.96 95.59 52.49 C 94.03 55.53 92.38 58.55 90.47 61.38 C 88.36 64.54 84.91 66.38 81.59 68.00 L 30.60 68.00 C 23.68 67.19 15.58 68.14 10.18 62.83 C 7.12 58.78 3.28 54.44 3.59 49.01 C 3.51 39.34 3.68 29.67 3.53 20.00 C 3.60 17.77 3.38 15.44 4.17 13.31 C 6.95 9.11 12.94 9.90 17.16 10.89 C 21.02 18.83 19.94 28.13 21.63 36.62 C 23.41 44.53 30.15 50.43 37.42 53.35 C 46.76 55.51 56.58 55.91 65.99 53.90 C 70.66 53.13 75.04 50.72 78.14 47.15 C 82.84 41.56 82.51 33.87 82.37 27.01 C 82.60 18.01 81.34 8.55 84.79 0.00 Z" />
</g>
</svg>
