<?xml version="1.0" encoding="UTF-8" ?>
<!DOCTYPE svg PUBLIC "-//W3C//DTD SVG 1.1//EN" "http://www.w3.org/Graphics/SVG/1.1/DTD/svg11.dtd">
<svg width="100pt" height="100pt" viewBox="0 0 100 100" version="1.1" xmlns="http://www.w3.org/2000/svg">
<g id="#ffffffff">
</g>
<g id="#000000ff">
<path fill="#000000" opacity="1.00" d=" M 35.88 7.86 C 39.22 7.21 42.62 6.96 46.01 6.99 C 62.54 7.02 79.08 6.98 95.61 7.01 C 95.53 11.89 95.70 16.76 95.56 21.64 C 95.36 21.85 94.95 22.29 94.75 22.51 C 89.20 23.26 83.58 22.93 78.00 23.00 C 71.03 22.93 64.04 23.21 57.08 22.66 C 50.21 22.05 43.27 23.40 36.83 25.75 C 31.28 28.41 27.14 33.36 25.11 39.12 C 22.11 44.21 21.45 50.26 21.98 56.05 C 21.90 69.27 22.25 82.50 21.79 95.72 C 16.88 95.50 11.96 95.61 7.05 95.64 C 6.98 88.39 6.94 81.14 7.07 73.90 C 7.83 63.90 6.22 53.84 7.40 43.86 C 8.29 39.51 9.51 35.21 11.11 31.06 C 12.45 24.21 15.93 17.73 21.76 13.72 C 26.26 11.30 30.74 8.62 35.88 7.86 Z" />
</g>
</svg>
