<?xml version="1.0" encoding="UTF-8" ?>
<!DOCTYPE svg PUBLIC "-//W3C//DTD SVG 1.1//EN" "http://www.w3.org/Graphics/SVG/1.1/DTD/svg11.dtd">
<svg width="89pt" height="89pt" viewBox="0 0 89 89" version="1.1" xmlns="http://www.w3.org/2000/svg">
<g id="#ffffffff">
</g>
<g id="#000000ff">
<path fill="#000000" opacity="1.00" d=" M 0.00 0.72 C 4.77 0.30 9.56 0.33 14.35 0.46 C 15.84 8.89 14.62 17.50 15.01 26.00 C 15.38 34.18 14.07 42.47 15.63 50.56 C 17.88 58.16 21.69 66.26 29.22 69.86 C 35.67 72.79 42.93 73.66 49.96 73.34 C 60.28 72.79 70.63 73.02 80.96 73.00 C 83.44 73.23 86.48 72.87 88.29 74.94 C 88.99 79.60 88.53 84.32 88.33 89.00 L 33.65 89.00 C 25.15 87.98 16.47 84.84 10.56 78.41 C 7.03 74.70 5.46 69.69 3.95 64.91 C 2.38 59.81 0.62 54.71 0.00 49.38 L 0.00 0.72 Z" />
</g>
</svg>
