<?xml version="1.0" encoding="UTF-8" ?>
<!DOCTYPE svg PUBLIC "-//W3C//DTD SVG 1.1//EN" "http://www.w3.org/Graphics/SVG/1.1/DTD/svg11.dtd">
<svg width="100pt" height="71pt" viewBox="0 0 100 71" version="1.1" xmlns="http://www.w3.org/2000/svg">
<g id="#ffffffff">
</g>
<g id="#000000ff">
<path fill="#000000" opacity="1.00" d=" M 14.15 4.30 C 21.08 0.51 29.28 0.25 36.98 0.79 C 49.30 1.91 61.71 1.06 74.03 2.21 C 79.75 2.37 86.22 3.22 90.28 7.69 C 92.53 10.58 94.82 13.61 96.04 17.09 C 97.01 26.36 96.25 35.70 96.50 45.00 C 96.35 48.89 97.01 52.93 95.87 56.71 C 92.98 60.88 87.11 59.86 82.81 59.10 C 79.12 51.07 80.13 41.88 78.29 33.39 C 76.61 25.48 69.84 19.52 62.55 16.69 C 52.67 14.20 42.17 14.04 32.26 16.54 C 25.30 18.18 19.17 23.81 18.13 31.08 C 16.39 43.82 19.51 57.12 15.49 69.56 C 11.50 70.32 6.48 70.72 3.33 67.68 C 2.40 56.17 3.24 44.55 2.94 33.00 C 3.20 27.33 1.81 21.08 5.06 16.02 C 7.58 11.79 9.66 6.82 14.15 4.30 Z" />
</g>
</svg>
