<?xml version="1.0" encoding="UTF-8" ?>
<!DOCTYPE svg PUBLIC "-//W3C//DTD SVG 1.1//EN" "http://www.w3.org/Graphics/SVG/1.1/DTD/svg11.dtd">
<svg width="100pt" height="68pt" viewBox="0 0 100 68" version="1.1" xmlns="http://www.w3.org/2000/svg">
<g id="#ffffffff">
</g>
<g id="#000000ff">
<path fill="#000000" opacity="1.00" d=" M 30.00 0.00 L 100.00 0.00 L 100.00 68.00 L 30.00 68.00 C 29.85 58.39 30.29 48.76 29.84 39.16 C 20.29 38.55 10.70 39.45 1.16 38.84 C 0.78 35.63 0.78 32.37 1.16 29.16 C 10.70 28.56 20.29 29.45 29.84 28.84 C 30.29 19.24 29.85 9.61 30.00 0.00 M 40.26 7.09 C 40.02 25.00 40.09 42.93 40.22 60.84 C 56.48 61.21 72.76 60.79 89.03 61.03 C 90.68 60.80 93.01 61.55 94.07 59.86 C 94.54 54.25 94.13 48.61 94.25 43.00 C 94.12 31.37 94.52 19.72 94.08 8.10 C 93.03 7.03 91.51 6.76 90.08 6.87 C 73.48 7.44 56.84 6.82 40.26 7.09 Z" />
</g>
</svg>
