<?xml version="1.0" encoding="UTF-8" ?>
<!DOCTYPE svg PUBLIC "-//W3C//DTD SVG 1.1//EN" "http://www.w3.org/Graphics/SVG/1.1/DTD/svg11.dtd">
<svg width="100pt" height="100pt" viewBox="0 0 100 100" version="1.1" xmlns="http://www.w3.org/2000/svg">
<g id="#ffffffff">
</g>
<g id="#000000ff">
<path fill="#000000" opacity="1.00" d=" M 50.43 14.88 C 56.82 10.33 63.22 5.81 69.58 1.23 C 69.92 1.67 70.59 2.55 70.92 2.99 C 71.67 3.00 73.15 3.01 73.89 3.02 C 73.87 33.41 73.89 63.81 73.88 94.20 C 73.15 94.20 71.70 94.20 70.97 94.19 C 70.18 94.90 69.38 95.60 68.60 96.32 C 63.04 90.70 57.44 85.13 51.84 79.56 C 46.22 85.12 40.65 90.74 35.05 96.31 C 33.72 94.94 32.27 93.66 30.60 92.70 C 30.56 62.83 30.60 32.96 30.58 3.10 C 32.13 3.25 33.54 2.94 34.84 2.16 C 40.08 6.35 45.24 10.64 50.43 14.88 M 50.06 21.03 C 45.23 17.03 40.32 13.13 35.53 9.09 C 35.62 35.68 35.65 62.28 35.51 88.88 C 40.91 83.37 46.32 77.85 51.86 72.49 C 57.52 78.20 63.27 83.83 68.89 89.58 C 68.88 62.34 68.87 35.09 68.90 7.84 C 62.61 12.23 56.55 16.95 50.06 21.03 Z" />
<path fill="#000000" opacity="1.00" d=" M 48.47 40.66 C 52.07 38.49 57.09 42.00 55.80 46.16 C 55.28 49.89 50.00 51.19 47.51 48.58 C 45.23 46.47 45.68 42.16 48.47 40.66 Z" />
</g>
</svg>
