<?xml version="1.0" encoding="UTF-8" ?>
<!DOCTYPE svg PUBLIC "-//W3C//DTD SVG 1.1//EN" "http://www.w3.org/Graphics/SVG/1.1/DTD/svg11.dtd">
<svg width="100pt" height="100pt" viewBox="0 0 100 100" version="1.1" xmlns="http://www.w3.org/2000/svg">
<g id="#ffffffff">
</g>
<g id="#000000ff">
<path fill="#000000" opacity="1.00" d=" M 48.37 16.74 C 51.13 14.94 53.70 12.58 57.10 12.11 C 61.47 10.16 66.40 10.50 70.94 11.62 C 73.96 12.48 76.59 14.17 79.29 15.73 C 85.13 20.31 89.11 27.39 88.98 34.92 C 89.20 42.96 85.04 50.60 78.63 55.31 C 72.13 59.51 63.54 61.00 56.25 58.01 C 55.17 57.62 54.08 57.29 52.99 56.98 C 44.00 69.10 34.61 80.97 25.95 93.32 C 25.51 93.48 24.63 93.80 24.20 93.96 C 22.58 92.66 20.91 91.43 19.27 90.16 C 28.80 77.85 37.83 65.17 47.46 52.94 C 43.21 47.94 39.76 41.80 40.11 35.02 C 40.04 28.04 43.47 21.55 48.37 16.74 Z" />
</g>
</svg>
