<?xml version="1.0" encoding="UTF-8" ?>
<!DOCTYPE svg PUBLIC "-//W3C//DTD SVG 1.1//EN" "http://www.w3.org/Graphics/SVG/1.1/DTD/svg11.dtd">
<svg width="100pt" height="100pt" viewBox="0 0 100 100" version="1.1" xmlns="http://www.w3.org/2000/svg">
<g id="#ffffffff">
</g>
<g id="#000000ff">
<path fill="#000000" opacity="1.00" d=" M 45.02 0.00 L 55.99 0.00 C 56.00 9.33 56.00 18.65 56.01 27.98 C 65.67 27.99 75.33 28.01 84.99 28.03 C 85.02 51.69 85.01 75.34 84.99 98.99 C 61.66 99.01 38.34 99.01 15.01 98.99 C 14.98 75.34 14.99 51.69 15.01 28.04 C 25.00 28.01 34.99 28.00 44.98 27.97 C 45.00 18.65 45.01 9.32 45.02 0.00 M 24.00 39.00 C 24.00 46.33 24.00 53.67 24.00 61.00 C 31.33 61.00 38.67 61.00 46.00 61.00 C 46.00 53.66 46.00 46.33 46.00 39.00 C 38.66 39.00 31.33 39.00 24.00 39.00 M 54.00 39.00 C 54.00 46.33 54.00 53.67 54.00 61.00 C 61.33 61.00 68.67 61.00 76.00 61.00 C 76.00 53.66 76.00 46.33 76.00 39.00 C 68.66 39.00 61.33 39.00 54.00 39.00 M 24.00 69.00 C 24.00 76.33 24.00 83.66 24.00 91.00 C 41.34 91.00 58.67 91.01 76.00 91.00 C 76.00 83.67 76.00 76.33 76.00 69.00 C 58.66 68.99 41.33 68.99 24.00 69.00 Z" />
</g>
</svg>
