<?xml version="1.0" encoding="UTF-8" ?>
<!DOCTYPE svg PUBLIC "-//W3C//DTD SVG 1.1//EN" "http://www.w3.org/Graphics/SVG/1.1/DTD/svg11.dtd">
<svg width="100pt" height="20pt" viewBox="0 0 100 20" version="1.1" xmlns="http://www.w3.org/2000/svg">
<g id="#ffffffff">
</g>
<g id="#010101ff">
<path fill="#010101" opacity="1.00" d=" M 0.00 0.99 C 2.43 1.28 5.40 0.72 7.13 2.87 C 11.56 7.30 16.50 11.55 22.58 13.46 C 36.22 18.54 51.03 16.92 65.25 16.51 C 70.52 16.76 74.77 13.37 79.44 11.53 C 85.09 9.15 89.47 4.76 94.39 1.26 C 95.96 0.02 99.76 0.24 99.34 2.94 C 97.75 5.54 94.91 6.89 92.45 8.51 C 87.07 11.81 82.16 15.97 76.22 18.27 C 72.01 19.89 67.42 19.47 63.00 19.47 C 55.00 19.48 47.00 19.47 39.00 19.44 C 33.38 19.44 27.53 19.89 22.18 17.81 C 18.90 16.53 15.64 15.15 12.56 13.45 C 9.59 11.81 8.16 8.50 5.43 6.58 C 3.66 5.29 1.79 4.15 0.00 2.89 L 0.00 0.99 Z" />
</g>
</svg>
