<?xml version="1.0" encoding="UTF-8" ?>
<!DOCTYPE svg PUBLIC "-//W3C//DTD SVG 1.1//EN" "http://www.w3.org/Graphics/SVG/1.1/DTD/svg11.dtd">
<svg width="100pt" height="100pt" viewBox="0 0 100 100" version="1.1" xmlns="http://www.w3.org/2000/svg">
<g id="#ffffffff">
</g>
<g id="#000000ff">
<path fill="#000000" opacity="1.00" d=" M 93.23 1.94 C 94.60 2.26 96.00 2.43 97.42 2.49 C 97.41 34.13 97.42 65.76 97.41 97.40 C 95.75 97.39 94.08 97.39 92.42 97.40 C 92.40 83.15 92.42 68.89 92.41 54.63 C 86.79 60.27 81.16 65.89 75.53 71.53 C 74.35 70.33 73.16 69.14 71.97 67.96 C 77.62 62.30 83.33 56.70 88.93 50.98 C 89.90 49.87 91.18 49.14 92.48 48.49 C 92.33 43.17 92.46 37.85 92.39 32.53 C 86.68 38.16 81.05 43.86 75.38 49.53 C 74.21 48.34 73.03 47.15 71.84 45.98 C 78.27 39.55 84.69 33.12 91.12 26.69 L 92.44 27.83 C 92.39 21.88 92.42 15.93 92.41 9.97 C 86.46 15.93 80.49 21.88 74.54 27.83 C 73.35 26.66 72.16 25.49 70.96 24.33 C 78.37 16.85 85.95 9.54 93.23 1.94 Z" />
</g>
</svg>
