<?xml version="1.0" encoding="UTF-8" ?>
<!DOCTYPE svg PUBLIC "-//W3C//DTD SVG 1.1//EN" "http://www.w3.org/Graphics/SVG/1.1/DTD/svg11.dtd">
<svg width="88pt" height="91pt" viewBox="0 0 88 91" version="1.1" xmlns="http://www.w3.org/2000/svg">
<g id="#ffffffff">
</g>
<g id="#000000ff">
<path fill="#000000" opacity="1.00" d=" M 40.23 0.00 L 45.23 0.00 C 45.43 8.73 44.92 17.47 45.47 26.18 C 50.17 27.81 55.46 29.25 58.57 33.46 C 61.25 36.50 62.10 40.61 64.34 43.92 C 72.19 44.71 80.12 43.99 88.00 44.20 L 88.00 49.20 C 80.10 49.33 72.20 48.99 64.31 49.36 C 62.44 54.40 60.52 59.76 56.29 63.34 C 53.03 65.88 49.02 67.14 45.17 68.45 C 44.47 75.71 45.13 82.99 44.81 90.26 C 43.21 90.28 41.62 90.30 40.02 90.31 C 39.58 83.02 40.18 75.72 39.71 68.42 C 36.20 67.03 32.58 65.73 29.45 63.56 C 24.93 60.02 22.90 54.37 21.47 49.01 C 14.35 48.11 7.16 48.78 0.00 48.65 L 0.00 43.67 C 7.17 43.51 14.34 43.80 21.50 43.53 C 23.52 39.13 25.29 34.30 29.13 31.11 C 32.44 28.70 36.43 27.48 40.14 25.82 C 40.46 17.22 40.18 8.61 40.23 0.00 M 39.30 31.32 C 33.36 32.83 27.73 37.64 26.88 43.96 C 26.22 48.71 26.75 54.13 30.28 57.71 C 33.20 60.64 36.79 63.39 41.07 63.66 C 50.31 64.92 59.83 56.50 58.82 46.99 C 59.57 36.99 48.73 28.87 39.30 31.32 Z" />
</g>
</svg>
