<?xml version="1.0" encoding="UTF-8" ?>
<!DOCTYPE svg PUBLIC "-//W3C//DTD SVG 1.1//EN" "http://www.w3.org/Graphics/SVG/1.1/DTD/svg11.dtd">
<svg width="100pt" height="100pt" viewBox="0 0 100 100" version="1.1" xmlns="http://www.w3.org/2000/svg">
<g id="#ffffffff">
</g>
<g id="#000000ff">
<path fill="#000000" opacity="1.00" d=" M 20.70 15.73 C 24.10 13.54 27.73 11.81 31.68 10.92 C 35.16 10.55 38.72 10.60 42.07 11.71 C 45.65 12.61 48.74 14.55 51.65 16.76 C 56.53 21.56 59.95 28.03 59.89 35.00 C 60.25 41.78 56.80 47.94 52.53 52.93 C 62.16 65.16 71.20 77.85 80.73 90.15 C 79.09 91.42 77.42 92.67 75.80 93.97 C 75.36 93.80 74.49 93.47 74.05 93.30 C 65.37 80.97 55.99 69.09 47.00 56.96 C 38.83 60.68 28.91 60.46 21.38 55.31 C 14.63 50.42 10.46 42.20 11.06 33.81 C 11.24 26.66 15.19 20.10 20.70 15.73 Z" />
</g>
</svg>
