<?xml version="1.0" encoding="UTF-8" ?>
<!DOCTYPE svg PUBLIC "-//W3C//DTD SVG 1.1//EN" "http://www.w3.org/Graphics/SVG/1.1/DTD/svg11.dtd">
<svg width="100pt" height="100pt" viewBox="0 0 100 100" version="1.1" xmlns="http://www.w3.org/2000/svg">
<g id="#ffffffff">
</g>
<g id="#000000ff">
<path fill="#000000" opacity="1.00" d=" M 53.24 29.94 C 59.53 23.29 66.13 16.94 72.59 10.44 C 73.77 11.63 74.95 12.82 76.13 14.00 C 69.89 20.20 63.74 26.47 57.47 32.61 C 55.44 33.16 55.34 29.89 53.24 29.94 Z" />
<path fill="#000000" opacity="1.00" d=" M 0.00 11.09 C 2.22 12.83 4.28 14.75 6.22 16.80 C 16.21 26.81 26.21 36.81 36.22 46.80 C 39.52 43.66 42.53 40.19 45.98 37.21 C 47.71 37.09 48.66 39.12 49.96 40.03 C 46.68 43.64 43.04 46.89 39.77 50.50 C 43.18 53.65 46.37 57.00 49.67 60.26 C 48.60 61.47 47.65 62.77 46.79 64.12 C 43.01 60.99 39.77 57.29 36.22 53.90 C 24.16 66.00 12.01 78.01 0.00 90.16 L 0.00 83.09 C 10.83 72.11 21.81 61.27 32.68 50.33 C 21.78 39.42 10.84 28.57 0.00 17.61 L 0.00 11.09 Z" />
<path fill="#000000" opacity="1.00" d=" M 28.22 14.88 C 29.40 13.71 30.58 12.53 31.75 11.35 C 43.63 23.13 55.32 35.05 67.21 46.80 C 78.14 35.85 89.12 24.95 100.00 13.96 L 100.00 21.08 C 90.31 30.89 80.52 40.60 70.77 50.34 C 80.49 60.14 90.31 69.82 100.00 79.64 L 100.00 86.71 C 89.22 75.69 78.10 65.00 67.40 53.90 C 63.33 57.56 59.65 61.63 55.67 65.38 C 55.60 65.75 55.45 66.50 55.38 66.87 C 53.57 67.84 51.96 69.12 50.52 70.58 C 43.62 77.50 36.70 84.40 29.79 91.31 C 28.61 90.13 27.43 88.96 26.25 87.78 C 34.33 79.41 43.01 71.60 50.72 62.90 C 55.39 59.09 59.32 54.49 63.68 50.34 C 51.82 38.55 40.04 26.71 28.22 14.88 Z" />
<path fill="#000000" opacity="1.00" d=" M 54.18 71.68 C 53.98 69.94 56.17 68.91 57.40 67.95 C 63.23 74.04 69.48 79.74 75.15 85.97 C 73.97 87.07 72.82 88.19 71.67 89.32 C 65.87 83.42 59.84 77.72 54.18 71.68 Z" />
</g>
</svg>
