<?xml version="1.0" encoding="UTF-8" ?>
<!DOCTYPE svg PUBLIC "-//W3C//DTD SVG 1.1//EN" "http://www.w3.org/Graphics/SVG/1.1/DTD/svg11.dtd">
<svg width="100pt" height="100pt" viewBox="0 0 100 100" version="1.1" xmlns="http://www.w3.org/2000/svg">
<g id="#ffffffff">
</g>
<g id="#000000ff">
<path fill="#000000" opacity="1.00" d=" M 57.28 3.30 C 61.23 1.83 65.35 0.35 69.64 0.80 C 70.03 2.16 70.44 3.51 70.86 4.85 C 68.12 6.51 64.95 7.10 61.93 8.04 C 54.15 11.00 46.19 13.41 38.36 16.26 C 45.12 20.55 53.28 21.68 60.04 25.88 C 63.01 27.42 66.38 27.74 69.60 28.44 C 70.15 30.56 70.47 32.75 69.89 34.91 C 69.71 37.60 69.69 40.32 70.06 43.00 C 69.66 51.69 70.39 60.34 69.79 69.01 C 69.85 70.66 69.36 72.58 70.46 74.00 C 69.02 76.89 70.12 80.46 69.59 83.62 C 66.89 83.97 63.93 82.76 61.53 84.48 C 56.65 87.26 51.26 88.92 46.14 91.18 C 41.97 92.33 38.82 95.61 34.59 96.57 C 33.28 96.93 32.15 97.70 31.09 98.52 C 29.79 98.43 28.49 98.32 27.19 98.27 C 26.55 96.84 25.90 95.42 25.25 94.00 C 28.75 91.64 32.81 90.41 36.62 88.69 C 43.47 85.15 50.67 82.37 57.70 79.21 C 50.70 75.55 43.39 72.51 36.42 68.81 C 34.76 68.18 33.03 67.77 31.35 67.21 C 30.51 69.38 27.75 68.04 26.01 68.42 C 25.82 49.98 25.92 31.53 25.96 13.08 C 32.76 11.85 39.17 9.03 45.74 6.97 C 49.57 5.68 53.51 4.77 57.28 3.30 M 31.43 20.81 C 31.06 34.04 31.59 47.29 31.36 60.52 C 42.34 65.81 53.14 71.49 64.20 76.62 C 64.85 62.42 64.36 48.17 64.47 33.95 C 53.49 29.49 42.36 25.41 31.43 20.81 Z" />
<path fill="#000000" opacity="1.00" d=" M 45.47 47.78 C 47.83 45.68 51.13 45.60 53.45 47.81 C 54.29 50.16 53.81 52.55 52.21 54.44 C 49.83 55.30 47.41 54.80 45.49 53.19 C 45.08 51.40 45.11 49.58 45.47 47.78 Z" />
</g>
</svg>
