<?xml version="1.0" encoding="UTF-8" ?>
<!DOCTYPE svg PUBLIC "-//W3C//DTD SVG 1.1//EN" "http://www.w3.org/Graphics/SVG/1.1/DTD/svg11.dtd">
<svg width="100pt" height="100pt" viewBox="0 0 100 100" version="1.1" xmlns="http://www.w3.org/2000/svg">
<g id="#ffffffff">
</g>
<g id="#000000ff">
<path fill="#000000" opacity="1.00" d=" M 86.08 0.00 L 86.50 0.00 C 86.77 2.66 87.03 5.32 86.95 7.99 C 86.77 27.28 86.79 46.58 86.86 65.87 C 83.08 70.88 77.28 73.63 72.51 77.55 C 62.98 84.30 53.93 91.76 44.00 97.95 C 44.11 75.74 44.11 53.53 44.10 31.33 C 46.93 28.16 51.01 26.80 54.54 24.65 C 63.23 18.36 71.67 11.71 80.07 5.03 C 80.70 4.32 81.27 3.57 81.79 2.76 C 83.20 1.81 84.63 0.89 86.08 0.00 M 55.17 32.19 C 53.72 33.21 51.20 33.88 51.41 36.11 C 51.38 52.14 51.47 68.18 51.36 84.21 C 60.99 77.67 70.47 70.88 80.37 64.77 C 80.17 47.89 80.19 31.01 79.91 14.13 C 71.41 19.77 63.40 26.16 55.17 32.19 Z" />
<path fill="#000000" opacity="1.00" d=" M 63.44 43.57 C 66.78 41.50 71.34 45.40 69.80 49.03 C 68.86 52.10 64.47 53.00 62.30 50.69 C 60.18 48.69 60.80 44.80 63.44 43.57 Z" />
</g>
</svg>
