<?xml version="1.0" encoding="UTF-8" ?>
<!DOCTYPE svg PUBLIC "-//W3C//DTD SVG 1.1//EN" "http://www.w3.org/Graphics/SVG/1.1/DTD/svg11.dtd">
<svg width="100pt" height="100pt" viewBox="0 0 100 100" version="1.1" xmlns="http://www.w3.org/2000/svg">
<g id="#ffffffff">
</g>
<g id="#000000ff">
<path fill="#000000" opacity="1.00" d=" M 44.00 2.07 C 53.16 7.69 61.44 14.56 70.21 20.75 C 75.56 24.87 81.30 28.49 86.36 32.99 C 86.60 34.30 86.86 35.61 86.88 36.95 C 86.74 55.28 86.81 73.62 86.95 91.95 C 86.99 94.64 86.76 97.32 86.53 100.00 L 86.13 100.00 C 84.70 99.11 83.30 98.18 81.91 97.23 C 79.37 93.67 75.42 91.58 72.18 88.76 C 67.27 84.65 61.99 81.02 56.96 77.07 C 52.91 73.86 47.71 72.41 44.03 68.67 C 44.19 46.47 44.07 24.27 44.00 2.07 M 51.42 15.82 C 51.54 32.29 51.11 48.82 51.64 65.26 C 61.08 72.06 70.26 79.38 79.93 85.91 C 80.18 69.03 80.17 52.15 80.39 35.28 C 70.54 29.09 61.02 22.38 51.42 15.82 Z" />
<path fill="#000000" opacity="1.00" d=" M 63.38 48.52 C 66.03 46.99 69.81 48.88 70.03 51.97 C 70.57 55.41 66.35 58.27 63.37 56.40 C 60.28 54.92 60.25 49.98 63.38 48.52 Z" />
</g>
</svg>
