<?xml version="1.0" encoding="UTF-8" ?>
<!DOCTYPE svg PUBLIC "-//W3C//DTD SVG 1.1//EN" "http://www.w3.org/Graphics/SVG/1.1/DTD/svg11.dtd">
<svg width="42pt" height="94pt" viewBox="0 0 42 94" version="1.1" xmlns="http://www.w3.org/2000/svg">
<g id="#ffffffff">
</g>
<g id="#000000ff">
<path fill="#000000" opacity="1.00" d=" M 3.01 12.00 C 8.91 8.29 14.87 4.67 21.01 1.38 C 27.83 5.52 33.22 11.95 40.94 14.53 C 41.70 26.33 41.04 38.18 41.26 50.00 C 41.52 58.49 40.55 67.06 42.00 75.47 L 42.00 76.43 C 38.47 79.52 34.24 81.64 30.68 84.68 C 27.48 87.18 24.53 90.10 20.88 91.95 C 17.84 91.10 15.50 88.82 12.96 87.06 C 9.36 84.25 5.37 81.97 1.89 79.02 C 0.40 77.84 0.88 75.70 0.69 74.05 C 0.77 55.69 0.79 37.33 0.68 18.97 C 0.81 16.52 0.36 13.28 3.01 12.00 M 5.92 16.15 C 5.49 27.42 5.87 38.72 5.74 50.00 C 5.87 58.60 5.47 67.21 5.95 75.80 C 10.46 79.02 14.84 82.48 19.53 85.45 C 20.90 86.54 22.15 84.91 23.26 84.26 C 27.55 80.82 31.96 77.54 36.15 73.97 C 36.34 55.66 36.33 37.34 36.16 19.03 C 31.15 14.96 25.92 11.16 20.77 7.29 C 15.69 10.02 10.81 13.10 5.92 16.15 Z" />
<path fill="#000000" opacity="1.00" d=" M 18.45 44.60 C 20.60 43.79 23.57 43.84 25.05 45.85 C 27.19 48.97 25.32 54.44 21.00 53.88 C 15.89 54.62 14.28 46.70 18.45 44.60 Z" />
</g>
</svg>
