<?xml version="1.0" encoding="UTF-8" ?>
<!DOCTYPE svg PUBLIC "-//W3C//DTD SVG 1.1//EN" "http://www.w3.org/Graphics/SVG/1.1/DTD/svg11.dtd">
<svg width="70pt" height="89pt" viewBox="0 0 70 89" version="1.1" xmlns="http://www.w3.org/2000/svg">
<g id="#ffffffff">
</g>
<g id="#000000ff">
<path fill="#000000" opacity="1.00" d=" M 36.05 0.00 L 36.78 0.00 C 44.52 10.34 52.27 20.66 60.03 30.99 C 63.21 35.13 66.46 39.24 69.22 43.68 C 63.36 50.75 58.23 58.39 52.81 65.80 C 47.30 73.53 41.60 81.12 36.30 89.00 L 35.14 89.00 C 31.40 85.27 28.52 80.82 25.41 76.58 C 17.34 65.32 9.00 54.24 1.02 42.91 C 9.17 33.04 16.89 22.85 24.81 12.81 C 28.36 8.38 31.44 3.44 36.05 0.00 M 7.50 43.13 C 12.94 51.38 19.07 59.14 24.78 67.21 C 28.38 71.86 31.34 77.03 35.49 81.24 C 44.63 68.53 53.90 55.92 62.85 43.09 C 53.83 31.07 44.88 19.00 35.73 7.07 C 26.20 19.00 16.84 31.05 7.50 43.13 Z" />
</g>
</svg>
