<?xml version="1.0" encoding="UTF-8" ?>
<!DOCTYPE svg PUBLIC "-//W3C//DTD SVG 1.1//EN" "http://www.w3.org/Graphics/SVG/1.1/DTD/svg11.dtd">
<svg width="100pt" height="100pt" viewBox="0 0 100 100" version="1.1" xmlns="http://www.w3.org/2000/svg">
<g id="#ffffffff">
</g>
<g id="#000000ff">
<path fill="#000000" opacity="1.00" d=" M 30.27 3.98 C 32.73 4.02 35.57 3.51 37.43 5.55 C 42.10 9.61 47.47 12.73 52.19 16.70 C 57.51 12.79 62.29 8.19 67.37 3.98 C 69.34 3.99 71.31 4.05 73.27 4.19 C 72.43 9.47 72.88 14.84 72.92 20.16 C 73.05 22.44 72.80 24.73 73.04 27.01 C 72.74 28.68 72.68 30.36 73.20 32.00 C 72.41 35.60 72.92 39.33 72.97 42.98 C 72.61 57.05 72.91 71.13 73.13 85.18 C 66.13 89.10 59.78 94.21 53.18 98.80 C 45.96 94.13 39.07 88.98 31.99 84.11 C 31.07 83.30 29.48 82.57 29.86 81.05 C 29.84 58.04 29.86 35.03 29.84 12.02 C 29.83 9.33 30.12 6.66 30.27 3.98 M 35.33 10.64 C 35.58 33.87 35.35 57.10 35.45 80.32 C 40.93 84.97 47.16 88.57 52.93 92.82 C 57.44 89.69 61.93 86.53 66.40 83.35 C 67.91 82.40 67.42 80.45 67.51 78.97 C 67.39 57.09 67.60 35.20 67.40 13.32 C 64.26 12.88 62.13 15.16 60.20 17.22 C 57.60 19.16 55.38 21.59 52.48 23.12 C 46.82 18.89 41.11 14.71 35.33 10.64 Z" />
<path fill="#000000" opacity="1.00" d=" M 49.51 45.78 C 53.14 43.52 58.09 48.02 56.28 51.85 C 55.11 55.36 49.92 56.08 47.82 53.06 C 45.83 50.78 46.87 47.05 49.51 45.78 Z" />
</g>
</svg>
