<?xml version="1.0" encoding="UTF-8" ?>
<!DOCTYPE svg PUBLIC "-//W3C//DTD SVG 1.1//EN" "http://www.w3.org/Graphics/SVG/1.1/DTD/svg11.dtd">
<svg width="100pt" height="100pt" viewBox="0 0 100 100" version="1.1" xmlns="http://www.w3.org/2000/svg">
<g id="#ffffffff">
</g>
<g id="#000000ff">
<path fill="#000000" opacity="1.00" d=" M 78.21 4.28 C 83.13 4.51 88.06 4.36 92.99 4.39 C 92.94 13.27 93.20 22.15 92.72 31.02 C 92.66 39.05 93.45 47.11 92.74 55.13 C 92.02 59.89 90.51 64.49 88.89 69.01 C 87.72 73.08 86.69 77.39 83.96 80.74 C 77.09 89.26 65.74 93.07 55.03 93.00 C 38.15 93.00 21.27 93.01 4.39 92.99 C 4.47 88.10 4.30 83.21 4.44 78.32 C 5.66 76.64 8.15 77.47 9.93 77.09 C 21.95 77.01 34.00 76.70 46.00 77.49 C 49.80 77.88 53.42 76.49 57.16 76.18 C 59.18 75.58 61.19 74.95 63.19 74.25 C 66.80 72.37 70.07 69.70 72.27 66.24 C 75.60 60.02 78.98 53.31 78.10 46.02 C 77.99 32.12 77.80 18.18 78.21 4.28 Z" />
</g>
</svg>
