<?xml version="1.0" encoding="UTF-8" ?>
<!DOCTYPE svg PUBLIC "-//W3C//DTD SVG 1.1//EN" "http://www.w3.org/Graphics/SVG/1.1/DTD/svg11.dtd">
<svg width="100pt" height="100pt" viewBox="0 0 100 100" version="1.1" xmlns="http://www.w3.org/2000/svg">
<g id="#ffffffff">
</g>
<g id="#000000ff">
<path fill="#000000" opacity="1.00" d=" M 1.76 0.00 L 6.77 0.00 C 6.76 31.60 6.76 63.19 6.77 94.79 C 33.11 68.51 59.38 42.16 85.74 15.90 C 86.98 17.04 88.15 18.27 89.17 19.62 C 62.18 46.27 35.50 73.26 8.60 100.00 L 1.77 100.00 C 1.76 66.67 1.77 33.33 1.76 0.00 Z" />
<path fill="#000000" opacity="1.00" d=" M 89.04 0.00 L 97.83 0.00 C 97.82 33.33 97.83 66.67 97.82 100.00 L 92.83 100.00 C 92.82 67.76 92.83 35.51 92.82 3.27 C 65.53 30.50 38.28 57.78 11.00 85.02 C 9.77 83.88 8.65 82.62 7.46 81.43 C 34.74 54.37 61.77 27.07 89.04 0.00 Z" />
</g>
</svg>
