<?xml version="1.0" encoding="UTF-8" ?>
<!DOCTYPE svg PUBLIC "-//W3C//DTD SVG 1.1//EN" "http://www.w3.org/Graphics/SVG/1.1/DTD/svg11.dtd">
<svg width="100pt" height="100pt" viewBox="0 0 100 100" version="1.1" xmlns="http://www.w3.org/2000/svg">
<g id="#ffffffff">
<path fill="#ffffff" opacity="1.00" d=" M 0.00 0.00 L 21.80 0.00 C 22.17 6.33 21.94 12.67 22.00 19.00 C 21.96 46.00 22.09 73.00 21.93 100.00 L 0.00 100.00 L 0.00 0.00 Z" />
<path fill="#ffffff" opacity="1.00" d=" M 69.01 0.00 L 100.00 0.00 L 100.00 100.00 L 69.00 100.00 C 69.01 66.67 68.98 33.33 69.01 0.00 Z" />
<path fill="#ffffff" opacity="1.00" d=" M 28.01 6.01 C 39.32 6.01 50.62 5.96 61.93 6.03 C 62.09 35.35 61.95 64.67 61.99 93.99 C 50.66 94.01 39.34 94.01 28.01 93.99 C 27.99 64.66 27.99 35.34 28.01 6.01 M 42.67 49.62 C 41.36 50.57 42.22 52.47 41.94 53.83 C 43.22 54.41 44.34 55.78 45.81 55.74 C 47.39 55.03 49.59 54.13 49.16 51.99 C 49.76 48.58 44.62 47.29 42.67 49.62 Z" />
</g>
<g id="#000000ff">
<path fill="#000000" opacity="1.00" d=" M 21.80 0.00 L 69.01 0.00 C 68.98 33.33 69.01 66.67 69.00 100.00 L 21.93 100.00 C 22.09 73.00 21.96 46.00 22.00 19.00 C 21.94 12.67 22.17 6.33 21.80 0.00 M 28.01 6.01 C 27.99 35.34 27.99 64.66 28.01 93.99 C 39.34 94.01 50.66 94.01 61.99 93.99 C 61.95 64.67 62.09 35.35 61.93 6.03 C 50.62 5.96 39.32 6.01 28.01 6.01 Z" />
<path fill="#000000" opacity="1.00" d=" M 42.67 49.62 C 44.62 47.29 49.76 48.58 49.16 51.99 C 49.59 54.13 47.39 55.03 45.81 55.74 C 44.34 55.78 43.22 54.41 41.94 53.83 C 42.22 52.47 41.36 50.57 42.67 49.62 Z" />
</g>
</svg>
