<?xml version="1.0" encoding="UTF-8" ?>
<!DOCTYPE svg PUBLIC "-//W3C//DTD SVG 1.1//EN" "http://www.w3.org/Graphics/SVG/1.1/DTD/svg11.dtd">
<svg width="50pt" height="100pt" viewBox="0 0 50 100" version="1.1" xmlns="http://www.w3.org/2000/svg">
<g id="#ffffffff">
<path fill="#ffffff" opacity="1.00" d=" M 0.00 0.00 L 2.85 0.00 C 2.61 0.12 2.12 0.37 1.88 0.50 C 2.17 31.33 1.90 62.17 2.02 93.01 C 2.04 95.34 1.98 97.68 1.71 100.00 L 0.00 100.00 L 0.00 0.00 Z" />
<path fill="#ffffff" opacity="1.00" d=" M 10.71 0.00 L 50.00 0.00 L 50.00 100.00 L 49.04 100.00 C 48.97 75.40 48.99 50.79 49.03 26.19 C 36.34 17.36 23.45 8.78 10.71 0.00 Z" />
<path fill="#ffffff" opacity="1.00" d=" M 8.27 7.40 C 19.10 14.73 30.10 21.81 40.96 29.09 C 42.34 29.87 41.95 31.71 42.10 33.02 C 41.81 53.34 42.17 73.67 41.91 93.99 C 30.61 94.01 19.30 94.00 8.00 94.00 C 8.00 69.01 8.00 44.03 8.00 19.05 C 8.01 15.16 7.90 11.27 8.27 7.40 M 25.38 44.17 C 23.76 44.90 21.48 45.77 21.89 48.01 C 21.19 52.65 29.81 52.70 29.18 48.08 C 29.54 45.78 27.16 44.68 25.38 44.17 Z" />
</g>
<g id="#000000ff">
<path fill="#000000" opacity="1.00" d=" M 2.85 0.00 L 10.71 0.00 C 23.45 8.78 36.34 17.36 49.03 26.19 C 48.99 50.79 48.97 75.40 49.04 100.00 L 1.71 100.00 C 1.98 97.68 2.04 95.34 2.02 93.01 C 1.90 62.17 2.17 31.33 1.88 0.50 C 2.12 0.37 2.61 0.12 2.85 0.00 M 8.27 7.40 C 7.90 11.27 8.01 15.16 8.00 19.05 C 8.00 44.03 8.00 69.01 8.00 94.00 C 19.30 94.00 30.61 94.01 41.91 93.99 C 42.17 73.67 41.81 53.34 42.10 33.02 C 41.95 31.71 42.34 29.87 40.96 29.09 C 30.10 21.81 19.10 14.73 8.27 7.40 Z" />
<path fill="#000000" opacity="1.00" d=" M 25.38 44.17 C 27.16 44.68 29.54 45.78 29.18 48.08 C 29.81 52.70 21.19 52.65 21.89 48.01 C 21.48 45.77 23.76 44.90 25.38 44.17 Z" />
</g>
</svg>
