<?xml version="1.0" encoding="UTF-8" ?>
<!DOCTYPE svg PUBLIC "-//W3C//DTD SVG 1.1//EN" "http://www.w3.org/Graphics/SVG/1.1/DTD/svg11.dtd">
<svg width="50pt" height="100pt" viewBox="0 0 50 100" version="1.1" xmlns="http://www.w3.org/2000/svg">
<g id="#ffffffff">
<path fill="#ffffff" opacity="1.00" d=" M 0.00 0.00 L 39.34 0.00 C 26.55 8.75 13.65 17.36 0.96 26.21 C 1.02 50.81 1.02 75.41 0.97 100.00 L 0.00 100.00 L 0.00 0.00 Z" />
<path fill="#ffffff" opacity="1.00" d=" M 47.81 0.00 L 50.00 0.00 L 50.00 100.00 L 48.31 100.00 C 48.25 99.27 48.11 97.80 48.04 97.07 C 47.81 64.71 48.29 32.34 47.81 0.00 Z" />
<path fill="#ffffff" opacity="1.00" d=" M 9.05 29.09 C 19.91 21.81 30.90 14.71 41.75 7.41 C 41.92 9.59 42.01 11.79 42.00 13.98 C 42.00 40.65 42.00 67.33 42.00 94.00 C 30.69 94.00 19.39 94.01 8.08 93.99 C 7.83 73.68 8.18 53.36 7.90 33.05 C 8.06 31.73 7.65 29.87 9.05 29.09 M 24.38 44.18 C 22.70 44.88 20.45 45.81 20.83 48.06 C 20.41 52.03 26.32 52.58 28.15 49.68 C 28.68 46.94 27.11 44.60 24.38 44.18 Z" />
</g>
<g id="#000000ff">
<path fill="#000000" opacity="1.00" d=" M 39.34 0.00 L 47.81 0.00 C 48.29 32.34 47.81 64.71 48.04 97.07 C 48.11 97.80 48.25 99.27 48.31 100.00 L 0.97 100.00 C 1.02 75.41 1.02 50.81 0.96 26.21 C 13.65 17.36 26.55 8.75 39.34 0.00 M 9.05 29.09 C 7.65 29.87 8.06 31.73 7.90 33.05 C 8.18 53.36 7.83 73.68 8.08 93.99 C 19.39 94.01 30.69 94.00 42.00 94.00 C 42.00 67.33 42.00 40.65 42.00 13.98 C 42.01 11.79 41.92 9.59 41.75 7.41 C 30.90 14.71 19.91 21.81 9.05 29.09 Z" />
<path fill="#000000" opacity="1.00" d=" M 24.38 44.18 C 27.11 44.60 28.68 46.94 28.15 49.68 C 26.32 52.58 20.41 52.03 20.83 48.06 C 20.45 45.81 22.70 44.88 24.38 44.18 Z" />
</g>
</svg>
