<?xml version="1.0" encoding="UTF-8" ?>
<!DOCTYPE svg PUBLIC "-//W3C//DTD SVG 1.1//EN" "http://www.w3.org/Graphics/SVG/1.1/DTD/svg11.dtd">
<svg width="50pt" height="100pt" viewBox="0 0 50 100" version="1.1" xmlns="http://www.w3.org/2000/svg">
<g id="#ffffffff">
<path fill="#ffffff" opacity="1.00" d=" M 0.00 0.00 L 0.96 0.00 C 1.03 24.61 1.01 49.22 0.96 73.83 C 13.71 82.61 26.55 91.29 39.35 100.00 L 0.00 100.00 L 0.00 0.00 Z" />
<path fill="#ffffff" opacity="1.00" d=" M 48.28 0.00 L 50.00 0.00 L 50.00 100.00 L 47.10 100.00 C 48.63 99.38 47.72 97.28 48.02 96.03 C 47.96 67.34 48.02 38.65 48.00 9.96 C 47.98 6.64 47.90 3.31 48.28 0.00 Z" />
<path fill="#ffffff" opacity="1.00" d=" M 8.09 6.01 C 19.39 5.99 30.70 6.00 42.00 6.00 C 42.00 31.32 42.00 56.63 42.00 81.95 C 41.99 85.52 42.10 89.10 41.69 92.65 C 30.94 85.19 19.85 78.22 9.02 70.89 C 7.69 70.10 8.04 68.28 7.90 66.99 C 8.19 46.67 7.83 26.33 8.09 6.01 M 22.40 48.89 C 18.07 51.30 23.08 58.14 26.61 54.83 C 30.67 52.39 26.26 46.39 22.40 48.89 Z" />
</g>
<g id="#000000ff">
<path fill="#000000" opacity="1.00" d=" M 0.96 0.00 L 48.28 0.00 C 47.90 3.31 47.98 6.64 48.00 9.96 C 48.02 38.65 47.96 67.34 48.02 96.03 C 47.72 97.28 48.63 99.38 47.10 100.00 L 39.35 100.00 C 26.55 91.29 13.71 82.61 0.96 73.83 C 1.01 49.22 1.03 24.61 0.96 0.00 M 8.09 6.01 C 7.83 26.33 8.19 46.67 7.90 66.99 C 8.04 68.28 7.69 70.10 9.02 70.89 C 19.85 78.22 30.94 85.19 41.69 92.65 C 42.10 89.10 41.99 85.52 42.00 81.95 C 42.00 56.63 42.00 31.32 42.00 6.00 C 30.70 6.00 19.39 5.99 8.09 6.01 Z" />
<path fill="#000000" opacity="1.00" d=" M 22.40 48.89 C 26.26 46.39 30.67 52.39 26.61 54.83 C 23.08 58.14 18.07 51.30 22.40 48.89 Z" />
</g>
</svg>
