<?xml version="1.0" encoding="UTF-8" ?>
<!DOCTYPE svg PUBLIC "-//W3C//DTD SVG 1.1//EN" "http://www.w3.org/Graphics/SVG/1.1/DTD/svg11.dtd">
<svg width="49pt" height="100pt" viewBox="0 0 49 100" version="1.1" xmlns="http://www.w3.org/2000/svg">
<g id="#010101ff">
<path fill="#010101" opacity="1.00" d=" M 0.00 0.00 L 49.00 0.00 L 49.00 100.00 L 0.00 100.00 L 0.00 0.00 M 6.06 5.95 C 5.84 8.29 5.87 10.65 5.88 13.01 C 6.05 39.95 5.70 66.91 6.04 93.85 C 18.30 94.10 30.59 94.12 42.85 93.84 C 43.29 87.24 42.86 80.61 43.00 74.00 C 42.90 51.33 43.20 28.65 42.86 5.99 C 30.61 5.62 18.31 5.68 6.06 5.95 Z" />
<path fill="#010101" opacity="1.00" d=" M 20.96 50.22 C 22.91 47.23 29.12 47.98 28.71 52.01 C 28.81 55.94 23.13 56.48 21.09 53.72 C 20.87 52.56 20.82 51.39 20.96 50.22 Z" />
</g>
<g id="#ffffffff">
</g>
</svg>
