<?xml version="1.0" encoding="UTF-8" ?>
<!DOCTYPE svg PUBLIC "-//W3C//DTD SVG 1.1//EN" "http://www.w3.org/Graphics/SVG/1.1/DTD/svg11.dtd">
<svg width="50pt" height="100pt" viewBox="0 0 50 100" version="1.1" xmlns="http://www.w3.org/2000/svg">
<g id="#000000ff">
<path fill="#000000" opacity="1.00" d=" M 0.00 0.00 L 50.00 0.00 L 50.00 68.00 C 42.71 68.12 35.42 67.74 28.13 68.13 C 27.74 78.75 28.15 89.38 27.98 100.00 L 0.31 100.00 C 0.23 99.92 0.08 99.77 0.00 99.69 L 0.00 0.00 M 7.09 6.09 C 6.94 35.02 6.94 63.97 7.09 92.90 C 11.69 93.13 16.31 93.13 20.91 92.90 C 21.26 82.30 20.75 71.69 21.09 61.09 C 28.36 60.72 35.64 61.28 42.91 60.91 C 43.07 42.64 43.07 24.36 42.91 6.09 C 30.97 5.93 19.03 5.92 7.09 6.09 Z" />
<path fill="#000000" opacity="1.00" d=" M 23.32 47.18 C 26.36 45.38 30.28 48.64 29.46 51.98 C 29.50 56.81 20.43 56.81 20.62 51.89 C 20.25 49.92 21.53 47.95 23.32 47.18 Z" />
</g>
<g id="#ffffffff">
</g>
</svg>
