<?xml version="1.0" encoding="UTF-8" ?>
<!DOCTYPE svg PUBLIC "-//W3C//DTD SVG 1.1//EN" "http://www.w3.org/Graphics/SVG/1.1/DTD/svg11.dtd">
<svg width="47pt" height="100pt" viewBox="0 0 47 100" version="1.1" xmlns="http://www.w3.org/2000/svg">
<g id="#010101ff">
<path fill="#010101" opacity="1.00" d=" M 0.00 0.00 L 47.00 0.00 L 47.00 100.00 L 38.36 100.00 C 25.52 91.39 12.83 82.54 0.00 73.90 L 0.00 0.00 M 7.17 6.16 C 6.74 25.77 7.18 45.40 6.95 65.02 C 7.13 67.16 6.39 70.08 8.69 71.32 C 17.00 77.06 25.61 82.35 33.96 88.05 C 36.15 89.54 38.32 91.10 40.80 92.10 C 41.20 86.08 40.92 80.03 41.00 74.00 C 40.93 51.37 41.12 28.72 40.91 6.09 C 29.67 5.98 18.41 5.86 7.17 6.16 Z" />
<path fill="#010101" opacity="1.00" d=" M 19.95 50.14 C 21.77 48.05 25.21 48.01 26.98 50.18 C 27.19 52.05 27.27 54.42 25.08 55.13 C 23.35 56.55 21.40 54.93 20.03 53.83 C 19.85 52.60 19.83 51.37 19.95 50.14 Z" />
</g>
<g id="#ffffffff">
</g>
</svg>
