<?xml version="1.0" encoding="UTF-8" ?>
<!DOCTYPE svg PUBLIC "-//W3C//DTD SVG 1.1//EN" "http://www.w3.org/Graphics/SVG/1.1/DTD/svg11.dtd">
<svg width="100pt" height="100pt" viewBox="0 0 100 100" version="1.1" xmlns="http://www.w3.org/2000/svg">
<g id="#ffffffff">
</g>
<g id="#000000ff">
<path fill="#000000" opacity="1.00" d=" M 49.15 1.32 C 50.95 1.61 52.03 3.51 53.39 4.61 C 68.37 19.95 83.82 34.83 98.74 50.23 C 82.59 67.07 65.52 83.02 49.52 100.00 L 48.17 100.00 C 41.39 93.45 35.05 86.44 28.05 80.13 C 21.48 86.35 15.39 93.04 8.82 99.26 C 5.60 97.58 3.16 94.83 1.02 91.95 C 6.81 84.82 14.27 79.24 20.04 72.09 C 13.65 65.04 6.54 58.67 0.00 51.76 L 0.00 50.21 C 14.12 35.93 28.42 21.83 42.58 7.58 C 44.73 5.46 46.69 3.10 49.15 1.32 M 34.80 28.13 C 35.77 29.50 36.83 30.80 38.04 31.96 C 49.19 42.84 60.01 54.07 71.19 64.92 C 76.67 60.18 81.45 54.69 86.74 49.75 C 83.35 45.66 79.26 42.23 75.62 38.38 C 67.03 29.97 58.79 21.19 50.01 13.00 C 44.77 17.86 39.77 22.99 34.80 28.13 M 13.36 49.33 C 18.37 54.71 23.58 59.93 28.97 64.93 C 34.16 60.04 39.06 54.86 44.12 49.84 C 39.64 44.10 33.99 39.33 28.92 34.12 C 23.51 38.96 18.67 44.39 13.36 49.33 M 34.88 70.88 C 39.78 76.06 44.79 81.17 50.03 86.01 C 55.47 81.33 60.35 76.02 65.36 70.88 C 60.59 65.45 55.42 60.29 49.98 55.52 C 44.77 60.45 39.47 65.36 34.88 70.88 Z" />
</g>
</svg>
