<?xml version="1.0" encoding="UTF-8" ?>
<!DOCTYPE svg PUBLIC "-//W3C//DTD SVG 1.1//EN" "http://www.w3.org/Graphics/SVG/1.1/DTD/svg11.dtd">
<svg width="100pt" height="100pt" viewBox="0 0 100 100" version="1.1" xmlns="http://www.w3.org/2000/svg">
<g id="#ffffffff">
</g>
<g id="#000000ff">
<path fill="#000000" opacity="1.00" d=" M 15.05 1.05 C 38.35 0.96 61.65 0.97 84.95 1.05 C 85.04 24.68 85.03 48.32 84.95 71.95 C 74.98 72.14 65.02 71.86 55.05 72.05 C 54.91 81.37 55.04 90.68 55.00 100.00 L 44.00 100.00 C 43.96 90.68 44.10 81.37 43.95 72.05 C 34.32 71.86 24.68 72.14 15.05 71.95 C 14.96 48.32 14.97 24.68 15.05 1.05 M 24.03 9.03 C 23.96 16.34 23.97 23.66 24.03 30.97 C 41.34 31.03 58.65 31.02 75.97 30.97 C 76.04 23.66 76.04 16.34 75.97 9.03 C 58.66 8.98 41.34 8.97 24.03 9.03 M 24.03 39.03 C 23.96 46.34 23.96 53.66 24.03 60.97 C 31.34 61.04 38.66 61.04 45.97 60.97 C 46.04 53.66 46.03 46.34 45.97 39.03 C 38.66 38.96 31.34 38.96 24.03 39.03 M 54.03 39.03 C 53.96 46.34 53.96 53.66 54.03 60.97 C 61.34 61.04 68.66 61.04 75.97 60.97 C 76.04 53.66 76.04 46.34 75.97 39.03 C 68.66 38.96 61.34 38.96 54.03 39.03 Z" />
</g>
</svg>
