<?xml version="1.0" encoding="UTF-8" ?>
<!DOCTYPE svg PUBLIC "-//W3C//DTD SVG 1.1//EN" "http://www.w3.org/Graphics/SVG/1.1/DTD/svg11.dtd">
<svg width="100pt" height="100pt" viewBox="0 0 100 100" version="1.1" xmlns="http://www.w3.org/2000/svg">
<g id="#ffffffff">
</g>
<g id="#000000ff">
<path fill="#000000" opacity="1.00" d=" M 1.14 50.24 C 17.65 33.76 33.99 17.10 50.71 0.83 C 67.10 17.34 83.70 33.65 100.00 50.25 L 100.00 51.72 C 93.40 58.66 86.41 65.20 79.78 72.10 C 86.02 78.99 92.98 85.18 99.26 92.03 C 96.74 94.65 94.14 97.20 91.38 99.56 C 84.94 92.99 78.38 86.54 71.94 79.97 C 65.09 86.51 58.59 93.41 51.78 100.00 L 50.51 100.00 C 34.43 83.05 17.50 66.91 1.14 50.24 M 13.12 49.70 C 18.49 54.65 23.46 60.03 28.77 65.06 C 40.95 52.76 53.43 40.74 65.38 28.21 C 60.23 23.10 55.13 17.94 49.96 12.84 C 37.64 25.09 25.34 37.35 13.12 49.70 M 55.66 49.72 C 60.86 54.76 65.92 59.94 71.03 65.07 C 76.34 59.91 81.55 54.65 86.76 49.39 C 81.36 44.45 76.37 39.09 71.12 34.00 C 65.97 39.24 60.59 44.27 55.66 49.72 M 34.48 70.83 C 39.63 75.96 44.65 81.23 49.97 86.19 C 55.11 81.10 60.23 75.99 65.30 70.84 C 60.42 65.47 55.19 60.44 50.03 55.35 C 44.64 60.29 39.51 65.53 34.48 70.83 Z" />
</g>
</svg>
