<?xml version="1.0" encoding="UTF-8" ?>
<!DOCTYPE svg PUBLIC "-//W3C//DTD SVG 1.1//EN" "http://www.w3.org/Graphics/SVG/1.1/DTD/svg11.dtd">
<svg width="44pt" height="100pt" viewBox="0 0 44 100" version="1.1" xmlns="http://www.w3.org/2000/svg">
<g id="#ffffffff">
</g>
<g id="#000000ff">
<path fill="#000000" opacity="1.00" d=" M 33.58 2.49 C 36.96 1.36 40.48 0.79 44.00 0.31 L 44.00 5.46 C 33.54 9.09 22.94 12.33 12.61 16.35 C 18.78 19.97 25.77 21.73 32.17 24.83 C 35.90 26.77 40.02 27.70 44.00 28.98 L 44.00 83.26 C 40.72 83.52 37.32 83.62 34.31 85.12 C 27.23 88.54 19.68 90.92 12.78 94.72 C 8.84 96.61 4.43 99.78 0.00 97.33 L 0.00 93.28 C 10.53 88.69 20.95 83.88 31.43 79.20 C 24.68 75.64 17.75 72.44 10.88 69.10 C 7.50 67.28 3.63 67.89 0.00 68.35 L 0.00 13.49 C 11.19 9.83 22.42 6.25 33.58 2.49 M 5.33 20.98 C 5.25 34.19 5.45 47.40 5.38 60.60 C 16.41 65.69 27.03 71.65 38.19 76.45 C 38.78 62.31 38.41 48.14 38.39 33.98 C 27.44 29.49 16.39 25.21 5.33 20.98 Z" />
<path fill="#000000" opacity="1.00" d=" M 21.47 46.47 C 24.49 44.99 28.51 47.44 27.90 50.93 C 27.91 54.42 23.46 56.01 20.83 54.17 C 18.23 52.41 18.48 47.69 21.47 46.47 Z" />
</g>
</svg>
