<?xml version="1.0" encoding="UTF-8" ?>
<!DOCTYPE svg PUBLIC "-//W3C//DTD SVG 1.1//EN" "http://www.w3.org/Graphics/SVG/1.1/DTD/svg11.dtd">
<svg width="100pt" height="100pt" viewBox="0 0 100 100" version="1.1" xmlns="http://www.w3.org/2000/svg">
<g id="#ffffffff">
</g>
<g id="#000000ff">
<path fill="#000000" opacity="1.00" d=" M 48.26 0.00 L 49.77 0.00 C 66.31 16.33 82.65 32.89 99.14 49.27 C 82.94 66.04 66.24 82.34 49.76 98.85 C 33.07 82.50 16.93 65.59 0.00 49.48 L 0.00 48.20 C 6.59 41.41 13.49 34.93 20.00 28.06 C 13.48 21.63 7.05 15.12 0.50 8.71 C 2.74 5.84 5.25 3.18 8.03 0.81 C 14.77 7.16 21.35 13.69 27.59 20.53 C 34.58 13.79 41.25 6.72 48.26 0.00 M 34.96 28.97 C 40.03 34.10 45.22 39.10 50.23 44.29 C 55.78 39.45 60.78 34.04 65.95 28.81 C 60.88 23.59 55.56 18.62 50.63 13.26 C 45.34 18.43 40.09 23.64 34.96 28.97 M 13.84 50.02 C 18.74 55.37 24.01 60.36 29.15 65.48 C 34.49 60.51 39.70 55.38 44.61 49.97 C 39.55 44.80 34.55 39.55 29.14 34.73 C 23.99 39.78 18.89 44.87 13.84 50.02 M 34.97 71.22 C 39.93 76.58 45.33 81.50 50.29 86.86 C 62.66 74.67 74.92 62.37 87.14 50.03 C 82.09 44.86 76.93 39.78 71.83 34.66 C 59.23 46.52 47.27 59.05 34.97 71.22 Z" />
</g>
</svg>
