<?xml version="1.0" encoding="UTF-8" ?>
<!DOCTYPE svg PUBLIC "-//W3C//DTD SVG 1.1//EN" "http://www.w3.org/Graphics/SVG/1.1/DTD/svg11.dtd">
<svg width="100pt" height="100pt" viewBox="0 0 100 100" version="1.1" xmlns="http://www.w3.org/2000/svg">
<g id="#ffffffff">
</g>
<g id="#000000ff">
<path fill="#000000" opacity="1.00" d=" M 45.00 0.00 L 56.00 0.00 C 56.07 9.31 55.86 18.62 56.07 27.93 C 65.69 28.21 75.31 27.79 84.93 28.07 C 85.05 51.69 85.05 75.31 84.93 98.93 C 61.64 99.05 38.36 99.05 15.07 98.93 C 14.95 75.31 14.95 51.69 15.07 28.07 C 25.02 27.79 34.98 28.21 44.93 27.93 C 45.14 18.62 44.93 9.31 45.00 0.00 M 24.05 39.05 C 23.95 46.35 23.95 53.65 24.04 60.95 C 31.35 61.05 38.65 61.05 45.95 60.95 C 46.05 53.65 46.05 46.35 45.95 39.05 C 38.65 38.95 31.35 38.95 24.05 39.05 M 54.05 39.05 C 53.95 46.35 53.95 53.65 54.05 60.95 C 61.35 61.05 68.65 61.05 75.95 60.95 C 76.05 53.65 76.05 46.35 75.96 39.05 C 68.65 38.95 61.35 38.95 54.05 39.05 M 24.05 69.05 C 23.95 76.35 23.95 83.65 24.05 90.95 C 41.35 91.04 58.65 91.04 75.95 90.95 C 76.05 83.65 76.05 76.35 75.95 69.05 C 58.65 68.96 41.35 68.96 24.05 69.05 Z" />
</g>
</svg>
