<?xml version="1.0" encoding="UTF-8" ?>
<!DOCTYPE svg PUBLIC "-//W3C//DTD SVG 1.1//EN" "http://www.w3.org/Graphics/SVG/1.1/DTD/svg11.dtd">
<svg width="100pt" height="100pt" viewBox="0 0 100 100" version="1.1" xmlns="http://www.w3.org/2000/svg">
<g id="#ffffffff">
</g>
<g id="#000000ff">
<path fill="#000000" opacity="1.00" d=" M 50.23 0.00 L 51.75 0.00 C 58.77 6.70 65.37 13.83 72.43 20.49 C 78.72 13.75 85.14 7.09 91.97 0.89 C 94.78 3.17 97.37 5.73 99.40 8.75 C 93.00 15.23 86.45 21.56 80.05 28.06 C 86.48 34.98 93.43 41.40 100.00 48.19 L 100.00 49.53 C 83.02 65.54 67.00 82.55 50.24 98.80 C 33.70 82.52 17.40 65.99 0.94 49.63 C 3.14 46.95 5.56 44.46 8.06 42.07 C 22.17 28.10 36.07 13.92 50.23 0.00 M 49.36 13.31 C 44.41 18.62 39.09 23.56 34.09 28.82 C 39.23 34.04 44.19 39.49 49.78 44.23 C 54.81 39.11 59.98 34.12 65.00 28.97 C 59.92 23.62 54.69 18.41 49.36 13.31 M 12.92 50.02 C 25.06 62.40 37.32 74.68 49.72 86.81 C 54.69 81.49 60.10 76.61 64.99 71.21 C 56.54 62.59 47.92 54.14 39.42 45.58 C 35.67 41.96 32.24 37.99 28.17 34.71 C 23.04 39.76 17.90 44.82 12.92 50.02 M 55.44 49.98 C 60.29 55.40 65.48 60.54 70.86 65.43 C 76.01 60.36 81.28 55.41 86.10 50.03 C 81.14 44.83 76.03 39.79 70.87 34.80 C 65.41 39.52 60.45 44.78 55.44 49.98 Z" />
</g>
</svg>
