<?xml version="1.0" encoding="UTF-8" ?>
<!DOCTYPE svg PUBLIC "-//W3C//DTD SVG 1.1//EN" "http://www.w3.org/Graphics/SVG/1.1/DTD/svg11.dtd">
<svg width="100pt" height="100pt" viewBox="0 0 100 100" version="1.1" xmlns="http://www.w3.org/2000/svg">
<g id="#ffffffff">
</g>
<g id="#000000ff">
<path fill="#000000" opacity="1.00" d=" M 28.02 15.02 C 51.68 14.98 75.33 14.98 98.98 15.02 C 99.02 38.34 99.02 61.66 98.98 84.98 C 75.33 85.02 51.68 85.02 28.02 84.98 C 27.94 74.99 28.06 65.01 27.98 55.02 C 18.65 54.96 9.33 55.01 0.00 55.00 L 0.00 44.00 C 9.33 43.98 18.65 44.04 27.98 43.98 C 28.06 34.33 27.94 24.67 28.02 15.02 M 39.01 24.01 C 38.98 31.34 38.98 38.66 39.01 45.99 C 46.34 46.02 53.66 46.02 60.98 45.99 C 61.02 38.66 61.02 31.34 60.99 24.01 C 53.66 23.98 46.34 23.98 39.01 24.01 M 69.01 24.01 C 68.99 41.34 68.99 58.66 69.01 75.99 C 76.34 76.02 83.66 76.02 90.99 75.99 C 91.01 58.66 91.01 41.34 90.99 24.01 C 83.66 23.98 76.34 23.98 69.01 24.01 M 39.01 54.01 C 38.98 61.34 38.98 68.66 39.02 75.99 C 46.34 76.02 53.66 76.02 60.99 75.99 C 61.02 68.66 61.02 61.34 60.99 54.01 C 53.66 53.98 46.34 53.98 39.01 54.01 Z" />
</g>
</svg>
