<?xml version="1.0" encoding="UTF-8" ?>
<!DOCTYPE svg PUBLIC "-//W3C//DTD SVG 1.1//EN" "http://www.w3.org/Graphics/SVG/1.1/DTD/svg11.dtd">
<svg width="43pt" height="95pt" viewBox="0 0 43 95" version="1.1" xmlns="http://www.w3.org/2000/svg">
<g id="#ffffffff">
</g>
<g id="#000000ff">
<path fill="#000000" opacity="1.00" d=" M 19.51 0.00 L 20.51 0.00 C 27.59 6.03 35.64 10.76 43.00 16.42 L 43.00 95.00 L 37.56 95.00 C 32.04 90.86 26.85 86.23 20.85 82.78 C 15.00 85.80 10.86 91.19 5.57 95.00 L 0.00 95.00 L 0.00 13.95 C 6.70 9.59 13.39 5.17 19.51 0.00 M 7.22 15.24 C 5.15 16.38 5.65 19.00 5.49 20.97 C 5.58 38.64 5.54 56.32 5.53 74.00 C 5.58 77.94 5.11 81.97 6.14 85.83 C 12.07 84.90 14.94 78.56 20.17 76.14 C 26.46 79.37 31.40 84.70 37.63 88.04 C 37.55 66.02 37.55 43.99 37.63 21.96 C 37.69 20.19 37.42 18.26 35.77 17.26 C 30.75 13.36 25.50 9.68 20.00 6.51 C 15.49 9.02 11.40 12.23 7.22 15.24 Z" />
<path fill="#000000" opacity="1.00" d=" M 19.45 44.36 C 22.51 43.08 26.41 45.55 26.20 48.96 C 26.29 52.78 21.26 55.30 18.35 52.73 C 15.33 50.71 16.05 45.54 19.45 44.36 Z" />
</g>
</svg>
