<?xml version="1.0" encoding="UTF-8" ?>
<!DOCTYPE svg PUBLIC "-//W3C//DTD SVG 1.1//EN" "http://www.w3.org/Graphics/SVG/1.1/DTD/svg11.dtd">
<svg width="43pt" height="94pt" viewBox="0 0 43 94" version="1.1" xmlns="http://www.w3.org/2000/svg">
<g id="#ffffffff">
</g>
<g id="#000000ff">
<path fill="#000000" opacity="1.00" d=" M 0.00 0.44 C 2.97 1.00 6.14 1.43 8.55 3.43 C 13.09 6.89 17.68 10.29 22.29 13.66 C 26.92 10.24 30.97 6.10 35.55 2.62 C 37.66 0.95 40.48 1.04 43.00 0.56 L 43.00 81.90 C 37.28 85.85 31.47 89.67 26.02 94.00 L 20.47 94.00 C 13.55 89.30 6.63 84.58 0.00 79.48 L 0.00 0.44 M 5.39 7.72 C 5.47 29.82 5.45 51.93 5.39 74.03 C 5.48 75.51 5.34 77.31 6.73 78.26 C 11.74 82.64 17.61 85.89 23.00 89.77 C 27.40 86.57 32.10 83.75 36.29 80.27 C 37.94 79.07 37.35 76.79 37.54 75.05 C 37.34 53.39 37.67 31.72 37.37 10.06 C 31.22 11.15 27.81 17.03 22.78 20.15 C 16.89 16.13 11.27 11.74 5.39 7.72 Z" />
<path fill="#000000" opacity="1.00" d=" M 20.41 42.41 C 23.97 41.19 27.86 45.34 26.28 48.82 C 25.12 52.67 19.22 53.02 17.44 49.52 C 15.79 46.90 17.47 43.16 20.41 42.41 Z" />
</g>
</svg>
